<?xml version="1.0" encoding="UTF-8" standalone="no"?>
<!-- Created with Inkscape (http://www.inkscape.org/) -->
<svg
   xmlns:dc="http://purl.org/dc/elements/1.1/"
   xmlns:cc="http://web.resource.org/cc/"
   xmlns:rdf="http://www.w3.org/1999/02/22-rdf-syntax-ns#"
   xmlns:svg="http://www.w3.org/2000/svg"
   xmlns="http://www.w3.org/2000/svg"
   xmlns:xlink="http://www.w3.org/1999/xlink"
   xmlns:sodipodi="http://sodipodi.sourceforge.net/DTD/sodipodi-0.dtd"
   xmlns:inkscape="http://www.inkscape.org/namespaces/inkscape"
   width="810"
   height="1500"
   id="svg20735"
   sodipodi:version="0.32"
   inkscape:version="0.45.1"
   version="1.0"
   sodipodi:docbase="C:\Documents and Settings\Flanker\Desktop\Temporanei\SVG\Piacentine SVG"
   sodipodi:docname="Piacentine-S3.svg"
   inkscape:output_extension="org.inkscape.output.svg.inkscape"
   inkscape:export-filename="C:\Documents and Settings\Alessandro\Documenti\Visual Studio 2005\Projects\ConsoleApplication1\ConsoleApplication1\Media\cards\carte\S3.nuovo.png"
   inkscape:export-xdpi="300"
   inkscape:export-ydpi="300">
  <defs
     id="defs20737" />
  <sodipodi:namedview
     id="base"
     pagecolor="#ffffff"
     bordercolor="#666666"
     borderopacity="1.0"
     inkscape:pageopacity="0.0"
     inkscape:pageshadow="2"
     inkscape:zoom="0.38042345"
     inkscape:cx="361.95842"
     inkscape:cy="671.17915"
     inkscape:document-units="px"
     inkscape:current-layer="layer1"
     inkscape:window-width="1280"
     inkscape:window-height="1003"
     inkscape:window-x="0"
     inkscape:window-y="0"
     inkscape:showpageshadow="true" />
  <metadata
     id="metadata20740">
    <rdf:RDF>
      <cc:Work
         rdf:about="">
        <dc:format>image/svg+xml</dc:format>
        <dc:type
           rdf:resource="http://purl.org/dc/dcmitype/StillImage" />
      </cc:Work>
    </rdf:RDF>
  </metadata>
  <g
     inkscape:label="Livello 1"
     inkscape:groupmode="layer"
     id="layer1"
     transform="translate(125.00029,509.06639)">
    <g
       id="g18578"
       transform="translate(16039.946,-129.67152)">
      <rect
         style="fill:#ffffff;fill-opacity:1;fill-rule:evenodd;stroke:none;stroke-width:3.99999762;stroke-linejoin:miter;stroke-miterlimit:4;stroke-dasharray:none;stroke-opacity:1"
         id="rect26881"
         width="810"
         height="1500"
         x="-16164.946"
         y="-379.39487"
         ry="46.911991"
         rx="46.911991" />
      <rect
         ry="42.40844"
         y="-307.39487"
         x="-16095.946"
         height="1356"
         width="672.00012"
         id="rect26883"
         style="fill:none;fill-opacity:1;fill-rule:evenodd;stroke:#000000;stroke-width:4.00000048;stroke-linejoin:miter;stroke-miterlimit:4;stroke-dasharray:none;stroke-opacity:1"
         rx="42.40844" />
    </g>
    <g
       id="g2478">
      <path
         transform="matrix(2.9021429,0,0,2.9021429,358.48365,-2536.5141)"
         d="M 47.07113 1162.5522 A 8.7866106 8.7866106 0 1 1  29.497909,1162.5522 A 8.7866106 8.7866106 0 1 1  47.07113 1162.5522 z"
         sodipodi:ry="8.7866106"
         sodipodi:rx="8.7866106"
         sodipodi:cy="1162.5522"
         sodipodi:cx="38.284519"
         id="path7468"
         style="fill:#cf2c38;fill-opacity:1;stroke:#000000;stroke-width:2.41201067;stroke-linecap:round;stroke-linejoin:round;stroke-miterlimit:4;stroke-dasharray:none;stroke-opacity:1"
         sodipodi:type="arc" />
      <path
         id="path7464"
         d="M 459.85863,806.2443 C 459.85863,820.5963 452.69063,832.24439 443.85863,832.24439 C 435.02663,832.24439 427.85863,820.5963 427.85863,806.2443 C 427.85863,791.89231 435.02663,780.24431 443.85863,780.24431 C 452.69063,780.24431 459.85863,791.89231 459.85863,806.2443 z "
         style="fill:#cf2c38;fill-opacity:1;stroke:#000000;stroke-width:6.99999952;stroke-linecap:round;stroke-linejoin:round;stroke-miterlimit:4;stroke-opacity:1" />
      <path
         id="path7466"
         d="M 511.32303,806.66271 C 511.32303,821.01471 504.15503,832.6628 495.32303,832.6628 C 486.49103,832.6628 479.32303,821.01471 479.32303,806.66271 C 479.32303,792.31072 486.49103,780.66272 495.32303,780.66272 C 504.15503,780.66272 511.32303,792.31072 511.32303,806.66271 z "
         style="fill:#cf2c38;fill-opacity:1;stroke:#000000;stroke-width:6.99999952;stroke-linecap:round;stroke-linejoin:round;stroke-miterlimit:4;stroke-opacity:1" />
      <g
         style="fill:#fef137;fill-opacity:1"
         transform="translate(-6.3023216,-4.7900403)"
         id="g4851">
        <path
           style="opacity:1;fill:#fef137;fill-opacity:1;stroke:#000000;stroke-width:7;stroke-linecap:round;stroke-linejoin:round;stroke-miterlimit:4;stroke-dasharray:none;stroke-opacity:1"
           d="M 438.50249,545.66999 C 417.93571,613.32344 428.36074,734.22474 451.53374,780.57624 L 500.25249,780.57624 C 523.42549,734.22474 533.85052,613.32344 513.28374,545.66999 L 438.50249,545.66999 z "
           id="path4853"
           sodipodi:nodetypes="ccccc" />
        <path
           style="opacity:1;fill:#fef137;fill-opacity:1;stroke:#000000;stroke-width:6;stroke-linecap:round;stroke-linejoin:round;stroke-miterlimit:4;stroke-dasharray:none;stroke-opacity:1"
           d="M 429.63422,665.78144 C 444.50262,687.68674 484.29311,720.79984 513.06691,739.15484"
           id="path4855"
           sodipodi:nodetypes="cc" />
        <path
           sodipodi:nodetypes="cc"
           id="path4857"
           d="M 429.63422,683.82894 C 444.50262,705.73424 485.47655,737.6639 510.1083,749.80583"
           style="opacity:1;fill:#fef137;fill-opacity:1;stroke:#000000;stroke-width:6;stroke-linecap:round;stroke-linejoin:round;stroke-miterlimit:4;stroke-dasharray:none;stroke-opacity:1" />
        <path
           sodipodi:nodetypes="cc"
           id="path4859"
           d="M 433.12539,715.52719 C 450.04045,737.23845 480.39786,758.48052 504.48695,768.14918"
           style="opacity:1;fill:#fef137;fill-opacity:1;stroke:#000000;stroke-width:6;stroke-linecap:round;stroke-linejoin:round;stroke-miterlimit:4;stroke-dasharray:none;stroke-opacity:1" />
        <path
           style="opacity:1;fill:#fef137;fill-opacity:1;stroke:#000000;stroke-width:6;stroke-linecap:round;stroke-linejoin:round;stroke-miterlimit:4;stroke-dasharray:none;stroke-opacity:1"
           d="M 437.03073,735.30868 C 455.44946,756.62226 481.3345,770.20857 501.23248,777.91259"
           id="path4861"
           sodipodi:nodetypes="cc" />
        <path
           sodipodi:nodetypes="cc"
           id="path4863"
           d="M 429.63422,600.98797 C 444.50262,622.89327 493.46479,677.30833 519.8717,693.88817"
           style="opacity:1;fill:#fef137;fill-opacity:1;stroke:#000000;stroke-width:6;stroke-linecap:round;stroke-linejoin:round;stroke-miterlimit:4;stroke-dasharray:none;stroke-opacity:1" />
        <path
           style="opacity:1;fill:#fef137;fill-opacity:1;stroke:#000000;stroke-width:6;stroke-linecap:round;stroke-linejoin:round;stroke-miterlimit:4;stroke-dasharray:none;stroke-opacity:1"
           d="M 428.45078,623.47338 C 441.83988,644.19524 492.28134,695.6517 518.3924,708.38535"
           id="path4865"
           sodipodi:nodetypes="cc" />
        <path
           style="opacity:1;fill:#fef137;fill-opacity:1;stroke:#000000;stroke-width:6;stroke-linecap:round;stroke-linejoin:round;stroke-miterlimit:4;stroke-dasharray:none;stroke-opacity:1"
           d="M 436.43901,556.01717 C 449.23639,574.668 496.71926,628.49134 523.12617,646.55048"
           id="path4867"
           sodipodi:nodetypes="cc" />
        <path
           sodipodi:nodetypes="cc"
           id="path4869"
           d="M 433.48041,569.3309 C 446.57364,589.46104 491.0979,639.14233 523.42203,660.7518"
           style="opacity:1;fill:#fef137;fill-opacity:1;stroke:#000000;stroke-width:6;stroke-linecap:round;stroke-linejoin:round;stroke-miterlimit:4;stroke-dasharray:none;stroke-opacity:1" />
        <path
           sodipodi:nodetypes="cc"
           id="path4871"
           d="M 479.28956,546.91192 C 490.84605,562.74067 507.74162,579.75281 521.05515,591.22455"
           style="opacity:1;fill:#fef137;fill-opacity:1;stroke:#000000;stroke-width:6;stroke-linecap:round;stroke-linejoin:round;stroke-miterlimit:4;stroke-dasharray:none;stroke-opacity:1" />
        <path
           style="opacity:1;fill:#fef137;fill-opacity:1;stroke:#000000;stroke-width:6;stroke-linecap:round;stroke-linejoin:round;stroke-miterlimit:4;stroke-dasharray:none;stroke-opacity:1"
           d="M 463.66078,545.6597 C 479.06557,565.62115 505.96674,593.94777 523.42203,606.60931"
           id="path4873"
           sodipodi:nodetypes="cc" />
        <path
           style="opacity:1;fill:#fef137;fill-opacity:1;stroke:#000000;stroke-width:3.70000005;stroke-linecap:round;stroke-linejoin:round;stroke-miterlimit:4;stroke-dasharray:none;stroke-opacity:1"
           d="M 486.43945,694.47994 C 486.43945,694.47994 486.43945,711.19604 486.43945,711.19604"
           id="path4875"
           sodipodi:nodetypes="cs" />
        <path
           sodipodi:nodetypes="cs"
           id="path4877"
           d="M 494.57562,700.39715 C 494.57562,700.39715 493.54011,716.22567 493.54011,716.22567"
           style="opacity:1;fill:#fef137;fill-opacity:1;stroke:#000000;stroke-width:3.70000005;stroke-linecap:round;stroke-linejoin:round;stroke-miterlimit:4;stroke-dasharray:none;stroke-opacity:1" />
        <path
           style="opacity:1;fill:#fef137;fill-opacity:1;stroke:#000000;stroke-width:3.70000005;stroke-linecap:round;stroke-linejoin:round;stroke-miterlimit:4;stroke-dasharray:none;stroke-opacity:1"
           d="M 502.12005,706.75815 C 502.12005,706.75815 500.64075,721.2553 500.64075,721.2553"
           id="path4879"
           sodipodi:nodetypes="cs" />
        <path
           sodipodi:nodetypes="cs"
           id="path4881"
           d="M 509.66449,711.93571 C 509.66449,711.93571 507.7414,727.76423 507.7414,727.76423"
           style="opacity:1;fill:#fef137;fill-opacity:1;stroke:#000000;stroke-width:3.70000005;stroke-linecap:round;stroke-linejoin:round;stroke-miterlimit:4;stroke-dasharray:none;stroke-opacity:1" />
        <path
           sodipodi:nodetypes="cs"
           id="path4883"
           d="M 486.73531,639.44987 C 486.73531,639.44987 486.73531,656.16597 486.73531,656.16597"
           style="opacity:1;fill:#fef137;fill-opacity:1;stroke:#000000;stroke-width:3.70000005;stroke-linecap:round;stroke-linejoin:round;stroke-miterlimit:4;stroke-dasharray:none;stroke-opacity:1" />
        <path
           style="opacity:1;fill:#fef137;fill-opacity:1;stroke:#000000;stroke-width:3.70000005;stroke-linecap:round;stroke-linejoin:round;stroke-miterlimit:4;stroke-dasharray:none;stroke-opacity:1"
           d="M 493.61406,646.84638 C 493.61406,646.84638 493.61406,663.56248 493.61406,663.56248"
           id="path4885"
           sodipodi:nodetypes="cs" />
        <path
           sodipodi:nodetypes="cs"
           id="path4887"
           d="M 500.9366,653.94703 C 500.9366,653.94703 500.49281,670.66313 500.49281,670.66313"
           style="opacity:1;fill:#fef137;fill-opacity:1;stroke:#000000;stroke-width:3.70000005;stroke-linecap:round;stroke-linejoin:round;stroke-miterlimit:4;stroke-dasharray:none;stroke-opacity:1" />
        <path
           style="opacity:1;fill:#fef137;fill-opacity:1;stroke:#000000;stroke-width:3.70000005;stroke-linecap:round;stroke-linejoin:round;stroke-miterlimit:4;stroke-dasharray:none;stroke-opacity:1"
           d="M 508.11122,659.71631 C 508.11122,659.71631 507.37157,675.84069 507.37157,675.84069"
           id="path4889"
           sodipodi:nodetypes="cs" />
        <path
           sodipodi:nodetypes="cs"
           id="path4891"
           d="M 515.13791,664.45008 C 515.13791,664.45008 514.25033,680.87032 514.25033,680.87032"
           style="opacity:1;fill:#fef137;fill-opacity:1;stroke:#000000;stroke-width:3.70000005;stroke-linecap:round;stroke-linejoin:round;stroke-miterlimit:4;stroke-dasharray:none;stroke-opacity:1" />
        <path
           style="opacity:1;fill:#fef137;fill-opacity:1;stroke:#000000;stroke-width:3.70000005;stroke-linecap:round;stroke-linejoin:round;stroke-miterlimit:4;stroke-dasharray:none;stroke-opacity:1"
           d="M 495.53716,594.47906 C 495.53716,594.47906 495.53716,611.19516 495.53716,611.19516"
           id="path4893"
           sodipodi:nodetypes="cs" />
        <path
           sodipodi:nodetypes="cs"
           id="path4895"
           d="M 502.41592,603.20695 C 502.41592,603.20695 502.41592,619.92305 502.41592,619.92305"
           style="opacity:1;fill:#fef137;fill-opacity:1;stroke:#000000;stroke-width:3.70000005;stroke-linecap:round;stroke-linejoin:round;stroke-miterlimit:4;stroke-dasharray:none;stroke-opacity:1" />
        <path
           style="opacity:1;fill:#fef137;fill-opacity:1;stroke:#000000;stroke-width:3.70000005;stroke-linecap:round;stroke-linejoin:round;stroke-miterlimit:4;stroke-dasharray:none;stroke-opacity:1"
           d="M 509.29468,608.8283 C 509.29468,608.8283 509.29468,625.5444 509.29468,625.5444"
           id="path4897"
           sodipodi:nodetypes="cs" />
        <path
           sodipodi:nodetypes="cs"
           id="path4899"
           d="M 515.87757,614.89344 C 515.87757,614.89344 516.17343,632.05333 516.17343,632.05333"
           style="opacity:1;fill:#fef137;fill-opacity:1;stroke:#000000;stroke-width:3.70000005;stroke-linecap:round;stroke-linejoin:round;stroke-miterlimit:4;stroke-dasharray:none;stroke-opacity:1" />
        <path
           sodipodi:nodetypes="cs"
           id="path4901"
           d="M 488.6584,587.97013 C 488.6584,587.97013 488.6584,597.73351 488.6584,597.73351"
           style="opacity:1;fill:#fef137;fill-opacity:1;stroke:#000000;stroke-width:3.70000005;stroke-linecap:round;stroke-linejoin:round;stroke-miterlimit:4;stroke-dasharray:none;stroke-opacity:1" />
        <path
           sodipodi:nodetypes="cs"
           id="path4903"
           d="M 487.03117,743.29694 C 487.03117,743.29694 487.03117,750.5455 487.03117,750.5455"
           style="opacity:1;fill:#fef137;fill-opacity:1;stroke:#000000;stroke-width:3.70000005;stroke-linecap:round;stroke-linejoin:round;stroke-miterlimit:4;stroke-dasharray:none;stroke-opacity:1" />
        <path
           style="opacity:1;fill:#fef137;fill-opacity:1;stroke:#000000;stroke-width:3.70000005;stroke-linecap:round;stroke-linejoin:round;stroke-miterlimit:4;stroke-dasharray:none;stroke-opacity:1"
           d="M 494.05786,748.77036 C 494.05786,748.77036 493.762,755.87099 493.762,755.87099"
           id="path4905"
           sodipodi:nodetypes="cs" />
        <path
           sodipodi:nodetypes="cs"
           id="path4907"
           d="M 501.23247,752.91241 C 501.23247,752.91241 500.49282,759.56925 500.49282,759.56925"
           style="opacity:1;fill:#fef137;fill-opacity:1;stroke:#000000;stroke-width:3.70000005;stroke-linecap:round;stroke-linejoin:round;stroke-miterlimit:4;stroke-dasharray:none;stroke-opacity:1" />
      </g>
      <path
         id="path2463"
         d="M 469.59079,-373.93998 C 455.4091,-354.42109 443.28602,-341.65703 428.71579,-327.12748 L 428.71579,534.81002 L 469.59079,534.81002 L 510.46579,534.81002 L 510.46579,-327.12748 C 495.89556,-341.65703 483.77248,-354.42109 469.59079,-373.93998 z "
         style="fill:#3e609e;fill-opacity:1;fill-rule:evenodd;stroke:#000000;stroke-width:4;stroke-linecap:butt;stroke-linejoin:miter;stroke-miterlimit:4;stroke-dasharray:none;stroke-opacity:1" />
      <path
         style="fill:#3e609e;fill-opacity:1;fill-rule:evenodd;stroke:#000000;stroke-width:4;stroke-linecap:round;stroke-linejoin:round;stroke-miterlimit:4;stroke-dasharray:none;stroke-opacity:1"
         d="M 469.59079,-372.36864 L 469.59079,475.07367"
         id="path2465"
         sodipodi:nodetypes="cc" />
      <path
         style="fill:#3e609e;fill-opacity:1;fill-rule:evenodd;stroke:#000000;stroke-width:4;stroke-linecap:round;stroke-linejoin:round;stroke-miterlimit:4;stroke-dasharray:none;stroke-opacity:1"
         d="M 484.66679,-342.1901 L 484.66679,486.86557"
         id="path2467"
         sodipodi:nodetypes="cc" />
      <path
         style="fill:#3e609e;fill-opacity:1;fill-rule:evenodd;stroke:#000000;stroke-width:4;stroke-linecap:round;stroke-linejoin:round;stroke-miterlimit:4;stroke-dasharray:none;stroke-opacity:1"
         d="M 498.16679,-324.22214 L 498.16679,500.76765"
         id="path2469"
         sodipodi:nodetypes="cc" />
      <path
         id="path2472"
         style="fill:none;fill-opacity:1;fill-rule:evenodd;stroke:none;stroke-width:1px;stroke-linecap:butt;stroke-linejoin:miter;stroke-opacity:1"
         d="M 509.45268,507.17166 L 429.33468,506.36526 L 429.27268,-326.19474 L 469.71868,-373.0032 L 510.99268,-324.22017 L 509.45268,507.17166 z "
         sodipodi:nodetypes="cccccc" />
      <path
         sodipodi:type="arc"
         style="fill:none;fill-opacity:1;fill-rule:nonzero;stroke:none;stroke-width:2;stroke-linecap:butt;stroke-linejoin:miter;stroke-miterlimit:4;stroke-dasharray:none;stroke-dashoffset:0;stroke-opacity:1"
         id="path2474"
         sodipodi:cx="3438.5"
         sodipodi:cy="1404.375"
         sodipodi:rx="9.5"
         sodipodi:ry="14.125"
         d="M 3448 1404.375 A 9.5 14.125 0 1 1  3429,1404.375 A 9.5 14.125 0 1 1  3448 1404.375 z"
         transform="matrix(1.8952325,2.1102361e-2,-2.1133022e-2,1.8924828,-6017.0293,-2199.4757)" />
      <path
         sodipodi:nodetypes="cc"
         id="path4920"
         d="M 464.80104,851.93169 C 475.45457,854.18589 484.08963,847.02889 485.21542,836.84279"
         style="fill:none;fill-opacity:1;stroke:#000000;stroke-width:6;stroke-linecap:round;stroke-linejoin:round;stroke-miterlimit:4;stroke-dasharray:none;stroke-opacity:1" />
      <path
         style="fill:none;fill-opacity:1;stroke:#000000;stroke-width:6;stroke-linecap:round;stroke-linejoin:round;stroke-miterlimit:4;stroke-dasharray:none;stroke-opacity:1"
         d="M 497.31468,791.3908 C 503.95168,797.24852 503.50826,816.28619 497.31468,821.5163"
         id="path4924"
         sodipodi:nodetypes="cc" />
      <path
         id="path6491"
         d="M 485.59083,811.89283 C 485.59083,826.24483 478.42283,837.89292 469.59083,837.89292 C 460.75883,837.89292 453.59083,826.24483 453.59083,811.89283 C 453.59083,797.54084 460.75883,785.89284 469.59083,785.89284 C 478.42283,785.89284 485.59083,797.54084 485.59083,811.89283 z "
         style="fill:#cf2c38;fill-opacity:1;stroke:#000000;stroke-width:6.99999952;stroke-linecap:round;stroke-linejoin:round;stroke-miterlimit:4;stroke-opacity:1" />
      <path
         sodipodi:nodetypes="cc"
         id="path4928"
         d="M 444.072,790.82169 C 445.80107,791.05469 447.51364,792.62919 447.94229,793.64599"
         style="fill:none;fill-opacity:1;stroke:#000000;stroke-width:6;stroke-linecap:round;stroke-linejoin:round;stroke-miterlimit:4;stroke-dasharray:none;stroke-opacity:1" />
      <path
         sodipodi:nodetypes="cc"
         id="path4932"
         d="M 470.74564,796.83013 C 477.38264,802.68785 476.93922,821.72552 470.74564,826.95563"
         style="fill:none;fill-opacity:1;stroke:#000000;stroke-width:6;stroke-linecap:round;stroke-linejoin:round;stroke-miterlimit:4;stroke-dasharray:none;stroke-opacity:1" />
      <g
         style="fill:#fef137;fill-opacity:1"
         transform="translate(-6.3023216,-4.7900403)"
         id="g4934">
        <path
           sodipodi:type="arc"
           style="opacity:1;fill:#fef137;fill-opacity:1;stroke:#000000;stroke-width:7.37098598;stroke-linecap:round;stroke-linejoin:round;stroke-miterlimit:4;stroke-dasharray:none;stroke-opacity:1"
           id="path4936"
           sodipodi:cx="-220.12027"
           sodipodi:cy="1145.5612"
           sodipodi:rx="40.828758"
           sodipodi:ry="15.976471"
           d="M -179.29151 1145.5612 A 40.828758 15.976471 0 1 1  -260.94903,1145.5612 A 40.828758 15.976471 0 1 1  -179.29151 1145.5612 z"
           transform="matrix(0.9456522,0,0,0.9537037,684.05033,-315.53864)" />
        <path
           style="opacity:1;fill:#fef137;fill-opacity:1;stroke:#000000;stroke-width:6;stroke-linecap:round;stroke-linejoin:round;stroke-miterlimit:4;stroke-dasharray:none;stroke-opacity:1"
           d="M 448.52601,777.72697 C 460.26181,769.50127 490.34097,769.71717 503.26022,777.72697"
           id="path4938"
           sodipodi:nodetypes="cc" />
      </g>
      <path
         id="path4940"
         d="M 469.59079,461.52914 C 456.14203,481.48797 417.02829,498.40845 417.02829,540.46664 C 417.0283,561.59236 426.84274,579.90414 442.24704,579.90414 C 454.38874,579.90414 454.98774,584.81039 469.59079,584.81039 C 484.19384,584.81039 484.79284,579.90414 496.93454,579.90414 C 512.33884,579.90414 522.15328,561.59236 522.15329,540.46664 C 522.15329,498.40845 483.03955,481.48797 469.59079,461.52914 z "
         style="fill:#000000;fill-opacity:1;stroke:none;stroke-width:1;stroke-linecap:round;stroke-linejoin:round;stroke-miterlimit:4;stroke-dasharray:none;stroke-opacity:1" />
      <g
         transform="translate(348.22563,2.3106136)"
         id="g4942">
        <path
           sodipodi:type="arc"
           style="opacity:1;fill:#cf2c38;fill-opacity:1;stroke:#000000;stroke-width:6.48267651;stroke-linecap:round;stroke-linejoin:round;stroke-miterlimit:4;stroke-dasharray:none;stroke-opacity:1"
           id="path4944"
           sodipodi:cx="-217.45752"
           sodipodi:cy="903.2514"
           sodipodi:rx="17.159914"
           sodipodi:ry="29.290197"
           d="M -200.29761 903.2514 A 17.159914 29.290197 0 1 1  -234.61743,903.2514 A 17.159914 29.290197 0 1 1  -200.29761 903.2514 z"
           transform="matrix(1.1206897,0,0,1.040404,365.06756,-413.20505)" />
        <path
           style="opacity:1;fill:none;fill-opacity:1;stroke:#000000;stroke-width:4;stroke-linecap:round;stroke-linejoin:round;stroke-miterlimit:4;stroke-dasharray:none;stroke-opacity:1"
           d="M -221.59957,892.0087 C -213.57634,888.80355 -215.01008,917.25547 -220.71199,915.67755"
           id="path4946"
           transform="translate(340.89372,-376.11832)"
           sodipodi:nodetypes="cc" />
        <path
           style="opacity:1;fill:none;fill-opacity:1;stroke:#000000;stroke-width:4;stroke-linecap:round;stroke-linejoin:round;stroke-miterlimit:4;stroke-dasharray:none;stroke-opacity:1"
           d="M -224.85404,886.68321 C -224.37511,884.01043 -220.79336,881.46985 -217.17075,883.15142 C -212.53963,885.30113 -208.90455,892.41432 -208.90455,902.14916 C -208.90455,911.88401 -211.95147,924.43148 -219.52855,922.52413"
           id="path4948"
           transform="translate(340.89372,-376.11832)"
           sodipodi:nodetypes="cszc" />
      </g>
      <path
         id="path4950"
         d="M 469.59079,476.47354 C 459.97063,486.48115 428.84079,506.19414 428.84079,540.09854 C 428.84079,557.12864 436.4539,571.91104 448.39209,571.91104 C 452.06608,571.91104 454.73305,568.85953 454.73305,565.75479 C 454.73305,562.65005 452.1308,559.62979 448.39209,559.62979 C 443.61446,559.62979 439.7199,546.7042 439.71989,538.75479 C 439.71989,513.17778 461.49479,495.14208 469.59079,486.25479 C 477.68679,495.14208 499.46169,513.17778 499.46169,538.75479 C 499.46169,546.7042 495.56712,559.62979 490.78949,559.62979 C 487.05079,559.62979 484.44853,562.65005 484.44853,565.75479 C 484.44854,568.85953 487.1155,571.91104 490.78949,571.91104 C 502.72769,571.91104 510.34079,557.12864 510.34079,540.09854 C 510.34079,506.19414 479.21095,486.48115 469.59079,476.47354 z M 469.59079,558.00479 C 463.62101,558.00479 458.77387,561.52069 458.77386,565.84854 C 458.77386,570.17639 463.62102,573.66101 469.59079,573.66104 C 475.56057,573.66104 480.40772,570.17639 480.40772,565.84854 C 480.40772,561.52069 475.56057,558.00482 469.59079,558.00479 z "
         style="fill:#fef137;fill-opacity:1;stroke:none;stroke-width:1;stroke-linecap:round;stroke-linejoin:round;stroke-miterlimit:4;stroke-dasharray:none;stroke-opacity:1" />
      <g
         style="fill:#fef137;fill-opacity:1"
         transform="translate(-6.3023216,-4.7900403)"
         id="g4952">
        <path
           transform="matrix(1.8952325,2.1102361e-2,-2.1133022e-2,1.8924828,-5659.467,-2187.3541)"
           d="M 3229.2896 1406.9587 A 20.789125 20.789125 0 1 1  3187.7114,1406.9587 A 20.789125 20.789125 0 1 1  3229.2896 1406.9587 z"
           sodipodi:ry="20.789125"
           sodipodi:rx="20.789125"
           sodipodi:cy="1406.9587"
           sodipodi:cx="3208.5005"
           id="path2491"
           style="fill:#fef137;fill-opacity:1;fill-rule:nonzero;stroke:#000000;stroke-width:4.22392082;stroke-linecap:butt;stroke-linejoin:miter;stroke-miterlimit:4;stroke-dasharray:none;stroke-dashoffset:0;stroke-opacity:1"
           sodipodi:type="arc" />
        <path
           transform="matrix(1.8952325,2.1102361e-2,-2.1133022e-2,1.8924828,-5490.989,-2187.3541)"
           d="M 3229.2896 1406.9587 A 20.789125 20.789125 0 1 1  3187.7114,1406.9587 A 20.789125 20.789125 0 1 1  3229.2896 1406.9587 z"
           sodipodi:ry="20.789125"
           sodipodi:rx="20.789125"
           sodipodi:cy="1406.9587"
           sodipodi:cx="3208.5005"
           id="path2493"
           style="fill:#fef137;fill-opacity:1;fill-rule:nonzero;stroke:#000000;stroke-width:4.22392082;stroke-linecap:butt;stroke-linejoin:miter;stroke-miterlimit:4;stroke-dasharray:none;stroke-dashoffset:0;stroke-opacity:1"
           sodipodi:type="arc" />
      </g>
      <g
         transform="translate(345.77057,3.4941065)"
         id="g4956">
        <path
           style="fill:#3c6d3d;fill-opacity:1;fill-rule:nonzero;stroke:#000000;stroke-width:5;stroke-linecap:butt;stroke-linejoin:miter;stroke-miterlimit:4;stroke-dasharray:none;stroke-dashoffset:0;stroke-opacity:1"
           d="M 39.70622,507.29203 C 33.3772,507.22156 28.18304,512.2847 28.11247,518.60453 C 28.0419,524.92436 33.12719,530.12779 39.45622,530.19828 C 45.78524,530.26875 50.9794,525.17438 51.04997,518.85453 C 51.12054,512.5347 46.03525,507.36248 39.70622,507.29203 z M 39.70622,539.22953 C 33.3772,539.15906 28.18304,544.25345 28.11247,550.57328 C 28.0419,556.89311 33.12719,562.06529 39.45622,562.13578 C 45.78524,562.20625 50.9794,557.14313 51.04997,550.82328 C 51.12054,544.50345 46.03525,539.29998 39.70622,539.22953 z "
           id="path4958" />
        <path
           id="path4960"
           d="M 12.159345,534.58891 C 12.088875,540.91793 17.152015,546.11209 23.471845,546.18266 C 29.791675,546.25323 34.995105,541.16794 35.065595,534.83891 C 35.136065,528.50989 30.041695,523.31573 23.721845,523.24516 C 17.402015,523.17459 12.229795,528.25988 12.159345,534.58891 z M 44.096845,534.58891 C 44.026375,540.91793 49.120765,546.11209 55.440595,546.18266 C 61.760425,546.25323 66.932605,541.16794 67.003095,534.83891 C 67.073565,528.50989 62.010445,523.31573 55.690595,523.24516 C 49.370765,523.17459 44.167295,528.25988 44.096845,534.58891 z "
           style="fill:#3c6d3d;fill-opacity:1;fill-rule:nonzero;stroke:#000000;stroke-width:5;stroke-linecap:butt;stroke-linejoin:miter;stroke-miterlimit:4;stroke-dasharray:none;stroke-dashoffset:0;stroke-opacity:1" />
        <path
           sodipodi:type="arc"
           style="fill:#3c6d3d;fill-opacity:1;fill-rule:nonzero;stroke:#000000;stroke-width:2.63995051;stroke-linecap:butt;stroke-linejoin:miter;stroke-miterlimit:4;stroke-dasharray:none;stroke-dashoffset:0;stroke-opacity:1"
           id="path4962"
           sodipodi:cx="3206.3123"
           sodipodi:cy="1405.7278"
           sodipodi:rx="6.0497122"
           sodipodi:ry="6.0497122"
           d="M 3212.362 1405.7278 A 6.0497122 6.0497122 0 1 1  3200.2625,1405.7278 A 6.0497122 6.0497122 0 1 1  3212.362 1405.7278 z"
           transform="matrix(1.8952325,2.1102361e-2,-2.1133022e-2,1.8924828,-6007.4201,-2193.2625)" />
      </g>
      <g
         id="g4964"
         transform="translate(514.24857,3.4941065)">
        <path
           id="path4966"
           d="M 39.70622,507.29203 C 33.3772,507.22156 28.18304,512.2847 28.11247,518.60453 C 28.0419,524.92436 33.12719,530.12779 39.45622,530.19828 C 45.78524,530.26875 50.9794,525.17438 51.04997,518.85453 C 51.12054,512.5347 46.03525,507.36248 39.70622,507.29203 z M 39.70622,539.22953 C 33.3772,539.15906 28.18304,544.25345 28.11247,550.57328 C 28.0419,556.89311 33.12719,562.06529 39.45622,562.13578 C 45.78524,562.20625 50.9794,557.14313 51.04997,550.82328 C 51.12054,544.50345 46.03525,539.29998 39.70622,539.22953 z "
           style="fill:#3c6d3d;fill-opacity:1;fill-rule:nonzero;stroke:#000000;stroke-width:5;stroke-linecap:butt;stroke-linejoin:miter;stroke-miterlimit:4;stroke-dasharray:none;stroke-dashoffset:0;stroke-opacity:1" />
        <path
           style="fill:#3c6d3d;fill-opacity:1;fill-rule:nonzero;stroke:#000000;stroke-width:5;stroke-linecap:butt;stroke-linejoin:miter;stroke-miterlimit:4;stroke-dasharray:none;stroke-dashoffset:0;stroke-opacity:1"
           d="M 12.159345,534.58891 C 12.088875,540.91793 17.152015,546.11209 23.471845,546.18266 C 29.791675,546.25323 34.995105,541.16794 35.065595,534.83891 C 35.136065,528.50989 30.041695,523.31573 23.721845,523.24516 C 17.402015,523.17459 12.229795,528.25988 12.159345,534.58891 z M 44.096845,534.58891 C 44.026375,540.91793 49.120765,546.11209 55.440595,546.18266 C 61.760425,546.25323 66.932605,541.16794 67.003095,534.83891 C 67.073565,528.50989 62.010445,523.31573 55.690595,523.24516 C 49.370765,523.17459 44.167295,528.25988 44.096845,534.58891 z "
           id="path4968" />
        <path
           transform="matrix(1.8952325,2.1102361e-2,-2.1133022e-2,1.8924828,-6007.4201,-2193.2625)"
           d="M 3212.362 1405.7278 A 6.0497122 6.0497122 0 1 1  3200.2625,1405.7278 A 6.0497122 6.0497122 0 1 1  3212.362 1405.7278 z"
           sodipodi:ry="6.0497122"
           sodipodi:rx="6.0497122"
           sodipodi:cy="1405.7278"
           sodipodi:cx="3206.3123"
           id="path4970"
           style="fill:#3c6d3d;fill-opacity:1;fill-rule:nonzero;stroke:#000000;stroke-width:2.63995051;stroke-linecap:butt;stroke-linejoin:miter;stroke-miterlimit:4;stroke-dasharray:none;stroke-dashoffset:0;stroke-opacity:1"
           sodipodi:type="arc" />
      </g>
    </g>
    <use
       x="0"
       y="0"
       xlink:href="#g2478"
       id="use2543"
       transform="translate(-379.18216,-8e-6)"
       width="810"
       height="1500" />
    <use
       x="0"
       y="0"
       xlink:href="#g2478"
       id="use2545"
       transform="matrix(1,0,0,-1,-189.59108,481.14498)"
       width="810"
       height="1500" />
  </g>
</svg>
