<?xml version="1.0" encoding="UTF-8" standalone="no"?>
<!-- Created with Inkscape (http://www.inkscape.org/) -->
<svg
   xmlns:dc="http://purl.org/dc/elements/1.1/"
   xmlns:cc="http://web.resource.org/cc/"
   xmlns:rdf="http://www.w3.org/1999/02/22-rdf-syntax-ns#"
   xmlns:svg="http://www.w3.org/2000/svg"
   xmlns="http://www.w3.org/2000/svg"
   xmlns:xlink="http://www.w3.org/1999/xlink"
   xmlns:sodipodi="http://sodipodi.sourceforge.net/DTD/sodipodi-0.dtd"
   xmlns:inkscape="http://www.inkscape.org/namespaces/inkscape"
   width="810"
   height="1500"
   id="svg20735"
   sodipodi:version="0.32"
   inkscape:version="0.45.1"
   version="1.0"
   sodipodi:docbase="C:\Documents and Settings\Flanker\Desktop\Temporanei\SVG\Piacentine SVG"
   sodipodi:docname="Piacentine-S7.svg"
   inkscape:output_extension="org.inkscape.output.svg.inkscape"
   inkscape:export-filename="C:\Documents and Settings\Alessandro\Documenti\Visual Studio 2005\Projects\ConsoleApplication1\ConsoleApplication1\Media\cards\carte\S3.nuovo.png"
   inkscape:export-xdpi="300"
   inkscape:export-ydpi="300">
  <defs
     id="defs20737" />
  <sodipodi:namedview
     id="base"
     pagecolor="#ffffff"
     bordercolor="#666666"
     borderopacity="1.0"
     inkscape:pageopacity="0.0"
     inkscape:pageshadow="2"
     inkscape:zoom="0.538"
     inkscape:cx="356.03318"
     inkscape:cy="813.57673"
     inkscape:document-units="px"
     inkscape:current-layer="layer1"
     inkscape:window-width="1280"
     inkscape:window-height="1003"
     inkscape:window-x="0"
     inkscape:window-y="0"
     inkscape:showpageshadow="true" />
  <metadata
     id="metadata20740">
    <rdf:RDF>
      <cc:Work
         rdf:about="">
        <dc:format>image/svg+xml</dc:format>
        <dc:type
           rdf:resource="http://purl.org/dc/dcmitype/StillImage" />
      </cc:Work>
    </rdf:RDF>
  </metadata>
  <g
     inkscape:label="Livello 1"
     inkscape:groupmode="layer"
     id="layer1"
     transform="translate(125.00029,509.06639)">
    <rect
       rx="46.911991"
       ry="46.911991"
       y="-509.06638"
       x="-125.00029"
       height="1500"
       width="810"
       id="rect26881"
       style="fill:#ffffff;fill-opacity:1;fill-rule:evenodd;stroke:none;stroke-width:3.99999762;stroke-linejoin:miter;stroke-miterlimit:4;stroke-dasharray:none;stroke-opacity:1" />
    <use
       x="0"
       y="0"
       xlink:href="#g3419"
       id="use5492"
       transform="translate(-206.349,-714.99273)"
       width="810"
       height="1500" />
    <g
       id="g3419"
       transform="translate(9.7625446e-6,34.076311)">
      <g
         transform="translate(1759.4215,-24.437222)"
         id="g6133">
        <path
           sodipodi:type="arc"
           style="fill:#cf2c38;fill-opacity:1;stroke:#000000;stroke-width:2.68815398;stroke-linecap:round;stroke-linejoin:round;stroke-miterlimit:4;stroke-dasharray:none;stroke-opacity:1"
           id="path7468"
           sodipodi:cx="38.284519"
           sodipodi:cy="1162.5522"
           sodipodi:rx="8.7866106"
           sodipodi:ry="8.7866106"
           d="M 47.07113 1162.5522 A 8.7866106 8.7866106 0 1 1  29.497909,1162.5522 A 8.7866106 8.7866106 0 1 1  47.07113 1162.5522 z"
           transform="matrix(2.6041243,0,0,2.6039105,-1372.7704,-2175.1415)" />
        <path
           style="fill:none;fill-opacity:1;stroke:#000000;stroke-width:6;stroke-linecap:round;stroke-linejoin:round;stroke-miterlimit:4;stroke-dasharray:none;stroke-opacity:1"
           d="M -1277.3706,865.09808 C -1267.8111,867.12064 -1260.0627,860.69911 -1259.0525,851.55976"
           id="path4920"
           sodipodi:nodetypes="cc" />
      </g>
      <path
         sodipodi:type="arc"
         style="fill:#fef137;fill-opacity:1;fill-rule:nonzero;stroke:#000000;stroke-width:5.63307142;stroke-linecap:butt;stroke-linejoin:miter;stroke-miterlimit:4;stroke-dasharray:none;stroke-dashoffset:0;stroke-opacity:1"
         id="path2491"
         sodipodi:cx="3208.5005"
         sodipodi:cy="1406.9587"
         sodipodi:rx="20.789125"
         sodipodi:ry="20.789125"
         d="M 3229.2896 1406.9587 A 20.789125 20.789125 0 1 1  3187.7114,1406.9587 A 20.789125 20.789125 0 1 1  3229.2896 1406.9587 z"
         transform="matrix(1.4211274,1.5823464e-2,-1.5846455e-2,1.4190655,-4114.21,-1412.7894)" />
      <path
         sodipodi:type="arc"
         style="fill:#fef137;fill-opacity:1;fill-rule:nonzero;stroke:#000000;stroke-width:5.63307142;stroke-linecap:butt;stroke-linejoin:miter;stroke-miterlimit:4;stroke-dasharray:none;stroke-dashoffset:0;stroke-opacity:1"
         id="path2493"
         sodipodi:cx="3208.5005"
         sodipodi:cy="1406.9587"
         sodipodi:rx="20.789125"
         sodipodi:ry="20.789125"
         d="M 3229.2896 1406.9587 A 20.789125 20.789125 0 1 1  3187.7114,1406.9587 A 20.789125 20.789125 0 1 1  3229.2896 1406.9587 z"
         transform="matrix(1.4211274,1.5823464e-2,-1.5846455e-2,1.4190655,-3987.8779,-1412.7894)" />
      <g
         transform="matrix(0.7498433,0,0,0.7498433,393.50295,233.59526)"
         id="g4956">
        <path
           style="fill:#3c6d3d;fill-opacity:1;fill-rule:nonzero;stroke:#000000;stroke-width:6.66805983;stroke-linecap:butt;stroke-linejoin:miter;stroke-miterlimit:4;stroke-dasharray:none;stroke-dashoffset:0;stroke-opacity:1"
           d="M 39.70622,507.29203 C 33.3772,507.22156 28.18304,512.2847 28.11247,518.60453 C 28.0419,524.92436 33.12719,530.12779 39.45622,530.19828 C 45.78524,530.26875 50.9794,525.17438 51.04997,518.85453 C 51.12054,512.5347 46.03525,507.36248 39.70622,507.29203 z M 39.70622,539.22953 C 33.3772,539.15906 28.18304,544.25345 28.11247,550.57328 C 28.0419,556.89311 33.12719,562.06529 39.45622,562.13578 C 45.78524,562.20625 50.9794,557.14313 51.04997,550.82328 C 51.12054,544.50345 46.03525,539.29998 39.70622,539.22953 z "
           id="path4958" />
        <path
           id="path4960"
           d="M 12.159345,534.58891 C 12.088875,540.91793 17.152015,546.11209 23.471845,546.18266 C 29.791675,546.25323 34.995105,541.16794 35.065595,534.83891 C 35.136065,528.50989 30.041695,523.31573 23.721845,523.24516 C 17.402015,523.17459 12.229795,528.25988 12.159345,534.58891 z M 44.096845,534.58891 C 44.026375,540.91793 49.120765,546.11209 55.440595,546.18266 C 61.760425,546.25323 66.932605,541.16794 67.003095,534.83891 C 67.073565,528.50989 62.010445,523.31573 55.690595,523.24516 C 49.370765,523.17459 44.167295,528.25988 44.096845,534.58891 z "
           style="fill:#3c6d3d;fill-opacity:1;fill-rule:nonzero;stroke:#000000;stroke-width:6.66805983;stroke-linecap:butt;stroke-linejoin:miter;stroke-miterlimit:4;stroke-dasharray:none;stroke-dashoffset:0;stroke-opacity:1" />
        <path
           sodipodi:type="arc"
           style="fill:#3c6d3d;fill-opacity:1;fill-rule:nonzero;stroke:#000000;stroke-width:3.52066946;stroke-linecap:butt;stroke-linejoin:miter;stroke-miterlimit:4;stroke-dasharray:none;stroke-dashoffset:0;stroke-opacity:1"
           id="path4962"
           sodipodi:cx="3206.3123"
           sodipodi:cy="1405.7278"
           sodipodi:rx="6.0497122"
           sodipodi:ry="6.0497122"
           d="M 3212.362 1405.7278 A 6.0497122 6.0497122 0 1 1  3200.2625,1405.7278 A 6.0497122 6.0497122 0 1 1  3212.362 1405.7278 z"
           transform="matrix(1.8952325,2.1102361e-2,-2.1133022e-2,1.8924828,-6007.4201,-2193.2625)" />
      </g>
      <g
         id="g4964"
         transform="matrix(0.7498433,0,0,0.7498433,519.83505,233.59526)">
        <path
           id="path4966"
           d="M 39.70622,507.29203 C 33.3772,507.22156 28.18304,512.2847 28.11247,518.60453 C 28.0419,524.92436 33.12719,530.12779 39.45622,530.19828 C 45.78524,530.26875 50.9794,525.17438 51.04997,518.85453 C 51.12054,512.5347 46.03525,507.36248 39.70622,507.29203 z M 39.70622,539.22953 C 33.3772,539.15906 28.18304,544.25345 28.11247,550.57328 C 28.0419,556.89311 33.12719,562.06529 39.45622,562.13578 C 45.78524,562.20625 50.9794,557.14313 51.04997,550.82328 C 51.12054,544.50345 46.03525,539.29998 39.70622,539.22953 z "
           style="fill:#3c6d3d;fill-opacity:1;fill-rule:nonzero;stroke:#000000;stroke-width:6.66805983;stroke-linecap:butt;stroke-linejoin:miter;stroke-miterlimit:4;stroke-dasharray:none;stroke-dashoffset:0;stroke-opacity:1" />
        <path
           style="fill:#3c6d3d;fill-opacity:1;fill-rule:nonzero;stroke:#000000;stroke-width:6.66805983;stroke-linecap:butt;stroke-linejoin:miter;stroke-miterlimit:4;stroke-dasharray:none;stroke-dashoffset:0;stroke-opacity:1"
           d="M 12.159345,534.58891 C 12.088875,540.91793 17.152015,546.11209 23.471845,546.18266 C 29.791675,546.25323 34.995105,541.16794 35.065595,534.83891 C 35.136065,528.50989 30.041695,523.31573 23.721845,523.24516 C 17.402015,523.17459 12.229795,528.25988 12.159345,534.58891 z M 44.096845,534.58891 C 44.026375,540.91793 49.120765,546.11209 55.440595,546.18266 C 61.760425,546.25323 66.932605,541.16794 67.003095,534.83891 C 67.073565,528.50989 62.010445,523.31573 55.690595,523.24516 C 49.370765,523.17459 44.167295,528.25988 44.096845,534.58891 z "
           id="path4968" />
        <path
           transform="matrix(1.8952325,2.1102361e-2,-2.1133022e-2,1.8924828,-6007.4201,-2193.2625)"
           d="M 3212.362 1405.7278 A 6.0497122 6.0497122 0 1 1  3200.2625,1405.7278 A 6.0497122 6.0497122 0 1 1  3212.362 1405.7278 z"
           sodipodi:ry="6.0497122"
           sodipodi:rx="6.0497122"
           sodipodi:cy="1405.7278"
           sodipodi:cx="3206.3123"
           id="path4970"
           style="fill:#3c6d3d;fill-opacity:1;fill-rule:nonzero;stroke:#000000;stroke-width:3.52066946;stroke-linecap:butt;stroke-linejoin:miter;stroke-miterlimit:4;stroke-dasharray:none;stroke-dashoffset:0;stroke-opacity:1"
           sodipodi:type="arc" />
      </g>
      <g
         style="fill:#fef137;fill-opacity:1"
         transform="translate(1754.1036,-24.437222)"
         id="g5592">
        <path
           style="opacity:1;fill:#fef137;fill-opacity:1;stroke:#000000;stroke-width:7;stroke-linecap:round;stroke-linejoin:round;stroke-miterlimit:4;stroke-dasharray:none;stroke-opacity:1"
           d="M -1169.0938,1172.7188 C -1180.0003,1216.5295 -1172.7538,1300.1022 -1163.8438,1327.8125 L -1121.6875,1327.8125 C -1112.7774,1300.1022 -1105.4997,1216.5295 -1116.4063,1172.7188 L -1169.0938,1172.7188 z "
           transform="translate(-125.00029,-509.06639)"
           id="path4538"
           sodipodi:nodetypes="ccccc" />
        <path
           style="opacity:1;fill:#fef137;fill-opacity:1;stroke:#000000;stroke-width:7;stroke-linecap:round;stroke-linejoin:round;stroke-miterlimit:4;stroke-dasharray:none;stroke-opacity:1"
           d="M -1170.7349,1187.5193 C -1153.2604,1209.3152 -1133.5375,1232.7539 -1112.576,1254.5498"
           id="path4543"
           transform="translate(-125.00029,-509.06639)"
           sodipodi:nodetypes="cc" />
        <path
           style="opacity:1;fill:#fef137;fill-opacity:1;stroke:#000000;stroke-width:7;stroke-linecap:round;stroke-linejoin:round;stroke-miterlimit:4;stroke-dasharray:none;stroke-opacity:1"
           d="M -1172.7064,1200.0053 C -1154.4027,1223.5536 -1135.6721,1244.4734 -1113.8904,1268.0217"
           id="path4545"
           transform="translate(-125.00029,-509.06639)"
           sodipodi:nodetypes="cc" />
        <path
           sodipodi:nodetypes="cc"
           id="path4547"
           d="M -1298.6924,721.49704 C -1281.2179,743.29294 -1262.8093,765.08874 -1241.8478,786.88464"
           style="opacity:1;fill:#fef137;fill-opacity:1;stroke:#000000;stroke-width:7;stroke-linecap:round;stroke-linejoin:round;stroke-miterlimit:4;stroke-dasharray:none;stroke-opacity:1" />
        <path
           sodipodi:nodetypes="cc"
           id="path4549"
           d="M -1299.2257,735.85556 C -1281.5796,758.23206 -1261.5599,780.60864 -1240.8621,802.98514"
           style="opacity:1;fill:#fef137;fill-opacity:1;stroke:#000000;stroke-width:7;stroke-linecap:round;stroke-linejoin:round;stroke-miterlimit:4;stroke-dasharray:none;stroke-opacity:1" />
        <path
           style="opacity:1;fill:#fef137;fill-opacity:1;stroke:#000000;stroke-width:7;stroke-linecap:round;stroke-linejoin:round;stroke-miterlimit:4;stroke-dasharray:none;stroke-opacity:1"
           d="M -1297.3534,765.83503 C -1283.2676,783.20198 -1268.4858,800.56889 -1252.1891,817.93584"
           id="path4551"
           sodipodi:nodetypes="cs" />
        <path
           style="opacity:1;fill:#fef137;fill-opacity:1;stroke:#000000;stroke-width:7;stroke-linecap:round;stroke-linejoin:round;stroke-miterlimit:4;stroke-dasharray:none;stroke-opacity:1"
           d="M -1295.9075,782.69135 C -1286.0446,794.78083 -1275.5557,806.87033 -1264.7079,818.95982"
           id="path4553"
           sodipodi:nodetypes="cs" />
        <path
           sodipodi:nodetypes="cs"
           id="path4555"
           d="M -1265.7859,663.51432 C -1256.4922,674.73463 -1246.842,685.95492 -1236.6145,697.17523"
           style="opacity:1;fill:#fef137;fill-opacity:1;stroke:#000000;stroke-width:7;stroke-linecap:round;stroke-linejoin:round;stroke-miterlimit:4;stroke-dasharray:none;stroke-opacity:1" />
        <path
           sodipodi:nodetypes="cs"
           id="path4557"
           d="M -1278.2469,663.27893 C -1265.4938,679.32287 -1251.5465,695.36685 -1237.0301,711.41081"
           style="opacity:1;fill:#fef137;fill-opacity:1;stroke:#000000;stroke-width:7;stroke-linecap:round;stroke-linejoin:round;stroke-miterlimit:4;stroke-dasharray:none;stroke-opacity:1" />
        <path
           style="opacity:1;fill:#fef137;fill-opacity:1;stroke:#000000;stroke-width:3.5;stroke-linecap:round;stroke-linejoin:round;stroke-miterlimit:4;stroke-dasharray:none;stroke-opacity:1"
           d="M -1236.262,721.16844 C -1240.621,717.11594 -1244.6076,713.06344 -1248.0909,709.01094"
           id="path4559"
           sodipodi:nodetypes="cc" />
        <path
           sodipodi:nodetypes="cc"
           id="path5530"
           d="M -1237.0834,727.98649 C -1241.4424,723.93399 -1245.429,719.88149 -1248.9123,715.82899"
           style="opacity:1;fill:#fef137;fill-opacity:1;stroke:#000000;stroke-width:3.5;stroke-linecap:round;stroke-linejoin:round;stroke-miterlimit:4;stroke-dasharray:none;stroke-opacity:1" />
        <path
           style="opacity:1;fill:#fef137;fill-opacity:1;stroke:#000000;stroke-width:3.5;stroke-linecap:round;stroke-linejoin:round;stroke-miterlimit:4;stroke-dasharray:none;stroke-opacity:1"
           d="M -1237.7406,734.80454 C -1242.0996,730.75204 -1246.0862,726.69954 -1249.5695,722.64704"
           id="path5532"
           sodipodi:nodetypes="cc" />
        <path
           sodipodi:nodetypes="cc"
           id="path5558"
           d="M -1237.7406,768.81272 C -1242.0996,764.76022 -1246.0862,760.70772 -1249.5695,756.65522"
           style="opacity:1;fill:#fef137;fill-opacity:1;stroke:#000000;stroke-width:3.5;stroke-linecap:round;stroke-linejoin:round;stroke-miterlimit:4;stroke-dasharray:none;stroke-opacity:1" />
        <path
           style="opacity:1;fill:#fef137;fill-opacity:1;stroke:#000000;stroke-width:3.5;stroke-linecap:round;stroke-linejoin:round;stroke-miterlimit:4;stroke-dasharray:none;stroke-opacity:1"
           d="M -1241.1907,771.60566 C -1245.5497,767.55316 -1249.5363,763.50066 -1253.0196,759.44816"
           id="path5560"
           sodipodi:nodetypes="cc" />
        <path
           sodipodi:nodetypes="cc"
           id="path5562"
           d="M -1240.8621,778.50586 C -1245.2211,774.45336 -1249.2077,770.40086 -1252.691,766.34836"
           style="opacity:1;fill:#fef137;fill-opacity:1;stroke:#000000;stroke-width:3.5;stroke-linecap:round;stroke-linejoin:round;stroke-miterlimit:4;stroke-dasharray:none;stroke-opacity:1" />
        <path
           style="opacity:1;fill:#fef137;fill-opacity:1;stroke:#000000;stroke-width:3.5;stroke-linecap:round;stroke-linejoin:round;stroke-miterlimit:4;stroke-dasharray:none;stroke-opacity:1"
           d="M -1246.7766,805.94239 C -1251.1356,801.88989 -1255.1222,797.83739 -1258.6055,793.78489"
           id="path5564"
           sodipodi:nodetypes="cc" />
        <path
           sodipodi:nodetypes="cc"
           id="path5566"
           d="M -1248.5838,810.87111 C -1252.9428,806.81861 -1256.9294,802.76611 -1260.4127,798.71361"
           style="opacity:1;fill:#fef137;fill-opacity:1;stroke:#000000;stroke-width:3.5;stroke-linecap:round;stroke-linejoin:round;stroke-miterlimit:4;stroke-dasharray:none;stroke-opacity:1" />
        <path
           style="opacity:1;fill:#fef137;fill-opacity:1;stroke:#000000;stroke-width:3.5;stroke-linecap:round;stroke-linejoin:round;stroke-miterlimit:4;stroke-dasharray:none;stroke-opacity:1"
           d="M -1296.5567,757.14808 C -1293.2662,761.20058 -1288.7495,766.56741 -1284.5635,770.94849"
           id="path5568"
           sodipodi:nodetypes="cc" />
        <path
           sodipodi:nodetypes="cc"
           id="path5570"
           d="M -1296.3924,750.24787 C -1293.1019,754.30037 -1288.5852,759.6672 -1284.3992,764.04828"
           style="opacity:1;fill:#fef137;fill-opacity:1;stroke:#000000;stroke-width:3.5;stroke-linecap:round;stroke-linejoin:round;stroke-miterlimit:4;stroke-dasharray:none;stroke-opacity:1" />
        <path
           style="opacity:1;fill:#fef137;fill-opacity:1;stroke:#000000;stroke-width:3.5;stroke-linecap:round;stroke-linejoin:round;stroke-miterlimit:4;stroke-dasharray:none;stroke-opacity:1"
           d="M -1297.871,707.03944 C -1294.5805,711.09194 -1288.2566,718.92313 -1284.0706,723.30421"
           id="path5572"
           sodipodi:nodetypes="cc" />
        <path
           sodipodi:nodetypes="cc"
           id="path5574"
           d="M -1300.0068,710.48954 C -1296.7163,714.54204 -1293.6782,718.92313 -1289.4922,723.30421"
           style="opacity:1;fill:#fef137;fill-opacity:1;stroke:#000000;stroke-width:3.5;stroke-linecap:round;stroke-linejoin:round;stroke-miterlimit:4;stroke-dasharray:none;stroke-opacity:1" />
        <path
           sodipodi:nodetypes="cc"
           id="path5576"
           d="M -1298.3639,699.97494 C -1295.0734,704.02744 -1288.7495,711.85863 -1284.5635,716.23971"
           style="opacity:1;fill:#fef137;fill-opacity:1;stroke:#000000;stroke-width:3.5;stroke-linecap:round;stroke-linejoin:round;stroke-miterlimit:4;stroke-dasharray:none;stroke-opacity:1" />
      </g>
      <g
         transform="translate(1753.1146,-24.437222)"
         id="g5585">
        <path
           style="fill:#3e609e;fill-opacity:1;fill-rule:evenodd;stroke:#000000;stroke-width:4;stroke-linecap:butt;stroke-linejoin:miter;stroke-miterlimit:4;stroke-dasharray:none;stroke-opacity:1"
           d="M -1141.7813,826 C -1148.3718,835.75447 -1163.6028,849.92955 -1172.125,855.5625 L -1172.125,1157.75 L -1141.7813,1157.75 L -1111.4063,1157.75 L -1111.4063,855.5625 C -1119.9284,849.92955 -1135.1906,835.75447 -1141.7813,826 z "
           transform="translate(-125.00029,-509.06639)"
           id="path2463" />
        <path
           sodipodi:nodetypes="cc"
           id="path2465"
           d="M -1266.7659,320.62793 L -1266.7659,651.38002"
           style="fill:#3e609e;fill-opacity:1;fill-rule:evenodd;stroke:#000000;stroke-width:4;stroke-linecap:round;stroke-linejoin:round;stroke-miterlimit:4;stroke-dasharray:none;stroke-opacity:1" />
        <path
           style="fill:#3e609e;fill-opacity:1;fill-rule:evenodd;stroke:#000000;stroke-width:4;stroke-linecap:round;stroke-linejoin:round;stroke-miterlimit:4;stroke-dasharray:none;stroke-opacity:1"
           d="M -1257.5656,328.51388 L -1257.5656,659.26597"
           id="path5581"
           sodipodi:nodetypes="cc" />
        <path
           sodipodi:nodetypes="cc"
           id="path5583"
           d="M -1246.3938,339.68565 L -1246.3938,670.43774"
           style="fill:#3e609e;fill-opacity:1;fill-rule:evenodd;stroke:#000000;stroke-width:4;stroke-linecap:round;stroke-linejoin:round;stroke-miterlimit:4;stroke-dasharray:none;stroke-opacity:1" />
      </g>
      <path
         sodipodi:type="arc"
         style="fill:#cf2c38;fill-opacity:1;stroke:#000000;stroke-width:6.90308428;stroke-linecap:round;stroke-linejoin:round;stroke-miterlimit:4;stroke-dasharray:none;stroke-opacity:1"
         id="path7464"
         sodipodi:cx="-54.602512"
         sodipodi:cy="1038.2845"
         sodipodi:rx="12.761506"
         sodipodi:ry="25.523012"
         d="M -41.841006 1038.2845 A 12.761506 25.523012 0 1 1  -67.364018,1038.2845 A 12.761506 25.523012 0 1 1  -41.841006 1038.2845 z"
         transform="matrix(1.1250219,0,0,0.9140053,521.4021,-149.32909)" />
      <path
         transform="matrix(1.1250219,0,0,0.9140053,574.1533,-148.95368)"
         d="M -41.841006 1038.2845 A 12.761506 25.523012 0 1 1  -67.364018,1038.2845 A 12.761506 25.523012 0 1 1  -41.841006 1038.2845 z"
         sodipodi:ry="25.523012"
         sodipodi:rx="12.761506"
         sodipodi:cy="1038.2845"
         sodipodi:cx="-54.602512"
         id="path7466"
         style="fill:#cf2c38;fill-opacity:1;stroke:#000000;stroke-width:6.90308428;stroke-linecap:round;stroke-linejoin:round;stroke-miterlimit:4;stroke-dasharray:none;stroke-opacity:1"
         sodipodi:type="arc" />
      <path
         style="fill:none;fill-opacity:1;stroke:#000000;stroke-width:6;stroke-linecap:round;stroke-linejoin:round;stroke-miterlimit:4;stroke-dasharray:none;stroke-opacity:1"
         d="M 514.5114,786.34133 C 520.4669,791.59709 520.069,808.6784 514.5114,813.37104"
         id="path4924"
         sodipodi:nodetypes="cc" />
      <path
         transform="matrix(1.2260894,0,0,0.9904298,552.639,-226.24006)"
         d="M -41.841006 1038.2845 A 12.761506 25.523012 0 1 1  -67.364018,1038.2845 A 12.761506 25.523012 0 1 1  -41.841006 1038.2845 z"
         sodipodi:ry="25.523012"
         sodipodi:rx="12.761506"
         sodipodi:cy="1038.2845"
         sodipodi:cx="-54.602512"
         id="path6491"
         style="fill:#cf2c38;fill-opacity:1;stroke:#000000;stroke-width:6.35221386;stroke-linecap:round;stroke-linejoin:round;stroke-miterlimit:4;stroke-dasharray:none;stroke-opacity:1"
         sodipodi:type="arc" />
      <path
         sodipodi:nodetypes="cc"
         id="path4928"
         d="M 460.1646,785.8307 C 461.7161,786.03976 463.2528,787.45245 463.6374,788.36477"
         style="fill:none;fill-opacity:1;stroke:#000000;stroke-width:6;stroke-linecap:round;stroke-linejoin:round;stroke-miterlimit:4;stroke-dasharray:none;stroke-opacity:1" />
      <path
         sodipodi:nodetypes="cc"
         id="path4932"
         d="M 486.8209,787.46295 C 493.3113,793.15818 492.8778,811.66774 486.8209,816.75276"
         style="fill:none;fill-opacity:1;stroke:#000000;stroke-width:6;stroke-linecap:round;stroke-linejoin:round;stroke-miterlimit:4;stroke-dasharray:none;stroke-opacity:1" />
      <path
         sodipodi:type="arc"
         style="fill:none;fill-opacity:1;fill-rule:nonzero;stroke:none;stroke-width:2;stroke-linecap:butt;stroke-linejoin:miter;stroke-miterlimit:4;stroke-dasharray:none;stroke-dashoffset:0;stroke-opacity:1"
         id="path2474"
         sodipodi:cx="3438.5"
         sodipodi:cy="1404.375"
         sodipodi:rx="9.5"
         sodipodi:ry="14.125"
         d="M 3448 1404.375 A 9.5 14.125 0 1 1  3429,1404.375 A 9.5 14.125 0 1 1  3448 1404.375 z"
         transform="matrix(1.3383969,1.7390253e-2,-1.4923958e-2,1.5595769,-4094.4466,-1628.1403)" />
      <path
         id="path4940"
         d="M 486.34871,564.76826 C 476.85135,581.21614 449.22952,595.16014 449.22952,629.81989 C 449.22952,647.2294 456.16044,662.31996 467.03882,662.31996 C 475.61318,662.31996 476.03619,666.36315 486.34871,666.36315 C 496.66129,666.36315 497.0843,662.31996 505.65866,662.31996 C 516.53705,662.31996 523.46789,647.2294 523.46789,629.81989 C 523.46789,595.16014 495.84613,581.21614 486.34871,564.76826 z "
         style="fill:#000000;fill-opacity:1;stroke:none;stroke-width:1;stroke-linecap:round;stroke-linejoin:round;stroke-miterlimit:4;stroke-dasharray:none;stroke-opacity:1" />
      <g
         transform="matrix(0.7061914,0,0,0.8240904,400.64172,186.33068)"
         id="g4942">
        <path
           sodipodi:type="arc"
           style="opacity:1;fill:#cf2c38;fill-opacity:1;stroke:#000000;stroke-width:8.49778461;stroke-linecap:round;stroke-linejoin:round;stroke-miterlimit:4;stroke-dasharray:none;stroke-opacity:1"
           id="path4944"
           sodipodi:cx="-217.45752"
           sodipodi:cy="903.2514"
           sodipodi:rx="17.159914"
           sodipodi:ry="29.290197"
           d="M -200.29761 903.2514 A 17.159914 29.290197 0 1 1  -234.61743,903.2514 A 17.159914 29.290197 0 1 1  -200.29761 903.2514 z"
           transform="matrix(1.1206897,0,0,1.040404,365.06756,-413.20505)" />
        <path
           style="opacity:1;fill:none;fill-opacity:1;stroke:#000000;stroke-width:5.24338055;stroke-linecap:round;stroke-linejoin:round;stroke-miterlimit:4;stroke-dasharray:none;stroke-opacity:1"
           d="M -221.59957,892.0087 C -213.57634,888.80355 -215.01008,917.25547 -220.71199,915.67755"
           id="path4946"
           transform="translate(340.89372,-376.11832)"
           sodipodi:nodetypes="cc" />
        <path
           style="opacity:1;fill:none;fill-opacity:1;stroke:#000000;stroke-width:5.24338055;stroke-linecap:round;stroke-linejoin:round;stroke-miterlimit:4;stroke-dasharray:none;stroke-opacity:1"
           d="M -224.85404,886.68321 C -224.37511,884.01043 -220.79336,881.46985 -217.17075,883.15142 C -212.53963,885.30113 -208.90455,892.41432 -208.90455,902.14916 C -208.90455,911.88401 -211.95147,924.43148 -219.52855,922.52413"
           id="path4948"
           transform="translate(340.89372,-376.11832)"
           sodipodi:nodetypes="cszc" />
      </g>
      <path
         id="path4950"
         d="M 486.34871,577.08379 C 479.55507,585.33097 457.57141,601.57626 457.57141,629.51655 C 457.57141,643.55089 462.94771,655.73292 471.37837,655.73292 C 473.97291,655.73292 475.85633,653.2182 475.85633,650.65962 C 475.85633,648.10103 474.0186,645.61206 471.37837,645.61206 C 468.00447,645.61206 465.25413,634.96021 465.25413,628.40917 C 465.25413,607.33141 480.63138,592.46836 486.34871,585.14443 C 492.06603,592.46836 507.44328,607.33141 507.44328,628.40917 C 507.44328,634.96021 504.69295,645.61206 501.31904,645.61206 C 498.67881,645.61206 496.84116,648.10103 496.84116,650.65962 C 496.84116,653.2182 498.7245,655.73292 501.31904,655.73292 C 509.7497,655.73292 515.126,643.55089 515.126,629.51655 C 515.126,601.57626 493.14241,585.33097 486.34871,577.08379 z M 486.34871,644.27292 C 482.13288,644.27292 478.7099,647.17033 478.7099,650.73687 C 478.7099,654.30341 482.13288,657.17506 486.34871,657.17508 C 490.56453,657.17508 493.98751,654.30341 493.98751,650.73687 C 493.98751,647.17033 490.56453,644.27294 486.34871,644.27292 z "
         style="fill:#fef137;fill-opacity:1;stroke:none;stroke-width:1;stroke-linecap:round;stroke-linejoin:round;stroke-miterlimit:4;stroke-dasharray:none;stroke-opacity:1" />
    </g>
    <use
       x="0"
       y="0"
       xlink:href="#g3419"
       id="use3584"
       transform="translate(-412.698,3.0000024e-7)"
       width="810"
       height="1500" />
    <use
       x="0"
       y="0"
       xlink:href="#g3419"
       id="use3726"
       transform="matrix(1,0,0,-1,0,481.86725)"
       width="810"
       height="1500" />
    <use
       x="0"
       y="0"
       xlink:href="#g3419"
       id="use3730"
       transform="matrix(1,0,0,-1,-412.698,481.86725)"
       width="810"
       height="1500" />
    <rect
       rx="42.40844"
       style="fill:none;fill-opacity:1;fill-rule:evenodd;stroke:#000000;stroke-width:4.00000048;stroke-linejoin:miter;stroke-miterlimit:4;stroke-dasharray:none;stroke-opacity:1"
       id="rect26883"
       width="672.00012"
       height="1356"
       x="-56.00029"
       y="-437.06638"
       ry="42.40844" />
    <path
       sodipodi:nodetypes="cccccc"
       d="M 568.6556,530.1408 L 488.5376,529.3344 L 488.4756,-303.2256 L 528.9216,-350.03406 L 570.1956,-301.25103 L 568.6556,530.1408 z "
       style="fill:none;fill-opacity:1;fill-rule:evenodd;stroke:none;stroke-width:1px;stroke-linecap:butt;stroke-linejoin:miter;stroke-opacity:1"
       id="path2472" />
    <path
       sodipodi:nodetypes="cccccc"
       d="M 568.6556,530.14081 L 488.5376,529.33441 L 488.4756,-303.22559 L 528.9216,-350.03405 L 570.1956,-301.25102 L 568.6556,530.14081 z "
       style="fill:none;fill-opacity:1;fill-rule:evenodd;stroke:none;stroke-width:1px;stroke-linecap:butt;stroke-linejoin:miter;stroke-opacity:1"
       id="path4156" />
    <use
       x="0"
       y="0"
       xlink:href="#g3419"
       id="use5496"
       transform="matrix(1,0,0,-1,-206.349,1196.86)"
       width="810"
       height="1500" />
    <use
       x="0"
       y="0"
       xlink:href="#g3419"
       id="use5494"
       transform="matrix(0,-1,1,0,-317.11589,724.6537)"
       width="810"
       height="1500" />
  </g>
</svg>
