<?xml version="1.0" encoding="UTF-8" standalone="no"?>
<!-- Created with Inkscape (http://www.inkscape.org/) -->
<svg
   xmlns:dc="http://purl.org/dc/elements/1.1/"
   xmlns:cc="http://web.resource.org/cc/"
   xmlns:rdf="http://www.w3.org/1999/02/22-rdf-syntax-ns#"
   xmlns:svg="http://www.w3.org/2000/svg"
   xmlns="http://www.w3.org/2000/svg"
   xmlns:xlink="http://www.w3.org/1999/xlink"
   xmlns:sodipodi="http://sodipodi.sourceforge.net/DTD/sodipodi-0.dtd"
   xmlns:inkscape="http://www.inkscape.org/namespaces/inkscape"
   id="svg2"
   sodipodi:version="0.32"
   inkscape:version="0.45.1"
   width="810"
   height="1500"
   version="1.0"
   sodipodi:docbase="C:\Documents and Settings\Flanker\Desktop\Temporanei\SVG\Piacentine SVG"
   sodipodi:docname="Piacentine-C7.svg"
   inkscape:output_extension="org.inkscape.output.svg.inkscape">
  <metadata
     id="metadata7">
    <rdf:RDF>
      <cc:Work
         rdf:about="">
        <dc:format>image/svg+xml</dc:format>
        <dc:type
           rdf:resource="http://purl.org/dc/dcmitype/StillImage" />
      </cc:Work>
    </rdf:RDF>
  </metadata>
  <defs
     id="defs5" />
  <sodipodi:namedview
     inkscape:window-height="1003"
     inkscape:window-width="1280"
     inkscape:pageshadow="2"
     inkscape:pageopacity="0.0"
     guidetolerance="10.0"
     gridtolerance="10.0"
     objecttolerance="10.0"
     borderopacity="1.0"
     bordercolor="#666666"
     pagecolor="#ffffff"
     id="base"
     inkscape:zoom="0.38042345"
     inkscape:cx="615.10175"
     inkscape:cy="734.21677"
     inkscape:window-x="0"
     inkscape:window-y="0"
     inkscape:current-layer="svg2"
     showguides="true"
     inkscape:guide-bbox="true" />
  <rect
     ry="46.911991"
     y="0"
     x="0"
     height="1500"
     width="810"
     id="rect4428"
     style="fill:white;fill-opacity:1;fill-rule:evenodd;stroke:none;stroke-width:3.99999762;stroke-linejoin:miter;stroke-miterlimit:4;stroke-dasharray:none;stroke-opacity:1" />
  <rect
     style="fill:none;fill-opacity:1;fill-rule:evenodd;stroke:black;stroke-width:4.00000048;stroke-linejoin:miter;stroke-miterlimit:4;stroke-dasharray:none;stroke-opacity:1"
     id="rect1873"
     width="672.00012"
     height="1356"
     x="68.999939"
     y="72"
     ry="42.40844" />
  <g
     id="g4067"
     transform="matrix(0.8974994,0,0,0.8974994,243.76501,521.75698)">
    <path
       id="path2861"
       d="M 376.37338,805.0674 L 376.37338,819.25165 C 366.85269,852.65928 334.48564,863.92477 318.75501,865.88067 C 312.14422,866.7026 315.72643,881.53236 328.69776,886.61998 L 328.69776,899.17924 L 470.89835,899.17924 L 470.89835,888.18988 C 489.20158,886.44092 495.16458,866.82941 487.53386,865.88067 C 471.80323,863.92477 439.40865,852.65929 429.88795,819.25165 L 429.88795,805.0674 L 414.24396,805.0674 L 414.24396,819.25165 C 417.80626,831.43506 424.4305,854.43329 436.77351,870.50776 L 429.44728,870.50776 C 428.11803,853.14685 414.75917,837.35569 411.54482,813.16482 L 403.14444,813.16482 L 394.74406,813.16482 C 391.5297,837.35569 378.17084,853.14685 376.8416,870.50776 L 369.48782,870.50776 C 381.83083,854.43329 388.45508,831.43506 392.01737,819.25165 L 392.01737,805.0674 L 376.37338,805.0674 z "
       style="fill:#3c6d3d;fill-opacity:1;stroke:#000000;stroke-width:7.8440299;stroke-linecap:round;stroke-linejoin:round;stroke-miterlimit:4;stroke-dasharray:none;stroke-opacity:1" />
    <path
       style="fill:#3c6d3d;fill-opacity:1;stroke:#000000;stroke-width:2.64405513;stroke-linecap:round;stroke-linejoin:round;stroke-miterlimit:4;stroke-dasharray:none;stroke-opacity:1"
       d="M 376.37218,805.07714 L 376.37218,819.26144 C 366.85149,852.66907 334.48444,863.93451 318.75381,865.89041 C 309.67314,867.01942 319.81346,894.58422 347.12232,887.01535 C 374.67589,879.37853 386.72189,837.36846 392.01617,819.26144 L 392.01617,805.07714 L 376.37218,805.07714 z M 414.24276,805.07714 L 414.24276,819.26144 C 419.53705,837.36846 431.58305,879.37853 459.13662,887.01535 C 486.44548,894.58422 496.61334,867.01942 487.53267,865.89041 C 471.80204,863.93451 439.40745,852.66907 429.88676,819.26144 L 429.88676,805.07714 L 414.24276,805.07714 z "
       id="path2863" />
    <path
       id="path2865"
       d="M 376.37218,805.07714 L 376.37218,819.26144 C 366.85149,852.66907 334.48444,863.93451 318.75381,865.89041 C 309.67314,867.01942 319.81346,894.58422 347.12232,887.01535 C 374.67589,879.37853 386.72189,837.36846 392.01617,819.26144 L 392.01617,805.07714 L 376.37218,805.07714 z M 414.24276,805.07714 L 414.24276,819.26144 C 419.53705,837.36846 431.58305,879.37853 459.13662,887.01535 C 486.44548,894.58422 496.61334,867.01942 487.53267,865.89041 C 471.80204,863.93451 439.40745,852.66907 429.88676,819.26144 L 429.88676,805.07714 L 414.24276,805.07714 z "
       style="fill:#3c6d3d;fill-opacity:1;stroke:#000000;stroke-width:3.52540684;stroke-linecap:round;stroke-linejoin:round;stroke-miterlimit:4;stroke-dasharray:none;stroke-opacity:1" />
    <path
       sodipodi:nodetypes="cc"
       id="path2867"
       d="M 328.11514,872.82883 C 335.94247,873.46585 350.48464,870.71694 355.04753,859.79702"
       style="fill:none;fill-opacity:1;stroke:#000000;stroke-width:2.64405513;stroke-linecap:round;stroke-linejoin:round;stroke-miterlimit:4;stroke-dasharray:none;stroke-opacity:1" />
    <path
       sodipodi:nodetypes="csc"
       id="path2869"
       d="M 317.15416,868.48739 C 321.84069,879.29536 337.57258,880.37859 344.66359,878.23271 C 363.77889,872.44804 378.13698,849.15023 387.19264,819.25364"
       style="fill:none;fill-opacity:1;stroke:#000000;stroke-width:2.64405513;stroke-linecap:round;stroke-linejoin:round;stroke-miterlimit:4;stroke-dasharray:none;stroke-opacity:1" />
    <path
       sodipodi:nodetypes="cc"
       id="path2871"
       d="M 355.04753,867.03691 C 368.4043,855.06936 376.97955,834.01335 384.87588,815.19931"
       style="fill:none;fill-opacity:1;stroke:#000000;stroke-width:2.64405513;stroke-linecap:round;stroke-linejoin:round;stroke-miterlimit:4;stroke-dasharray:none;stroke-opacity:1" />
    <path
       sodipodi:nodetypes="cc"
       id="path2873"
       d="M 326.08797,882.38549 C 361.35083,893.29879 378.8397,853.39058 390.37819,819.83283"
       style="fill:none;fill-opacity:1;stroke:#000000;stroke-width:3.52540684;stroke-linecap:round;stroke-linejoin:round;stroke-miterlimit:4;stroke-dasharray:none;stroke-opacity:1" />
    <path
       id="path2875"
       d="M 394.74087,813.16482 C 391.05179,840.92856 373.96932,857.62076 377.0863,878.32976 C 378.24826,886.04989 388.07778,891.08182 403.14126,891.08182 C 418.20474,891.08182 428.03423,886.04989 429.19622,878.32976 C 432.3132,857.62076 415.23073,840.92856 411.54164,813.16482 L 403.14126,813.16482 L 394.74087,813.16482 z "
       style="fill:none;fill-opacity:1;stroke:#000000;stroke-width:3.52540684;stroke-linecap:round;stroke-linejoin:round;stroke-miterlimit:4;stroke-dasharray:none;stroke-opacity:1" />
    <path
       sodipodi:nodetypes="cssc"
       id="path2877"
       d="M 378.52511,870.80166 C 378.52511,870.80166 378.52502,879.48953 402.56156,879.48953 C 428.60295,879.48953 430.27962,871.83495 426.01879,860.66582 C 419.84542,844.4832 411.24943,827.36231 407.19509,814.62011"
       style="fill:none;fill-opacity:1;stroke:#000000;stroke-width:2.64405513;stroke-linecap:round;stroke-linejoin:round;stroke-miterlimit:4;stroke-dasharray:none;stroke-opacity:1" />
    <path
       sodipodi:nodetypes="cssc"
       id="path2879"
       d="M 385.76501,869.64327 C 383.60806,876.04699 396.45635,875.1456 414.43498,875.1456 C 421.37779,875.1456 423.60109,865.89051 420.51648,858.34905 C 414.66792,844.05006 404.58872,817.51606 404.58872,817.51606"
       style="fill:none;fill-opacity:1;stroke:#000000;stroke-width:2.64405513;stroke-linecap:round;stroke-linejoin:round;stroke-miterlimit:4;stroke-dasharray:none;stroke-opacity:1" />
    <path
       sodipodi:nodetypes="cssc"
       id="path2881"
       d="M 387.79217,870.22247 C 394.58039,870.40521 401.59366,870.29691 410.67023,869.93288 C 415.99976,869.71912 416.81794,861.34283 414.72457,856.90107 C 408.89918,844.54063 402.85626,832.0227 402.27195,820.12243"
       style="fill:none;fill-opacity:1;stroke:#000000;stroke-width:2.64405513;stroke-linecap:round;stroke-linejoin:round;stroke-miterlimit:4;stroke-dasharray:none;stroke-opacity:1" />
    <path
       id="path2883"
       d="M 400.82398,823.30798 L 400.53439,837.78776"
       style="fill:none;fill-opacity:1;stroke:#000000;stroke-width:2.64405513;stroke-linecap:round;stroke-linejoin:round;stroke-miterlimit:4;stroke-dasharray:none;stroke-opacity:1" />
    <path
       sodipodi:nodetypes="csc"
       id="path2885"
       d="M 418.17937,823.01838 C 424.7024,843.66666 435.47851,869.94403 457.16256,875.4983 C 466.67364,877.93451 481.66143,877.96745 488.84071,869.64327"
       style="fill:none;fill-opacity:1;stroke:#000000;stroke-width:2.64405513;stroke-linecap:round;stroke-linejoin:round;stroke-miterlimit:4;stroke-dasharray:none;stroke-opacity:1" />
    <path
       sodipodi:nodetypes="cc"
       id="path2887"
       d="M 421.65452,818.67445 C 428.18142,839.81165 434.78391,863.25911 466.25224,871.09125"
       style="fill:none;fill-opacity:1;stroke:#000000;stroke-width:2.64405513;stroke-linecap:round;stroke-linejoin:round;stroke-miterlimit:4;stroke-dasharray:none;stroke-opacity:1" />
    <path
       sodipodi:nodetypes="cc"
       id="path2889"
       d="M 425.65314,818.7703 C 433.17092,851.11803 458.72275,867.03692 478.12566,869.93288"
       style="fill:none;fill-opacity:1;stroke:#000000;stroke-width:2.64405513;stroke-linecap:round;stroke-linejoin:round;stroke-miterlimit:4;stroke-dasharray:none;stroke-opacity:1" />
    <path
       sodipodi:nodetypes="cc"
       id="path2891"
       d="M 352.30365,885.77581 C 360.88743,887.00062 373.05689,887.88274 384.26456,887.97262"
       style="fill:none;fill-opacity:1;stroke:#000000;stroke-width:3.52540684;stroke-linecap:round;stroke-linejoin:round;stroke-miterlimit:4;stroke-dasharray:none;stroke-opacity:1" />
    <path
       sodipodi:nodetypes="cc"
       id="path2893"
       d="M 360.76916,880.66548 C 364.70882,881.51728 373.07274,882.04033 377.09193,881.89112"
       style="fill:none;fill-opacity:1;stroke:#000000;stroke-width:3.52540684;stroke-linecap:round;stroke-linejoin:round;stroke-miterlimit:4;stroke-dasharray:none;stroke-opacity:1" />
    <path
       id="path2897"
       d="M 403.14126,776.25821 C 396.71637,776.25821 390.20804,777.15886 384.27483,780.0315 C 383.18699,779.56399 382.01609,779.32044 380.83205,779.3154 C 368.87735,779.31541 359.48547,781.56484 352.29829,786.25605 C 345.1111,790.94725 340.78952,797.9747 338.55471,804.98477 C 337.54614,808.14837 337.16624,811.33288 338.417,815.3682 C 339.04238,817.38585 340.2457,819.70505 342.46571,821.5652 C 344.68572,823.42535 347.84256,824.45714 350.64575,824.45714 C 354.1203,824.45712 356.93836,822.83455 358.85334,821.51012 C 360.86348,822.95326 363.90331,824.73256 367.58423,824.73256 C 371.24188,824.73256 375.79483,822.6592 378.46342,819.55462 C 380.81381,820.76358 383.61797,821.4189 386.58838,821.34486 C 387.41133,822.39418 388.33266,823.34498 389.3426,824.15417 C 393.18426,827.23224 398.03154,828.69864 403.14126,828.69864 C 408.25099,828.69864 413.09826,827.23224 416.93993,824.15417 C 417.94987,823.34498 418.8712,822.39418 419.69415,821.34486 C 422.65518,821.41868 425.44533,820.75607 427.79157,819.55462 C 430.46015,822.6592 435.01311,824.73256 438.67075,824.73256 C 442.35168,824.73256 445.39151,822.95326 447.40164,821.51012 C 449.30978,822.8309 452.1419,824.45712 455.63677,824.45714 C 458.43997,824.45714 461.59681,823.42536 463.81682,821.5652 C 466.03683,819.70504 467.24015,817.38585 467.86553,815.3682 C 469.11629,811.33289 468.73638,808.14836 467.72782,804.98477 C 465.49104,797.96854 461.14927,790.94469 453.9567,786.25605 C 446.76413,781.56741 437.37764,779.31541 425.42294,779.3154 C 424.27045,779.31395 423.12885,779.53853 422.06278,779.97642 C 416.15131,777.12641 409.6349,776.25821 403.14126,776.25821 z "
       style="fill:#000000;fill-opacity:1;stroke:none;stroke-width:20;stroke-linecap:round;stroke-linejoin:round;stroke-miterlimit:4;stroke-dasharray:none;stroke-opacity:1" />
    <path
       id="path2899"
       d="M 400.55229,783.36411 C 390.41706,783.27413 379.54346,788.751 376.86597,799.53141 C 375.11935,806.56381 378.98838,815.01272 386.671,814.56947 C 389.38629,813.83128 390.84338,813.52404 391.73878,816.55251 C 397.58706,824.25593 412.62162,823.33876 415.94841,813.68812 C 423.43415,817.44166 431.088,809.49266 429.74707,801.48691 C 428.05204,791.36717 419.35236,784.18986 409.58615,783.66708 C 406.59102,783.32955 403.56381,783.21558 400.55229,783.36411 z M 378.82147,786.39376 C 366.12611,786.23012 352.07898,791.34054 346.48688,803.88308 C 344.36483,808.64263 343.86458,816.81021 350.64575,817.40632 C 354.80636,817.77207 357.65249,810.8343 360.86392,814.21142 C 364.90378,818.45971 373.70912,818.86985 374.35962,812.14575 C 374.32305,804.10339 374.84775,794.62798 381.96128,789.47849 C 383.82283,787.17622 380.79187,785.8365 378.82147,786.39376 z M 424.10091,786.9446 C 423.41847,790.61689 427.98279,792.61196 429.52673,796.08863 C 432.2704,802.26683 430.20401,809.12107 432.96951,815.06523 C 436.22926,819.55842 442.17719,816.64304 445.91436,813.90846 C 449.46961,811.30699 452.05683,818.68946 456.76601,817.29615 C 463.1944,815.39419 461.54103,807.36422 459.29989,802.75385 C 453.09676,789.99301 437.61104,785.44662 424.64038,786.7134 L 424.10091,786.9446 z "
       style="fill:#cf2c38;fill-opacity:1;stroke:#000000;stroke-width:2.64405513;stroke-linecap:round;stroke-linejoin:round;stroke-miterlimit:4;stroke-dasharray:none;stroke-opacity:1"
       sodipodi:nodetypes="cscccscccsssccccscssscc" />
    <path
       sodipodi:nodetypes="cc"
       id="path2901"
       d="M 377.93176,788.2669 C 373.86269,789.30122 359.68828,794.63883 357.66006,805.06345"
       style="fill:none;fill-opacity:1;stroke:#000000;stroke-width:2.64405513;stroke-linecap:round;stroke-linejoin:round;stroke-miterlimit:4;stroke-dasharray:none;stroke-opacity:1" />
    <path
       sodipodi:nodetypes="cc"
       id="path2903"
       d="M 391.25315,792.61084 C 386.99798,795.59789 384.69677,799.95272 384.30286,805.64265"
       style="fill:none;fill-opacity:1;stroke:#000000;stroke-width:2.64405513;stroke-linecap:round;stroke-linejoin:round;stroke-miterlimit:4;stroke-dasharray:none;stroke-opacity:1" />
    <path
       id="path2905"
       d="M 393.71471,804.77386 L 393.28032,806.51143"
       style="fill:none;fill-opacity:1;stroke:#000000;stroke-width:2.64405513;stroke-linecap:round;stroke-linejoin:round;stroke-miterlimit:4;stroke-dasharray:none;stroke-opacity:1" />
    <path
       sodipodi:nodetypes="cc"
       id="path2907"
       d="M 402.69218,794.49321 C 405.62827,800.09206 405.9025,807.71808 403.12657,814.33051"
       style="fill:none;fill-opacity:1;stroke:#000000;stroke-width:2.64405513;stroke-linecap:round;stroke-linejoin:round;stroke-miterlimit:4;stroke-dasharray:none;stroke-opacity:1" />
    <path
       sodipodi:nodetypes="cc"
       id="path2909"
       d="M 410.80085,805.06345 C 410.48319,808.93146 409.23601,812.97229 406.31212,815.4889"
       style="fill:none;fill-opacity:1;stroke:#000000;stroke-width:2.64405513;stroke-linecap:round;stroke-linejoin:round;stroke-miterlimit:4;stroke-dasharray:none;stroke-opacity:1" />
    <path
       sodipodi:nodetypes="cc"
       id="path2911"
       d="M 407.7601,788.55651 C 412.5905,791.65908 415.63976,797.34878 416.01358,802.74668"
       style="fill:none;fill-opacity:1;stroke:#000000;stroke-width:2.64405513;stroke-linecap:round;stroke-linejoin:round;stroke-miterlimit:4;stroke-dasharray:none;stroke-opacity:1" />
    <path
       sodipodi:nodetypes="cc"
       id="path2913"
       d="M 430.63816,789.42529 C 434.64735,793.57492 435.97861,798.79571 436.14047,804.48426"
       style="fill:none;fill-opacity:1;stroke:#000000;stroke-width:2.64405513;stroke-linecap:round;stroke-linejoin:round;stroke-miterlimit:4;stroke-dasharray:none;stroke-opacity:1" />
    <path
       sodipodi:nodetypes="cc"
       id="path2915"
       d="M 435.56128,792.03165 C 441.62252,796.83114 446.13252,802.77551 447.7243,807.09062"
       style="fill:none;fill-opacity:1;stroke:#000000;stroke-width:2.64405513;stroke-linecap:round;stroke-linejoin:round;stroke-miterlimit:4;stroke-dasharray:none;stroke-opacity:1" />
    <path
       sodipodi:nodetypes="cc"
       id="path2917"
       d="M 444.97314,797.24437 C 450.08083,800.28142 453.14507,804.55302 454.81939,810.27617"
       style="fill:none;fill-opacity:1;stroke:#000000;stroke-width:2.64405513;stroke-linecap:round;stroke-linejoin:round;stroke-miterlimit:4;stroke-dasharray:none;stroke-opacity:1" />
    <path
       style="fill:#fef137;fill-opacity:1;stroke:#000000;stroke-width:6.16946125;stroke-linecap:round;stroke-linejoin:round;stroke-miterlimit:4;stroke-opacity:1"
       d="M 316.27763,896.23947 L 490.00487,896.23947 L 490.00488,932.5204 L 403.14127,943.09662 L 316.27763,932.5204 L 316.27763,896.23947 z "
       id="path3009"
       sodipodi:nodetypes="cccccc" />
    <path
       d="M 484.66543,894.05205 L 484.66543,926.34759 M 480.01859,894.51673 L 480.01859,927.74164 M 473.74535,894.51673 L 473.74535,928.90335 M 467.70446,895.21376 L 467.70446,930.52974 M 460.03718,896.37547 L 460.03718,930.2974 M 452.13755,896.84015 L 452.13755,930.2974 M 446.56134,924.48885 L 446.56134,931.45911"
       style="fill:none;fill-opacity:1;stroke:#000000;stroke-width:3;stroke-linecap:round;stroke-linejoin:round;stroke-miterlimit:4;stroke-opacity:1"
       id="path3914" />
    <path
       id="path3015"
       d="M 315.97008,924.54645 C 310.71589,924.64377 306.39245,928.72549 305.99979,933.9659 C 305.60711,939.20631 309.27423,943.8832 314.45525,944.76245 C 339.41462,949.18204 370.19659,952.33994 403.14127,952.66708 C 436.08595,952.33994 466.86791,949.18204 491.82728,944.76245 C 497.00831,943.8832 500.67543,939.20631 500.28275,933.9659 C 499.89008,928.72549 495.56665,924.64377 490.31246,924.54645 C 489.63845,924.53483 488.96493,924.59019 488.30188,924.7117 C 464.59146,928.91014 434.83128,931.98289 403.14127,932.31336 C 371.45125,931.98289 341.69107,928.91014 317.98066,924.7117 C 317.3176,924.59019 316.64409,924.53483 315.97008,924.54645 z "
       style="fill:#fef137;fill-opacity:1;stroke:#000000;stroke-width:6.16946173;stroke-linecap:round;stroke-linejoin:round;stroke-miterlimit:4;stroke-dasharray:none;stroke-opacity:1" />
    <path
       sodipodi:nodetypes="csc"
       style="fill:#fef137;fill-opacity:1;stroke:#000000;stroke-width:8.81351662;stroke-linecap:round;stroke-linejoin:round;stroke-miterlimit:4;stroke-dasharray:none;stroke-opacity:1"
       d="M 307.97875,936.5805 C 315.20802,943.65188 370.19659,948.61274 403.14127,948.61274 C 436.08595,948.61274 492.06802,943.65188 498.61095,936.47084"
       id="path3017" />
    <path
       id="path3019"
       d="M 444.71111,936.61794 L 444.71111,939.28002"
       style="fill:#fef137;fill-opacity:1;stroke:#000000;stroke-width:2.64405513;stroke-linecap:round;stroke-linejoin:round;stroke-miterlimit:4;stroke-dasharray:none;stroke-opacity:1" />
    <path
       style="fill:#fef137;fill-opacity:1;stroke:#000000;stroke-width:2.64405513;stroke-linecap:round;stroke-linejoin:round;stroke-miterlimit:4;stroke-dasharray:none;stroke-opacity:1"
       d="M 450.64959,936.00362 L 450.64959,938.66569"
       id="path3021" />
    <path
       id="path3023"
       d="M 455.87135,935.49167 L 455.87135,938.15375"
       style="fill:#fef137;fill-opacity:1;stroke:#000000;stroke-width:2.64405513;stroke-linecap:round;stroke-linejoin:round;stroke-miterlimit:4;stroke-dasharray:none;stroke-opacity:1" />
    <path
       style="fill:#fef137;fill-opacity:1;stroke:#000000;stroke-width:2.64405513;stroke-linecap:round;stroke-linejoin:round;stroke-miterlimit:4;stroke-dasharray:none;stroke-opacity:1"
       d="M 461.40027,934.87735 L 461.40027,937.53942"
       id="path3025" />
    <path
       id="path3027"
       d="M 467.13398,934.26302 L 467.13398,936.9251"
       style="fill:#fef137;fill-opacity:1;stroke:#000000;stroke-width:2.64405513;stroke-linecap:round;stroke-linejoin:round;stroke-miterlimit:4;stroke-dasharray:none;stroke-opacity:1" />
    <path
       style="fill:#fef137;fill-opacity:1;stroke:#000000;stroke-width:2.64405513;stroke-linecap:round;stroke-linejoin:round;stroke-miterlimit:4;stroke-dasharray:none;stroke-opacity:1"
       d="M 472.97007,933.44391 L 472.97007,936.10599"
       id="path3029" />
    <path
       sodipodi:nodetypes="cc"
       id="path3031"
       d="M 478.49899,932.52243 L 478.70376,935.18451"
       style="fill:#fef137;fill-opacity:1;stroke:#000000;stroke-width:2.64405513;stroke-linecap:round;stroke-linejoin:round;stroke-miterlimit:4;stroke-dasharray:none;stroke-opacity:1" />
    <path
       sodipodi:nodetypes="cc"
       style="fill:#fef137;fill-opacity:1;stroke:#000000;stroke-width:2.64405513;stroke-linecap:round;stroke-linejoin:round;stroke-miterlimit:4;stroke-dasharray:none;stroke-opacity:1"
       d="M 482.4921,931.80571 L 482.90165,934.3654"
       id="path3033" />
    <path
       sodipodi:nodetypes="cc"
       id="path3035"
       d="M 486.38283,931.19138 L 486.99716,933.85346"
       style="fill:#fef137;fill-opacity:1;stroke:#000000;stroke-width:2.64405513;stroke-linecap:round;stroke-linejoin:round;stroke-miterlimit:4;stroke-dasharray:none;stroke-opacity:1" />
    <path
       sodipodi:nodetypes="cc"
       style="fill:#fef137;fill-opacity:1;stroke:#000000;stroke-width:2.64405513;stroke-linecap:round;stroke-linejoin:round;stroke-miterlimit:4;stroke-dasharray:none;stroke-opacity:1"
       d="M 490.47833,930.47467 L 491.39982,933.13675"
       id="path3037" />
    <path
       id="path3039"
       d="M 321.39907,907.85344 L 321.39907,918.29195 C 323.01576,918.54256 324.69923,918.76873 326.35667,919.00805 L 326.35667,908.56954 C 324.69923,908.33022 323.01576,908.10405 321.39907,907.85344 z M 484.88981,907.85344 C 483.27278,908.10419 481.58982,908.33012 479.93221,908.56954 L 479.93221,919.00805 C 481.58982,918.76863 483.27278,918.5427 484.88981,918.29195 L 484.88981,907.85344 z M 331.67232,909.34072 L 331.67232,919.77923 C 335.21395,920.25132 338.85319,920.68688 342.55151,921.10126 L 342.55151,910.66275 C 338.85319,910.24837 335.21395,909.81281 331.67232,909.34072 z M 474.61655,909.34072 C 471.07489,909.81295 467.43529,910.24834 463.73737,910.66275 L 463.73737,921.10126 C 467.43529,920.68684 471.07489,920.25146 474.61655,919.77923 L 474.61655,909.34072 z M 348.69343,911.32376 L 348.69343,921.76227 C 353.76363,922.27211 358.95283,922.72724 364.2548,923.11184 L 364.2548,912.67333 C 358.95283,912.28874 353.76363,911.8336 348.69343,911.32376 z M 457.59545,911.32376 C 452.52596,911.83357 447.33539,912.28885 442.03408,912.67333 L 442.03408,923.11184 C 447.33539,922.72736 452.52596,922.27208 457.59545,921.76227 L 457.59545,911.32376 z M 370.80985,913.11401 L 370.80985,923.55252 C 375.97495,923.86769 381.23612,924.11739 386.56401,924.29616 L 386.56401,913.85765 C 381.23612,913.67888 375.97495,913.42918 370.80985,913.11401 z M 435.47903,913.11401 C 430.31436,913.42905 425.05318,913.67898 419.72487,913.85765 L 419.72487,924.29616 C 425.05318,924.11749 430.31436,923.86756 435.47903,923.55252 L 435.47903,913.11401 z M 393.11906,914.0229 L 393.11906,924.46141 C 396.4407,924.53477 399.77697,924.58446 403.14444,924.59912 C 406.51307,924.58445 409.8476,924.53473 413.16981,924.46141 L 413.16981,914.0229 C 409.8476,914.09622 406.51307,914.14594 403.14444,914.16061 C 399.77697,914.14594 396.4407,914.09626 393.11906,914.0229 z "
       style="fill:none;fill-opacity:1;stroke:#000000;stroke-width:2.64405513;stroke-linecap:round;stroke-linejoin:round;stroke-miterlimit:4;stroke-dasharray:none;stroke-opacity:1" />
    <path
       sodipodi:nodetypes="cccccccccccccccccccccccccccc"
       style="fill:none;fill-opacity:1;stroke:#000000;stroke-width:2.64405513;stroke-linecap:round;stroke-linejoin:round;stroke-miterlimit:4;stroke-dasharray:none;stroke-opacity:1"
       d="M 480.4733,917.13957 C 481.31185,917.02065 482.14534,916.90035 482.96201,916.77371 L 482.96201,908.17817 M 464.80344,919.24103 C 467.47368,918.92983 470.10724,918.60519 472.68876,918.26099 L 472.68876,910.27977 M 443.41124,921.34374 C 447.5691,921.01668 451.65628,920.64743 455.66765,920.24403 L 455.66765,912.26281 M 420.68104,922.67403 C 425.0251,922.50672 429.32054,922.29235 433.55123,922.03427 L 433.55123,913.64351 M 393.7539,922.99481 C 396.22878,923.03975 398.7141,923.06998 401.21664,923.08088 C 404.58527,923.0662 407.91981,923.01649 411.24202,922.94317 L 411.24202,914.96195 M 371.94039,922.21259 C 376.11913,922.44492 380.35614,922.63431 384.63621,922.77791 L 384.63621,914.38715 M 349.10598,920.47461 C 353.42962,920.89176 357.83789,921.26796 362.327,921.5936 L 362.327,912.79329 M 332.3181,918.59571 C 335.04133,918.9415 337.81549,919.26837 340.62371,919.58301 L 340.62371,910.78271 M 321.7642,917.11176 C 322.65041,917.23784 323.54336,917.36195 324.42887,917.4898 L 324.42887,908.6895"
       id="path3041" />
    <path
       style="fill:none;fill-opacity:1;stroke:#000000;stroke-width:3.52540684;stroke-linecap:round;stroke-linejoin:round;stroke-miterlimit:4;stroke-dasharray:none;stroke-opacity:1"
       d="M 454.5024,885.77581 C 445.91861,887.00062 433.74916,887.88274 422.54148,887.97262"
       id="path3043"
       sodipodi:nodetypes="cc" />
    <path
       style="fill:none;fill-opacity:1;stroke:#000000;stroke-width:3.52540684;stroke-linecap:round;stroke-linejoin:round;stroke-miterlimit:4;stroke-dasharray:none;stroke-opacity:1"
       d="M 446.03688,880.66548 C 442.09722,881.51728 433.73331,882.04033 429.71412,881.89112"
       id="path3045"
       sodipodi:nodetypes="cc" />
    <path
       sodipodi:nodetypes="cc"
       id="path3047"
       d="M 422.81297,839.34981 C 441.24013,889.10437 473.17226,887.00953 487.31711,878.05228"
       style="fill:none;fill-opacity:1;stroke:#000000;stroke-width:3.52540684;stroke-linecap:round;stroke-linejoin:round;stroke-miterlimit:4;stroke-dasharray:none;stroke-opacity:1" />
    <path
       sodipodi:nodetypes="cc"
       id="path3049"
       d="M 377.14814,876.61886 C 384.18639,888.25952 419.59723,889.41374 428.95622,876.61886"
       style="fill:none;fill-opacity:1;stroke:#000000;stroke-width:3.52540684;stroke-linecap:round;stroke-linejoin:round;stroke-miterlimit:4;stroke-dasharray:none;stroke-opacity:1" />
    <path
       style="fill:none;fill-opacity:1;stroke:#000000;stroke-width:3.52540684;stroke-linecap:round;stroke-linejoin:round;stroke-miterlimit:4;stroke-dasharray:none;stroke-opacity:1"
       d="M 364.45511,876.3652 C 368.39477,877.217 371.84409,877.33051 375.86328,877.1813"
       id="path3051"
       sodipodi:nodetypes="cc" />
    <path
       sodipodi:nodetypes="cc"
       id="path3053"
       d="M 441.12228,876.56997 C 438.00172,877.217 434.55241,877.53528 430.53322,877.38607"
       style="fill:none;fill-opacity:1;stroke:#000000;stroke-width:3.52540684;stroke-linecap:round;stroke-linejoin:round;stroke-miterlimit:4;stroke-dasharray:none;stroke-opacity:1" />
    <path
       id="path2919"
       d="M 325.07246,674.80027 C 306.77997,678.06922 286.03111,694.59497 286.03111,718.84336 C 286.03111,748.89755 300.04882,767.2633 324.7668,780.03129 C 347.3584,791.70089 376.23618,795.23102 403.12736,795.23102 C 430.01854,795.23102 458.89634,791.70089 481.48793,780.03129 C 506.20591,767.2633 520.25141,748.89755 520.2514,718.84336 C 520.2514,694.59497 499.50254,678.06922 481.21005,674.80027 L 403.12736,674.80027 L 325.07246,674.80027 z "
       style="fill:#fef137;fill-opacity:1;stroke:#000000;stroke-width:6.22438526;stroke-linecap:round;stroke-linejoin:round;stroke-miterlimit:4;stroke-dasharray:none;stroke-opacity:1" />
    <path
       sodipodi:nodetypes="cccccc"
       id="path2921"
       d="M 308.53379,632.6517 L 497.74872,632.6517 L 497.74874,673.8168 L 403.14127,685.8168 L 308.53379,673.8168 L 308.53379,632.6517 z "
       style="fill:#fef137;fill-opacity:1;stroke:#000000;stroke-width:7;stroke-linecap:round;stroke-linejoin:round;stroke-miterlimit:4;stroke-opacity:1" />
    <path
       sodipodi:type="arc"
       style="fill:#cf2c38;fill-opacity:1;stroke:#000000;stroke-width:4.86534691;stroke-linecap:round;stroke-linejoin:round;stroke-miterlimit:4;stroke-dasharray:none;stroke-opacity:1"
       id="path2925"
       sodipodi:cx="-351.68216"
       sodipodi:cy="578.19647"
       sodipodi:rx="103.02802"
       sodipodi:ry="34.507778"
       d="M -248.65414 578.19647 A 103.02802 34.507778 0 1 1  -454.71018,578.19647 A 103.02802 34.507778 0 1 1  -248.65414 578.19647 z"
       transform="matrix(1.2724358,0,0,1.6267943,850.63422,-342.29771)" />
    <path
       d="M 300.81105,596.53099 C 313.38086,584.04642 349.15618,574.82475 392.08388,573.94218 M 301.58096,602.25109 C 314.90106,590.23417 349.91267,581.43285 391.74264,580.55021 M 304.90675,606.24369 C 321.13298,596.12877 353.58979,589.05104 391.41678,588.44472 M 309.46554,610.7345 C 327.56676,602.22235 358.05254,596.55967 392.73796,596.33465 M 317.78567,615.50101 C 336.55231,609.18797 363.19798,605.24357 392.73939,605.24357 M 328.98042,619.66235 C 346.04273,615.68513 367.12458,613.33391 389.93254,613.33391 M 344.36327,623.90524 C 357.20745,621.51877 371.83187,619.98871 387.45004,619.56377 M 364.83831,628.08521 C 372.44401,627.40824 380.40596,627.0011 388.61412,626.89857"
       style="fill:none;fill-opacity:1;stroke:#000000;stroke-width:3.09249902;stroke-linecap:round;stroke-linejoin:round;stroke-miterlimit:4;stroke-opacity:1"
       id="path2927" />
    <path
       transform="matrix(0.9983974,0,0,0.9425837,754.25982,52.815088)"
       d="M -248.65414 578.19647 A 103.02802 34.507778 0 1 1  -454.71018,578.19647 A 103.02802 34.507778 0 1 1  -248.65414 578.19647 z"
       sodipodi:ry="34.507778"
       sodipodi:rx="103.02802"
       sodipodi:cy="578.19647"
       sodipodi:cx="-351.68216"
       id="path2929"
       style="fill:none;fill-opacity:1;stroke:#000000;stroke-width:7.21583128;stroke-linecap:round;stroke-linejoin:round;stroke-miterlimit:4;stroke-dasharray:none;stroke-opacity:1"
       sodipodi:type="arc" />
    <path
       sodipodi:nodetypes="csz"
       id="path2931"
       d="M 533.41226,593.68596 C 533.41226,624.67363 475.50655,649.82302 403.14126,649.82302 C 330.77596,649.82302 272.87026,624.67363 272.87026,593.68596"
       style="fill:none;fill-opacity:1;stroke:#000000;stroke-width:7.00000048;stroke-linecap:round;stroke-linejoin:round;stroke-miterlimit:4;stroke-opacity:1" />
    <path
       id="path2933"
       d="M 316.80112,651.06308 L 316.80112,662.84433 C 318.23669,663.26369 319.70637,663.66421 321.17612,664.06308 L 321.17612,652.43808 C 319.70098,651.98745 318.23378,651.53696 316.80112,651.06308 z M 489.48862,651.06308 C 488.05596,651.53696 486.58876,651.98745 485.11362,652.43808 L 485.11362,664.06308 C 486.58338,663.6642 488.05303,663.26371 489.48862,662.84433 L 489.48862,651.06308 z M 326.11362,653.90683 L 326.11362,665.37558 C 329.23426,666.15363 332.42157,666.87855 335.67612,667.56308 L 335.67612,656.34433 C 332.40529,655.58097 329.22301,654.77467 326.11362,653.90683 z M 480.17612,653.90683 C 477.06673,654.77467 473.88445,655.58097 470.61362,656.34433 L 470.61362,667.56308 C 473.86815,666.87854 477.05548,666.15365 480.17612,665.37558 L 480.17612,653.90683 z M 340.61362,657.43808 L 340.61362,668.56308 C 344.57318,669.32233 348.61108,669.9782 352.73862,670.59433 L 352.73862,659.68808 C 348.60905,659.0109 344.54782,658.27195 340.61362,657.43808 z M 465.67612,657.43808 C 461.74192,658.27195 457.68069,659.0109 453.55112,659.68808 L 453.55112,670.59433 C 457.67862,669.9782 461.71659,669.32234 465.67612,668.56308 L 465.67612,657.43808 z M 357.61362,660.46933 L 357.61362,671.31308 C 364.14616,672.18365 370.86664,672.85203 377.73862,673.34433 L 377.73862,662.68808 C 370.84652,662.15052 364.11942,661.41919 357.61362,660.46933 z M 448.67612,660.46933 C 442.17032,661.41919 435.44322,662.15052 428.55112,662.68808 L 428.55112,673.34433 C 435.42309,672.85205 442.14365,672.18363 448.67612,671.31308 L 448.67612,660.46933 z M 383.98862,663.12558 L 383.98862,673.71933 C 390.26459,674.05538 396.65872,674.25058 403.14487,674.25058 C 409.63118,674.25058 416.02512,674.05537 422.30112,673.71933 L 422.30112,663.12558 C 416.03807,663.49018 409.64115,663.68808 403.14487,663.68808 C 396.64859,663.68808 390.25167,663.49018 383.98862,663.12558 z "
       style="fill:none;fill-opacity:1;stroke:#000000;stroke-width:3;stroke-linecap:round;stroke-linejoin:round;stroke-miterlimit:4;stroke-dasharray:none;stroke-opacity:1" />
    <path
       sodipodi:nodetypes="cccccccccccccccccccccccccscc"
       style="fill:none;fill-opacity:1;stroke:#000000;stroke-width:4;stroke-linecap:round;stroke-linejoin:round;stroke-miterlimit:4;stroke-dasharray:none;stroke-opacity:1"
       d="M 485.60445,661.79794 C 486.52172,661.54591 487.43397,661.29072 488.33286,661.02813 L 488.33286,652.26204 M 472.00375,665.19993 C 474.37906,664.67859 476.71786,664.13346 479.02036,663.55938 L 479.02036,654.94728 M 454.79476,668.41347 C 458.09137,667.90284 461.33131,667.3584 464.52036,666.74688 L 464.52036,658.27465 M 430.37914,671.30247 C 436.21504,670.83748 441.93642,670.24102 447.52036,669.49688 L 447.52036,661.54364 M 317.35222,661.54074 C 318.27472,661.79916 319.08915,661.99416 320.02036,662.24688 L 320.02036,652.96012 M 326.83758,664.01977 C 329.35566,664.62568 331.91649,665.19921 334.52036,665.74688 L 334.52036,657.10715 M 342.11755,667.23991 C 345.22206,667.79656 348.37539,668.29934 351.58286,668.77813 L 351.58286,661.01826 M 359.23235,669.85316 C 364.88867,670.55244 370.67987,671.10525 376.58286,671.52813 L 376.58286,663.87863 M 385.32233,672.02863 C 390.79718,672.28728 396.35847,672.43438 401.98911,672.43438 C 408.47542,672.43438 414.86936,672.23917 421.14536,671.90313 L 421.14536,664.22888"
       id="path2935" />
    <path
       sodipodi:nodetypes="cc"
       id="path2937"
       d="M 314.41892,687.27146 C 310.21111,689.76996 305.64578,695.30792 303.6223,699.10621"
       style="fill:none;fill-opacity:1;stroke:#000000;stroke-width:2.66759372;stroke-linecap:round;stroke-linejoin:round;stroke-miterlimit:4;stroke-dasharray:none;stroke-opacity:1" />
    <path
       sodipodi:nodetypes="cc"
       id="path2939"
       d="M 316.49519,691.21638 C 314.98206,692.69592 313.61288,694.61877 312.7579,696.61468"
       style="fill:none;fill-opacity:1;stroke:#000000;stroke-width:2.66759372;stroke-linecap:round;stroke-linejoin:round;stroke-miterlimit:4;stroke-dasharray:none;stroke-opacity:1" />
    <path
       sodipodi:nodetypes="cc"
       id="path2941"
       d="M 472.20548,695.99647 C 476.97954,699.83114 480.84028,704.39649 483.65702,709.79703"
       style="fill:none;fill-opacity:1;stroke:#000000;stroke-width:2.66759372;stroke-linecap:round;stroke-linejoin:round;stroke-miterlimit:4;stroke-dasharray:none;stroke-opacity:1" />
    <path
       sodipodi:nodetypes="cc"
       id="path2943"
       d="M 477.34399,692.91336 C 483.06755,697.2455 489.09069,703.77687 492.02545,710.67792"
       style="fill:none;fill-opacity:1;stroke:#000000;stroke-width:2.66759372;stroke-linecap:round;stroke-linejoin:round;stroke-miterlimit:4;stroke-dasharray:none;stroke-opacity:1" />
    <path
       sodipodi:nodetypes="cc"
       id="path2945"
       d="M 483.65702,690.85795 C 490.35646,695.53723 496.55576,702.48625 498.77891,710.23748"
       style="fill:none;fill-opacity:1;stroke:#000000;stroke-width:2.66759372;stroke-linecap:round;stroke-linejoin:round;stroke-miterlimit:4;stroke-dasharray:none;stroke-opacity:1" />
    <path
       sodipodi:nodetypes="cc"
       id="path2947"
       d="M 488.06146,686.60033 C 495.25663,692.04836 502.70902,699.75968 504.94513,708.03525"
       style="fill:none;fill-opacity:1;stroke:#000000;stroke-width:2.66759372;stroke-linecap:round;stroke-linejoin:round;stroke-miterlimit:4;stroke-dasharray:none;stroke-opacity:1" />
    <path
       sodipodi:nodetypes="cc"
       id="path2949"
       d="M 492.31908,683.81085 C 499.33986,688.08044 506.72168,695.22898 510.08364,702.89675"
       style="fill:none;fill-opacity:1;stroke:#000000;stroke-width:2.66759372;stroke-linecap:round;stroke-linejoin:round;stroke-miterlimit:4;stroke-dasharray:none;stroke-opacity:1" />
    <path
       sodipodi:nodetypes="ccssscscscscscscscscscscsc"
       id="path2951"
       d="M 291.74465,712.03544 C 276.85569,712.25084 284.60489,799.25666 402.89438,795.23102 C 403.06385,795.23714 403.22555,795.22526 403.39456,795.23102 C 521.68398,799.25666 529.40547,712.25084 514.51651,712.03544 C 514.03553,712.02847 513.54118,712.10532 513.01599,712.28552 C 509.61643,713.45195 508.07162,716.59421 507.0139,720.9552 C 505.75369,717.47985 503.35266,715.76527 500.20598,716.70372 C 495.65698,718.06039 494.05831,722.69959 492.73116,729.09692 C 491.88371,722.99265 488.47683,719.51764 483.06113,720.9552 C 477.3505,722.47107 475.73425,727.74784 473.91907,734.96007 C 473.34096,728.14061 469.49527,723.59501 462.83188,723.59501 C 454.4493,723.59501 450.84153,728.12556 448.21569,735.09901 C 446.72536,728.7008 442.66301,724.48421 436.10037,724.48421 C 426.64298,724.48421 422.20421,730.57763 419.45569,739.48942 C 417.29948,730.65889 412.07147,724.62314 403.39456,724.62314 C 394.43758,724.62314 389.13149,731.05004 387.11112,740.35083 C 384.38445,730.96542 379.95156,724.48421 370.18858,724.48421 C 363.63399,724.48421 359.54031,728.68625 358.04547,735.07122 C 355.42077,728.11756 351.82567,723.59501 343.45706,723.59501 C 336.79367,723.59501 332.94798,728.14061 332.36988,734.96007 C 330.55469,727.74784 328.93844,722.47107 323.22781,720.9552 C 317.78811,719.51126 314.38616,723.02542 313.55778,729.18028 C 312.22694,722.73782 310.65261,718.06654 306.08296,716.70372 C 302.93644,715.76533 300.53531,717.48021 299.27504,720.9552 C 298.21732,716.59421 296.67251,713.45195 293.27296,712.28552 C 292.74776,712.10532 292.22562,712.02847 291.74465,712.03544 z "
       style="fill:none;fill-opacity:1;stroke:#000000;stroke-width:6.22438526;stroke-linecap:round;stroke-linejoin:round;stroke-miterlimit:4;stroke-dasharray:none;stroke-opacity:1" />
    <path
       style="fill:#3c6d3d;fill-opacity:1;stroke:#000000;stroke-width:3.55679178;stroke-linecap:round;stroke-linejoin:round;stroke-miterlimit:4;stroke-dasharray:none;stroke-opacity:1"
       d="M 293.26345,712.29858 C 276.45715,706.5321 280.77421,799.66177 403.38071,795.231 C 275.26139,783.29408 311.91758,718.69907 293.26345,712.29858 z "
       id="path2955"
       sodipodi:nodetypes="ccs" />
    <path
       sodipodi:nodetypes="ccs"
       id="path2957"
       d="M 306.08287,716.70302 C 287.73204,711.23017 294.98367,795.84459 403.38071,795.231 C 292.71432,784.61541 325.00554,722.3464 306.08287,716.70302 z "
       style="fill:#3c6d3d;fill-opacity:1;stroke:#000000;stroke-width:3.55679178;stroke-linecap:round;stroke-linejoin:round;stroke-miterlimit:4;stroke-dasharray:none;stroke-opacity:1" />
    <path
       style="fill:#3c6d3d;fill-opacity:1;stroke:#000000;stroke-width:3.55679178;stroke-linecap:round;stroke-linejoin:round;stroke-miterlimit:4;stroke-dasharray:none;stroke-opacity:1"
       d="M 323.2269,720.96064 C 300.39701,714.90054 313.20886,795.84459 403.38071,795.231 C 315.72747,772.87024 342.32826,726.03102 323.2269,720.96064 z "
       id="path2959"
       sodipodi:nodetypes="ccs" />
    <path
       sodipodi:nodetypes="ccs"
       id="path2961"
       d="M 343.45994,723.6033 C 319.35407,723.6033 332.05184,782.92491 403.38071,795.231 C 347.69876,770.66803 370.50038,723.6033 343.45994,723.6033 z "
       style="fill:#3c6d3d;fill-opacity:1;stroke:#000000;stroke-width:3.55679178;stroke-linecap:round;stroke-linejoin:round;stroke-miterlimit:4;stroke-dasharray:none;stroke-opacity:1" />
    <path
       style="fill:#3c6d3d;fill-opacity:1;stroke:#000000;stroke-width:3.55679178;stroke-linecap:round;stroke-linejoin:round;stroke-miterlimit:4;stroke-dasharray:none;stroke-opacity:1"
       d="M 370.17991,724.48419 C 346.07404,724.48419 355.52835,781.16313 403.38071,795.231 C 384.30358,770.81484 396.29364,724.48419 370.17991,724.48419 z "
       id="path2963"
       sodipodi:nodetypes="ccs" />
    <path
       sodipodi:nodetypes="ccs"
       id="path2967"
       d="M 513.01907,712.29858 C 529.82537,706.5321 525.50832,799.66177 402.90182,795.231 C 531.02114,783.29408 494.36494,718.69907 513.01907,712.29858 z "
       style="fill:#3c6d3d;fill-opacity:1;stroke:#000000;stroke-width:3.55679178;stroke-linecap:round;stroke-linejoin:round;stroke-miterlimit:4;stroke-dasharray:none;stroke-opacity:1" />
    <path
       style="fill:#3c6d3d;fill-opacity:1;stroke:#000000;stroke-width:3.55679178;stroke-linecap:round;stroke-linejoin:round;stroke-miterlimit:4;stroke-dasharray:none;stroke-opacity:1"
       d="M 500.19966,716.70302 C 518.55048,711.23017 511.29886,795.84459 402.90182,795.231 C 513.56821,784.61541 481.27698,722.3464 500.19966,716.70302 z "
       id="path2969"
       sodipodi:nodetypes="ccs" />
    <path
       sodipodi:nodetypes="ccs"
       id="path2971"
       d="M 483.05562,720.96064 C 505.88551,714.90054 493.07367,795.84459 402.90182,795.231 C 490.55505,772.87024 463.95426,726.03102 483.05562,720.96064 z "
       style="fill:#3c6d3d;fill-opacity:1;stroke:#000000;stroke-width:3.55679178;stroke-linecap:round;stroke-linejoin:round;stroke-miterlimit:4;stroke-dasharray:none;stroke-opacity:1" />
    <path
       style="fill:#3c6d3d;fill-opacity:1;stroke:#000000;stroke-width:3.55679178;stroke-linecap:round;stroke-linejoin:round;stroke-miterlimit:4;stroke-dasharray:none;stroke-opacity:1"
       d="M 462.82259,723.6033 C 486.92846,723.6033 474.23068,782.92491 402.90182,795.231 C 458.58376,770.66803 435.78215,723.6033 462.82259,723.6033 z "
       id="path2973"
       sodipodi:nodetypes="ccs" />
    <path
       sodipodi:nodetypes="ccs"
       id="path2975"
       d="M 436.10261,724.48419 C 460.20848,724.48419 450.75417,781.16313 402.90182,795.231 C 421.97895,770.81484 409.98888,724.48419 436.10261,724.48419 z "
       style="fill:#3c6d3d;fill-opacity:1;stroke:#000000;stroke-width:3.55679178;stroke-linecap:round;stroke-linejoin:round;stroke-miterlimit:4;stroke-dasharray:none;stroke-opacity:1" />
    <path
       sodipodi:nodetypes="ccs"
       id="path2977"
       d="M 403.3807,724.63102 C 379.27484,724.63102 381.57465,771.0833 403.3807,795.23102 C 425.18676,771.0833 427.48657,724.63102 403.3807,724.63102 z "
       style="fill:#3c6d3d;fill-opacity:1;stroke:#000000;stroke-width:3.55679178;stroke-linecap:round;stroke-linejoin:round;stroke-miterlimit:4;stroke-dasharray:none;stroke-opacity:1" />
    <path
       sodipodi:nodetypes="cc"
       id="path2979"
       d="M 406.66686,738.24818 C 410.04559,743.20654 409.19832,759.52777 409.14604,765.51912"
       style="fill:none;fill-opacity:1;stroke:#000000;stroke-width:2.66759372;stroke-linecap:round;stroke-linejoin:round;stroke-miterlimit:4;stroke-dasharray:none;stroke-opacity:1" />
    <path
       sodipodi:nodetypes="cc"
       id="path2981"
       d="M 411.62521,733.70302 C 417.47162,747.21323 414.73929,772.56235 405.84046,785.55913"
       style="fill:none;fill-opacity:1;stroke:#000000;stroke-width:2.66759372;stroke-linecap:round;stroke-linejoin:round;stroke-miterlimit:4;stroke-dasharray:none;stroke-opacity:1" />
    <path
       sodipodi:nodetypes="cc"
       id="path2983"
       d="M 364.55329,753.37895 C 368.89987,765.1633 376.1907,775.77894 389.68023,786.97893"
       style="fill:none;fill-opacity:1;stroke:#000000;stroke-width:2.66759372;stroke-linecap:round;stroke-linejoin:round;stroke-miterlimit:4;stroke-dasharray:none;stroke-opacity:1" />
    <path
       sodipodi:nodetypes="cc"
       id="path2985"
       d="M 344.68548,754.54765 C 347.36993,763.00514 358.51644,774.2533 370.39677,781.42763"
       style="fill:none;fill-opacity:1;stroke:#000000;stroke-width:2.66759372;stroke-linecap:round;stroke-linejoin:round;stroke-miterlimit:4;stroke-dasharray:none;stroke-opacity:1" />
    <path
       sodipodi:nodetypes="cc"
       id="path2987"
       d="M 327.7394,755.71634 C 332.38255,765.55286 343.38493,777.14242 354.91156,785.22589"
       style="fill:none;fill-opacity:1;stroke:#000000;stroke-width:2.66759372;stroke-linecap:round;stroke-linejoin:round;stroke-miterlimit:4;stroke-dasharray:none;stroke-opacity:1" />
    <path
       sodipodi:nodetypes="cc"
       id="path2989"
       d="M 292.38281,723.25968 C 290.45078,753.07581 321.69599,779.00894 345.26983,787.2711"
       style="fill:none;fill-opacity:1;stroke:#000000;stroke-width:2.66759372;stroke-linecap:round;stroke-linejoin:round;stroke-miterlimit:4;stroke-dasharray:none;stroke-opacity:1" />
    <path
       sodipodi:nodetypes="cc"
       id="path2991"
       d="M 434.58081,741.692 C 434.89493,751.7233 432.24806,762.99419 425.81559,771.7859"
       style="fill:none;fill-opacity:1;stroke:#000000;stroke-width:2.66759372;stroke-linecap:round;stroke-linejoin:round;stroke-miterlimit:4;stroke-dasharray:none;stroke-opacity:1" />
    <path
       sodipodi:nodetypes="cc"
       id="path2993"
       d="M 442.63205,736.72505 C 442.40731,754.81332 433.29901,774.92604 414.62134,787.2711"
       style="fill:none;fill-opacity:1;stroke:#000000;stroke-width:2.66759372;stroke-linecap:round;stroke-linejoin:round;stroke-miterlimit:4;stroke-dasharray:none;stroke-opacity:1" />
    <path
       sodipodi:nodetypes="cc"
       id="path2995"
       d="M 463.60017,738.18592 C 462.84433,746.36678 458.16669,754.54765 452.78975,762.72851"
       style="fill:none;fill-opacity:1;stroke:#000000;stroke-width:2.66759372;stroke-linecap:round;stroke-linejoin:round;stroke-miterlimit:4;stroke-dasharray:none;stroke-opacity:1" />
    <path
       sodipodi:nodetypes="cc"
       id="path2997"
       d="M 488.43496,728.54418 C 491.59785,748.12446 467.16763,785.48525 422.69586,792.53024"
       style="fill:none;fill-opacity:1;stroke:#000000;stroke-width:2.66759372;stroke-linecap:round;stroke-linejoin:round;stroke-miterlimit:4;stroke-dasharray:none;stroke-opacity:1" />
    <path
       sodipodi:nodetypes="cc"
       id="path2999"
       d="M 470.02801,736.1407 C 468.83552,750.25182 454.58169,777.26432 422.11151,788.73198"
       style="fill:none;fill-opacity:1;stroke:#000000;stroke-width:2.66759372;stroke-linecap:round;stroke-linejoin:round;stroke-miterlimit:4;stroke-dasharray:none;stroke-opacity:1" />
    <path
       sodipodi:nodetypes="cc"
       id="path3001"
       d="M 483.17582,729.12853 C 483.42843,734.58244 483.89731,740.03635 481.13061,745.49026"
       style="fill:none;fill-opacity:1;stroke:#000000;stroke-width:2.66759372;stroke-linecap:round;stroke-linejoin:round;stroke-miterlimit:4;stroke-dasharray:none;stroke-opacity:1" />
    <path
       sodipodi:nodetypes="cc"
       id="path3003"
       d="M 500.99842,722.99289 C 502.42588,745.26931 488.66135,769.18214 457.17236,785.81023"
       style="fill:none;fill-opacity:1;stroke:#000000;stroke-width:2.66759372;stroke-linecap:round;stroke-linejoin:round;stroke-miterlimit:4;stroke-dasharray:none;stroke-opacity:1" />
    <path
       sodipodi:nodetypes="cc"
       id="path3005"
       d="M 513.56189,718.02593 C 518.9906,736.73636 502.93139,769.03198 464.4767,785.81023"
       style="fill:none;fill-opacity:1;stroke:#000000;stroke-width:2.66759372;stroke-linecap:round;stroke-linejoin:round;stroke-miterlimit:4;stroke-dasharray:none;stroke-opacity:1" />
    <path
       sodipodi:nodetypes="cc"
       id="path3007"
       d="M 303.36785,729.98426 C 302.81753,747.95828 323.42039,773.57644 348.61282,785.14593"
       style="fill:none;fill-opacity:1;stroke:#000000;stroke-width:2.66759372;stroke-linecap:round;stroke-linejoin:round;stroke-miterlimit:4;stroke-dasharray:none;stroke-opacity:1" />
    <path
       id="path2908"
       d="M 307.34439,666.78125 C 304.2096,666.76809 301.52048,668.98224 300.93814,672.0625 C 300.35581,675.14273 302.04615,678.21161 304.96939,679.34375 C 328.64326,689.04661 367.69336,694.82833 401.34439,695.125 C 401.40668,695.12555 401.46964,695.12449 401.53189,695.125 C 401.75824,695.14571 401.98908,695.15951 402.21939,695.15625 C 402.51917,695.15625 402.82491,695.15715 403.12564,695.15625 C 403.43527,695.1572 403.75451,695.15625 404.06314,695.15625 C 404.29345,695.15951 404.52429,695.14571 404.75064,695.125 C 404.8132,695.12448 404.87554,695.12555 404.93814,695.125 C 438.58621,694.82694 477.64235,689.04535 501.31314,679.34375 C 504.23638,678.21161 505.92673,675.14273 505.34439,672.0625 C 504.76206,668.98224 502.07293,666.76809 498.93814,666.78125 C 498.06732,666.787 497.20654,666.96766 496.40689,667.3125 C 475.48489,675.88749 435.64357,682.04429 403.12564,682.15625 C 370.61255,682.04105 330.79198,675.88517 309.87564,667.3125 C 309.07599,666.96766 308.21521,666.787 307.34439,666.78125 z "
       style="fill:#fef137;fill-opacity:1;stroke:#000000;stroke-width:7;stroke-linecap:round;stroke-linejoin:round;stroke-miterlimit:4;stroke-dasharray:none;stroke-opacity:1" />
    <path
       sodipodi:nodetypes="cc"
       id="path3886"
       d="M 462.59293,689.59108 C 462.4593,687.34511 462.28911,685.09913 461.54739,682.85316"
       style="fill:none;fill-opacity:1;stroke:#000000;stroke-width:3;stroke-linecap:round;stroke-linejoin:round;stroke-miterlimit:4;stroke-dasharray:none;stroke-opacity:1" />
    <path
       sodipodi:nodetypes="cc"
       id="path3888"
       d="M 469.79554,687.5 C 469.96444,683.8952 468.98343,680.57787 467.9368,677.27695"
       style="fill:none;fill-opacity:1;stroke:#000000;stroke-width:3;stroke-linecap:round;stroke-linejoin:round;stroke-miterlimit:4;stroke-dasharray:none;stroke-opacity:1" />
    <path
       sodipodi:nodetypes="cc"
       id="path3890"
       d="M 477.23048,685.40892 C 477.28988,682.07868 476.47391,678.74845 474.67472,675.41821"
       style="fill:none;fill-opacity:1;stroke:#000000;stroke-width:3;stroke-linecap:round;stroke-linejoin:round;stroke-miterlimit:4;stroke-dasharray:none;stroke-opacity:1" />
    <path
       sodipodi:nodetypes="cc"
       id="path3892"
       d="M 485.36245,683.31784 C 485.196,679.91305 484.44455,676.6545 483.03903,673.55948"
       style="fill:none;fill-opacity:1;stroke:#000000;stroke-width:3;stroke-linecap:round;stroke-linejoin:round;stroke-miterlimit:4;stroke-dasharray:none;stroke-opacity:1" />
    <path
       sodipodi:nodetypes="cc"
       id="path3894"
       d="M 493.02974,681.45911 C 492.71085,678.05143 492.09554,674.64374 490.24163,671.23606"
       style="fill:none;fill-opacity:1;stroke:#000000;stroke-width:3;stroke-linecap:round;stroke-linejoin:round;stroke-miterlimit:4;stroke-dasharray:none;stroke-opacity:1" />
    <path
       sodipodi:nodetypes="cc"
       id="path3896"
       d="M 498.3736,678.43866 C 498.82755,674.96766 497.51058,672.00264 495.81784,669.14498"
       style="fill:none;fill-opacity:1;stroke:#000000;stroke-width:3;stroke-linecap:round;stroke-linejoin:round;stroke-miterlimit:4;stroke-dasharray:none;stroke-opacity:1" />
    <path
       id="path3898"
       d="M 445.63197,677.27695 L 445.63197,671.23606"
       style="fill:none;fill-opacity:1;stroke:#000000;stroke-width:3;stroke-linecap:round;stroke-linejoin:round;stroke-miterlimit:4;stroke-dasharray:none;stroke-opacity:1" />
    <path
       id="path3900"
       d="M 453.06691,676.81227 L 453.06691,667.98327"
       style="fill:none;fill-opacity:1;stroke:#000000;stroke-width:3;stroke-linecap:round;stroke-linejoin:round;stroke-miterlimit:4;stroke-dasharray:none;stroke-opacity:1" />
    <path
       id="path3902"
       d="M 460.50186,675.41821 L 460.50186,644.51673"
       style="fill:none;fill-opacity:1;stroke:#000000;stroke-width:3;stroke-linecap:round;stroke-linejoin:round;stroke-miterlimit:4;stroke-dasharray:none;stroke-opacity:1" />
    <path
       id="path3904"
       d="M 467.47212,673.55948 L 467.47212,642.65799"
       style="fill:none;fill-opacity:1;stroke:#000000;stroke-width:3;stroke-linecap:round;stroke-linejoin:round;stroke-miterlimit:4;stroke-dasharray:none;stroke-opacity:1" />
    <path
       id="path3906"
       d="M 474.67472,671.70074 L 474.67472,641.0316"
       style="fill:none;fill-opacity:1;stroke:#000000;stroke-width:3;stroke-linecap:round;stroke-linejoin:round;stroke-miterlimit:4;stroke-dasharray:none;stroke-opacity:1" />
    <path
       id="path3908"
       d="M 479.78624,670.07435 L 479.78624,638.01115"
       style="fill:none;fill-opacity:1;stroke:#000000;stroke-width:3;stroke-linecap:round;stroke-linejoin:round;stroke-miterlimit:4;stroke-dasharray:none;stroke-opacity:1" />
    <path
       id="path3910"
       d="M 484.89777,669.37732 L 484.89777,636.84944"
       style="fill:none;fill-opacity:1;stroke:#000000;stroke-width:3;stroke-linecap:round;stroke-linejoin:round;stroke-miterlimit:4;stroke-dasharray:none;stroke-opacity:1" />
    <path
       id="path3912"
       d="M 490.70632,667.28624 L 490.70632,637.31413"
       style="fill:none;fill-opacity:1;stroke:#000000;stroke-width:3;stroke-linecap:round;stroke-linejoin:round;stroke-miterlimit:4;stroke-dasharray:none;stroke-opacity:1" />
    <path
       id="path3011"
       d="M 312.88533,887.04631 C 309.86604,887.01735 307.35446,889.32342 307.12901,892.33442 C 306.90356,895.34543 309.04158,898.0278 312.03153,898.4488 C 337.51948,902.96196 369.27247,906.15078 403.14126,906.29834 C 437.01004,906.15078 468.76303,902.96196 494.25099,898.4488 C 497.24093,898.0278 499.37896,895.34543 499.15351,892.33442 C 498.92805,889.32342 496.41648,887.01735 493.39718,887.04631 C 493.01805,887.04558 492.63979,887.08248 492.26795,887.15648 C 467.48743,891.54439 436.29974,894.69199 403.14126,894.84077 C 369.98277,894.69199 338.79508,891.54439 314.01457,887.15648 C 313.64272,887.08248 313.26447,887.04558 312.88533,887.04631 z "
       style="fill:#fef137;fill-opacity:1;stroke:#000000;stroke-width:6.16946173;stroke-linecap:round;stroke-linejoin:round;stroke-miterlimit:4;stroke-dasharray:none;stroke-opacity:1" />
  </g>
  <use
     x="0"
     y="0"
     xlink:href="#g4067"
     id="use5118"
     transform="translate(-401.16808,0)"
     width="810"
     height="1500" />
  <use
     x="0"
     y="0"
     xlink:href="#g4067"
     id="use5120"
     transform="translate(0,-442.37918)"
     width="810"
     height="1500" />
  <use
     x="0"
     y="0"
     xlink:href="#use5120"
     id="use5122"
     transform="translate(0,-442.37922)"
     width="810"
     height="1500" />
  <use
     x="0"
     y="0"
     xlink:href="#use5122"
     id="use5124"
     width="810"
     height="1500"
     transform="translate(-401.16808,0)" />
  <use
     x="0"
     y="0"
     xlink:href="#use5124"
     id="use5126"
     transform="translate(0,442.37922)"
     width="810"
     height="1500" />
  <use
     x="0"
     y="0"
     xlink:href="#use5122"
     id="use5588"
     transform="translate(-200.58406,219.55638)"
     width="810"
     height="1500" />
</svg>
