<?xml version="1.0" encoding="UTF-8" standalone="no"?>
<!-- Created with Inkscape (http://www.inkscape.org/) -->
<svg
   xmlns:dc="http://purl.org/dc/elements/1.1/"
   xmlns:cc="http://web.resource.org/cc/"
   xmlns:rdf="http://www.w3.org/1999/02/22-rdf-syntax-ns#"
   xmlns:svg="http://www.w3.org/2000/svg"
   xmlns="http://www.w3.org/2000/svg"
   xmlns:xlink="http://www.w3.org/1999/xlink"
   xmlns:sodipodi="http://sodipodi.sourceforge.net/DTD/sodipodi-0.dtd"
   xmlns:inkscape="http://www.inkscape.org/namespaces/inkscape"
   id="svg2"
   sodipodi:version="0.32"
   inkscape:version="0.45.1"
   width="810"
   height="1500"
   version="1.0"
   sodipodi:docbase="C:\Documents and Settings\Flanker\Desktop\Temporanei\SVG\Piacentine SVG"
   sodipodi:docname="Piacentine-D3.svg"
   inkscape:output_extension="org.inkscape.output.svg.inkscape">
  <metadata
     id="metadata7">
    <rdf:RDF>
      <cc:Work
         rdf:about="">
        <dc:format>image/svg+xml</dc:format>
        <dc:type
           rdf:resource="http://purl.org/dc/dcmitype/StillImage" />
      </cc:Work>
    </rdf:RDF>
  </metadata>
  <defs
     id="defs5" />
  <sodipodi:namedview
     inkscape:window-height="1003"
     inkscape:window-width="1280"
     inkscape:pageshadow="2"
     inkscape:pageopacity="0.0"
     guidetolerance="10.0"
     gridtolerance="10.0"
     objecttolerance="10.0"
     borderopacity="1.0"
     bordercolor="#666666"
     pagecolor="#ffffff"
     id="base"
     inkscape:zoom="0.37853783"
     inkscape:cx="159.57459"
     inkscape:cy="592.5421"
     inkscape:window-x="0"
     inkscape:window-y="0"
     inkscape:current-layer="svg2"
     showguides="true"
     inkscape:guide-bbox="true" />
  <rect
     ry="46.911991"
     y="0"
     x="0"
     height="1500"
     width="810"
     id="rect4428"
     style="fill:white;fill-opacity:1;fill-rule:evenodd;stroke:none;stroke-width:3.99999762;stroke-linejoin:miter;stroke-miterlimit:4;stroke-dasharray:none;stroke-opacity:1" />
  <g
     id="g2572"
     transform="matrix(0.6785712,0,0,0.6785712,129.07893,1000.256)">
    <path
       sodipodi:type="arc"
       style="fill:#000000;fill-opacity:1;fill-rule:evenodd;stroke:none;stroke-width:3.96013284;stroke-linejoin:miter;stroke-miterlimit:4;stroke-dasharray:none;stroke-opacity:1"
       id="path2574"
       sodipodi:cx="413.96637"
       sodipodi:cy="402.80322"
       sodipodi:rx="277.21793"
       sodipodi:ry="277.21793"
       d="M 691.1843 402.80322 A 277.21793 277.21793 0 1 1  136.74844,402.80322 A 277.21793 277.21793 0 1 1  691.1843 402.80322 z"
       transform="matrix(1.010036,0,0,1.010036,-133.12094,-121.84575)" />
    <path
       transform="matrix(0.975767,0,0,0.975767,-119.80611,-108.18359)"
       d="M 691.1843 402.80322 A 277.21793 277.21793 0 1 1  136.74844,402.80322 A 277.21793 277.21793 0 1 1  691.1843 402.80322 z"
       sodipodi:ry="277.21793"
       sodipodi:rx="277.21793"
       sodipodi:cy="402.80322"
       sodipodi:cx="413.96637"
       id="path2576"
       style="fill:#fef137;fill-opacity:1;fill-rule:evenodd;stroke:none;stroke-width:3.96013284;stroke-linejoin:miter;stroke-miterlimit:4;stroke-dasharray:none;stroke-opacity:1"
       sodipodi:type="arc" />
    <path
       sodipodi:type="arc"
       style="fill:#000000;fill-opacity:1;fill-rule:evenodd;stroke:none;stroke-width:3.96013284;stroke-linejoin:miter;stroke-miterlimit:4;stroke-dasharray:none;stroke-opacity:1"
       id="path2578"
       sodipodi:cx="413.96637"
       sodipodi:cy="402.80322"
       sodipodi:rx="277.21793"
       sodipodi:ry="277.21793"
       d="M 691.1843 402.80322 A 277.21793 277.21793 0 1 1  136.74844,402.80322 A 277.21793 277.21793 0 1 1  691.1843 402.80322 z"
       transform="matrix(0.892799,0,0,0.892799,-85.46015,-74.76381)" />
    <path
       id="path3650"
       d="M 284.125,39.34375 C 273.78726,39.34375 265.40626,47.756012 265.40625,58.09375 C 265.40625,68.431486 273.78728,76.812501 284.125,76.8125 C 294.46274,76.8125 302.84376,68.431484 302.84375,58.09375 C 302.84375,47.756014 294.46275,39.343749 284.125,39.34375 z "
       style="fill:#efd002;fill-opacity:1;fill-rule:evenodd;stroke:#000000;stroke-width:4;stroke-linejoin:miter;stroke-miterlimit:4;stroke-dasharray:none;stroke-opacity:1" />
    <path
       id="path3648"
       d="M 334.84375,44.9375 C 326.13748,44.742406 318.20042,50.681305 316.1875,59.5 C 313.887,69.578507 320.20275,79.636998 330.28125,81.9375 C 340.35976,84.237998 350.41824,77.922257 352.71875,67.84375 C 355.01925,57.765243 348.70351,47.706746 338.625,45.40625 C 337.36519,45.118688 336.0875,44.965371 334.84375,44.9375 z "
       style="fill:#efd002;fill-opacity:1;fill-rule:evenodd;stroke:#000000;stroke-width:4;stroke-linejoin:miter;stroke-miterlimit:4;stroke-dasharray:none;stroke-opacity:1" />
    <path
       id="path3587"
       d="M 284.125,41.34375 C 274.879,41.34375 267.37501,48.8165 267.375,58.0625 C 267.375,67.3085 274.87901,74.8125 284.125,74.8125 C 293.371,74.8125 300.87501,67.3085 300.875,58.0625 C 300.875,48.8165 293.37101,41.34375 284.125,41.34375 z M 233.3125,47.03125 C 232.20028,47.056992 231.06428,47.180324 229.9375,47.4375 C 220.92331,49.494905 215.28635,58.454559 217.34375,67.46875 C 219.40115,76.482937 228.36082,82.151154 237.375,80.09375 C 246.38918,78.036342 252.05742,69.045437 250,60.03125 C 248.19978,52.143836 241.09801,46.851053 233.3125,47.03125 z M 334.96875,47.03125 C 327.18192,46.856886 320.08148,52.175085 318.28125,60.0625 C 316.22386,69.076678 321.86081,78.098844 330.875,80.15625 C 339.88921,82.21366 348.88009,76.514188 350.9375,67.5 C 352.99489,58.485812 347.35794,49.494906 338.34375,47.4375 C 337.21698,47.180324 336.08115,47.056159 334.96875,47.03125 z M 186.125,63.78125 C 185.7196,63.77179 185.31349,63.792247 184.90625,63.8125 C 182.73431,63.920516 180.55135,64.465837 178.46875,65.46875 C 170.13837,69.480398 166.61336,79.450868 170.625,87.78125 C 174.63664,96.111626 184.66963,99.636643 193,95.625 C 201.33037,91.613354 204.82416,81.580373 200.8125,73.25 C 197.99182,67.392703 192.206,63.923156 186.125,63.78125 z M 382.75,63.78125 C 382.41121,63.776839 382.08724,63.795958 381.75,63.8125 C 375.81466,64.10363 370.1955,67.554115 367.4375,73.28125 C 363.42586,81.611616 366.91962,91.675853 375.25,95.6875 C 383.58038,99.699152 393.61335,96.142878 397.625,87.8125 C 401.63665,79.482124 398.14288,69.480397 389.8125,65.46875 C 387.53466,64.371817 385.12151,63.812129 382.75,63.78125 z M 143,90.8125 C 139.24999,90.75454 135.47513,91.946677 132.3125,94.46875 C 125.08365,100.23348 123.86028,110.77114 129.625,118 C 135.38974,125.22886 145.9274,126.42097 153.15625,120.65625 C 160.3851,114.89152 161.57724,104.3226 155.8125,97.09375 C 152.56984,93.027518 147.82144,90.887021 143,90.8125 z M 425.28125,90.84375 C 420.45442,90.92495 415.68023,93.058824 412.4375,97.125 C 406.67264,104.35375 407.83375,114.92264 415.0625,120.6875 C 422.29128,126.45236 432.86014,125.26 438.625,118.03125 C 444.38987,110.80249 443.1975,100.23361 435.96875,94.46875 C 432.80617,91.946626 429.03545,90.780595 425.28125,90.84375 z M 106.5625,126.71875 C 101.74243,126.80534 96.992737,128.96507 93.75,133.03125 C 87.985139,140.26001 89.14625,150.79763 96.375,156.5625 C 103.60376,162.32736 114.1414,161.135 119.90625,153.90625 C 125.67111,146.67749 124.47876,136.13985 117.25,130.375 C 114.08742,127.85287 110.31144,126.6514 106.5625,126.71875 z M 461.71875,126.75 C 457.96454,126.68678 454.16263,127.88418 451,130.40625 C 443.77114,136.17097 442.54777,146.70865 448.3125,153.9375 C 454.07725,161.16636 464.64614,162.35848 471.875,156.59375 C 479.10384,150.82901 480.29599,140.2601 474.53125,133.03125 C 471.2886,128.96503 466.54559,126.83129 461.71875,126.75 z M 80,169.71875 C 79.661472,169.71532 79.336763,169.73323 79,169.75 C 73.072976,170.04513 67.476761,173.49161 64.71875,179.21875 C 60.707102,187.54911 64.200876,197.55084 72.53125,201.5625 C 80.861628,205.57415 90.863357,202.08037 94.875,193.75 C 98.886649,185.41963 95.392882,175.38664 87.0625,171.375 C 84.784661,170.27807 82.369697,169.74278 80,169.71875 z M 487.625,169.75 C 485.45179,169.85538 483.27009,170.40334 481.1875,171.40625 C 472.85714,175.41788 469.33211,185.41962 473.34375,193.75 C 477.3554,202.08039 487.38837,205.57415 495.71875,201.5625 C 504.04912,197.55085 507.57415,187.54912 503.5625,179.21875 C 500.55376,172.97097 494.14462,169.43387 487.625,169.75 z M 63.375,217.65625 C 55.593994,217.48321 48.518982,222.80007 46.71875,230.6875 C 44.661344,239.70168 50.298313,248.69258 59.3125,250.75 C 68.32669,252.80741 77.286346,247.13918 79.34375,238.125 C 81.401158,229.11082 75.764191,220.11989 66.75,218.0625 C 65.623227,217.80532 64.486572,217.68097 63.375,217.65625 z M 504.875,217.65625 C 503.76259,217.68116 502.62677,217.83657 501.5,218.09375 C 492.48581,220.15115 486.81759,229.14206 488.875,238.15625 C 490.93239,247.17045 499.92331,252.80741 508.9375,250.75 C 517.9517,248.69259 523.6199,239.70168 521.5625,230.6875 C 519.76225,222.80009 512.66184,217.48189 504.875,217.65625 z M 57.3125,268.125 C 48.0665,268.125 40.625,275.62899 40.625,284.875 C 40.625,294.12101 48.0665,301.62499 57.3125,301.625 C 66.5585,301.625 74.0625,294.12099 74.0625,284.875 C 74.0625,275.62901 66.5585,268.12499 57.3125,268.125 z M 510.90625,268.125 C 501.66026,268.125 494.125,275.629 494.125,284.875 C 494.125,294.12101 501.66025,301.625 510.90625,301.625 C 520.15225,301.625 527.65625,294.121 527.65625,284.875 C 527.65625,275.62901 520.15225,268.125 510.90625,268.125 z M 62.65625,318.59375 C 61.543845,318.61866 60.408023,318.77407 59.28125,319.03125 C 50.267059,321.08866 44.661342,330.0483 46.71875,339.0625 C 48.776157,348.0767 57.704559,353.7449 66.71875,351.6875 C 75.732942,349.63011 81.401154,340.63918 79.34375,331.625 C 77.543525,323.73759 70.443088,318.41939 62.65625,318.59375 z M 505.59375,318.59375 C 497.80691,318.41939 490.67523,323.70633 488.875,331.59375 C 486.81759,340.60795 492.48581,349.59884 501.5,351.65625 C 510.51418,353.71364 519.5051,348.07669 521.5625,339.0625 C 523.61988,330.04831 517.95168,321.05741 508.9375,319 C 507.81072,318.74283 506.70616,318.61866 505.59375,318.59375 z M 488.65625,366.5 C 488.31746,366.49644 487.99349,366.51471 487.65625,366.53125 C 481.72091,366.82238 476.10176,370.27287 473.34375,376 C 469.3321,384.33038 472.85712,394.3321 481.1875,398.34375 C 489.51788,402.3554 499.5196,398.86163 503.53125,390.53125 C 507.54291,382.20088 504.04913,372.16789 495.71875,368.15625 C 493.44091,367.05931 491.02776,366.5249 488.65625,366.5 z M 78.96875,366.5625 C 76.795541,366.66788 74.582594,367.18459 72.5,368.1875 C 64.16962,372.19914 60.738348,382.20086 64.75,390.53125 C 68.761652,398.86165 78.732117,402.38664 87.0625,398.375 C 95.392881,394.36335 98.886644,384.36162 94.875,376.03125 C 91.866267,369.78346 85.488376,366.24637 78.96875,366.5625 z M 461.15625,409.5 C 456.32942,409.5812 451.55523,411.74632 448.3125,415.8125 C 442.54766,423.04126 443.74,433.57889 450.96875,439.34375 C 458.19751,445.10862 468.76639,443.91625 474.53125,436.6875 C 480.29611,429.45874 479.10376,418.92111 471.875,413.15625 C 468.71242,410.63412 464.91045,409.43684 461.15625,409.5 z M 107.09375,409.5625 C 103.33955,409.49928 99.53762,410.66543 96.375,413.1875 C 89.146141,418.95224 87.985261,429.45863 93.75,436.6875 C 99.514741,443.91636 110.02113,445.17098 117.25,439.40625 C 124.47885,433.64151 125.67097,423.0726 119.90625,415.84375 C 116.66359,411.77752 111.92058,409.64379 107.09375,409.5625 z M 425.78125,445.40625 C 422.02705,445.34303 418.22513,446.54043 415.0625,449.0625 C 407.83363,454.82723 406.64152,465.36489 412.40625,472.59375 C 418.17097,479.82259 428.7399,481.01474 435.96875,475.25 C 443.19762,469.48528 444.35849,458.94761 438.59375,451.71875 C 435.35109,447.65252 430.60808,445.48753 425.78125,445.40625 z M 142.46875,445.46875 C 137.64192,445.54995 132.86773,447.68382 129.625,451.75 C 123.86014,458.97875 125.08374,469.48514 132.3125,475.25 C 139.54127,481.01488 150.04764,479.885 155.8125,472.65625 C 161.57736,465.4275 160.385,454.88986 153.15625,449.125 C 149.99368,446.60288 146.22295,445.4056 142.46875,445.46875 z M 381.6875,472.4375 C 379.51429,472.54288 377.33259,473.09084 375.25,474.09375 C 366.91963,478.10541 363.42585,488.10712 367.4375,496.4375 C 371.44914,504.76787 381.45088,508.2929 389.78125,504.28125 C 398.11162,500.26959 401.6054,490.23662 397.59375,481.90625 C 394.58501,475.65847 388.20712,472.12137 381.6875,472.4375 z M 185.9375,472.46875 C 185.59871,472.46519 185.27473,472.48346 184.9375,472.5 C 179.00216,472.79113 173.41425,476.24161 170.65625,481.96875 C 166.6446,490.29911 170.16961,500.2696 178.5,504.28125 C 186.83037,508.29289 196.8321,504.83038 200.84375,496.5 C 204.85539,488.16961 201.33037,478.13664 193,474.125 C 190.72216,473.02806 188.30901,472.49365 185.9375,472.46875 z M 334.21875,489.1875 C 333.10634,489.21241 331.97052,489.36782 330.84375,489.625 C 321.82956,491.6824 316.19259,500.64206 318.25,509.65625 C 320.30741,518.67045 329.29832,524.33865 338.3125,522.28125 C 347.32668,520.22382 352.96366,511.23294 350.90625,502.21875 C 349.10603,494.33132 342.00559,489.01314 334.21875,489.1875 z M 234.03125,489.25 C 226.24441,489.07563 219.14398,494.39383 217.34375,502.28125 C 215.28634,511.29544 220.95455,520.22384 229.96875,522.28125 C 238.98294,524.33864 247.94258,518.73294 250,509.71875 C 252.05739,500.70456 246.42043,491.7449 237.40625,489.6875 C 236.27948,489.43032 235.14366,489.27491 234.03125,489.25 z M 284.125,494.875 C 274.879,494.875 267.375,502.379 267.375,511.625 C 267.375,520.871 274.879,528.375 284.125,528.375 C 293.371,528.375 300.875,520.871 300.875,511.625 C 300.875,502.379 293.371,494.875 284.125,494.875 z "
       style="opacity:1;fill:#fef137;fill-opacity:1;stroke:none;stroke-width:7;stroke-linecap:round;stroke-linejoin:round;stroke-miterlimit:4;stroke-dasharray:none;stroke-opacity:1" />
    <path
       transform="matrix(1.034781,0,0,1.034781,-127.87145,-137.73028)"
       d="M 597.22792 408.38477 A 199.07597 199.07597 0 1 1  199.07597,408.38477 A 199.07597 199.07597 0 1 1  597.22792 408.38477 z"
       sodipodi:ry="199.07597"
       sodipodi:rx="199.07597"
       sodipodi:cy="408.38477"
       sodipodi:cx="398.15195"
       id="path2584"
       style="fill:#fef137;fill-opacity:1;fill-rule:evenodd;stroke:none;stroke-width:3.81920123;stroke-linejoin:miter;stroke-miterlimit:4;stroke-dasharray:none;stroke-opacity:1"
       sodipodi:type="arc" />
    <path
       transform="matrix(1.030176,0,0,1.030176,-120.28795,-138.72469)"
       d="M 560.01746 411.17557 A 167.44708 167.44708 0 1 1  225.12329,411.17557 A 167.44708 167.44708 0 1 1  560.01746 411.17557 z"
       sodipodi:ry="167.44708"
       sodipodi:rx="167.44708"
       sodipodi:cy="411.17557"
       sodipodi:cx="392.57037"
       id="path2586"
       style="fill:#000000;fill-opacity:1;fill-rule:evenodd;stroke:none;stroke-width:4;stroke-linejoin:miter;stroke-miterlimit:4;stroke-dasharray:none;stroke-opacity:1"
       sodipodi:type="arc" />
    <path
       id="path3676"
       d="M 284.125,116.34375 C 271.153,116.34375 260.625,126.87175 260.625,139.84375 C 260.625,152.81575 271.153,163.34375 284.125,163.34375 C 297.097,163.34375 307.625,152.81575 307.625,139.84375 C 307.625,126.87175 297.097,116.34375 284.125,116.34375 z M 228.8125,127.375 C 225.76003,127.35167 222.65239,127.91521 219.65625,129.15625 C 207.67169,134.12043 201.97333,147.89043 206.9375,159.875 C 211.90167,171.85956 225.64044,177.55792 237.625,172.59375 C 249.60956,167.62958 255.30792,153.85956 250.34375,141.875 C 246.62062,132.88658 237.96992,127.445 228.8125,127.375 z M 339.4375,127.375 C 330.28008,127.445 321.62938,132.88657 317.90625,141.875 C 312.94209,153.85957 318.64043,167.62958 330.625,172.59375 C 342.60957,177.55792 356.34833,171.85956 361.3125,159.875 C 366.27668,147.89043 360.57831,134.12042 348.59375,129.15625 C 345.59761,127.91521 342.48997,127.35167 339.4375,127.375 z M 181.59375,158.8125 C 175.57839,158.8125 169.55505,161.1012 164.96875,165.6875 C 155.79616,174.86009 155.79616,189.76491 164.96875,198.9375 C 174.14134,208.11009 189.04616,208.11009 198.21875,198.9375 C 207.39134,189.76491 207.39134,174.86009 198.21875,165.6875 C 193.63245,161.10121 187.60911,158.8125 181.59375,158.8125 z M 386.65625,158.8125 C 380.64089,158.8125 374.61754,161.1012 370.03125,165.6875 C 360.85865,174.86009 360.85866,189.76491 370.03125,198.9375 C 379.20383,208.11009 394.10866,208.11009 403.28125,198.9375 C 412.45384,189.76491 412.45384,174.86009 403.28125,165.6875 C 398.69495,161.10121 392.67161,158.8125 386.65625,158.8125 z M 150,205.84375 C 140.84258,205.91375 132.16063,211.38658 128.4375,220.375 C 123.47334,232.35957 129.17168,246.09833 141.15625,251.0625 C 153.14082,256.02666 166.91083,250.32832 171.875,238.34375 C 176.83917,226.35918 171.14081,212.62042 159.15625,207.65625 C 156.16011,206.41521 153.05247,205.82042 150,205.84375 z M 418.25,205.84375 C 415.19753,205.82042 412.08989,206.41521 409.09375,207.65625 C 397.10918,212.62042 391.41083,226.35919 396.375,238.34375 C 401.33916,250.32831 415.10919,256.02667 427.09375,251.0625 C 439.07831,246.09832 444.77667,232.35957 439.8125,220.375 C 436.08937,211.38658 427.40742,205.91375 418.25,205.84375 z M 139.125,261.34375 C 126.153,261.34375 115.625,271.87175 115.625,284.84375 C 115.625,297.81575 126.153,308.34375 139.125,308.34375 C 152.097,308.34375 162.625,297.81575 162.625,284.84375 C 162.625,271.87175 152.097,261.34375 139.125,261.34375 z M 429.125,261.34375 C 416.153,261.34375 405.625,271.87175 405.625,284.84375 C 405.625,297.81575 416.153,308.34375 429.125,308.34375 C 442.097,308.34375 452.625,297.81575 452.625,284.84375 C 452.625,271.87175 442.097,261.34375 429.125,261.34375 z M 149.1875,316.84375 C 146.50695,316.95508 143.77787,317.53909 141.15625,318.625 C 129.17169,323.58918 123.47333,337.32793 128.4375,349.3125 C 133.40168,361.29707 147.17168,366.99542 159.15625,362.03125 C 171.14081,357.06709 176.83917,343.32831 171.875,331.34375 C 167.99674,321.98081 158.76088,316.44614 149.1875,316.84375 z M 417.9375,316.84375 C 408.78008,316.91375 400.09813,322.35532 396.375,331.34375 C 391.41082,343.32832 397.10919,357.06708 409.09375,362.03125 C 421.07831,366.99543 434.84833,361.29706 439.8125,349.3125 C 444.77666,337.32794 439.07832,323.58917 427.09375,318.625 C 424.09761,317.38396 420.98997,316.82042 417.9375,316.84375 z M 181.59375,363.875 C 175.57839,363.875 169.55505,366.1637 164.96875,370.75 C 155.79616,379.92258 155.79616,394.82741 164.96875,404 C 174.14134,413.17259 189.04616,413.17259 198.21875,404 C 207.39134,394.82741 207.39134,379.92259 198.21875,370.75 C 193.63245,366.1637 187.60911,363.875 181.59375,363.875 z M 386.65625,363.875 C 380.64089,363.875 374.61754,366.1637 370.03125,370.75 C 360.85865,379.92258 360.85866,394.82741 370.03125,404 C 379.20383,413.17259 394.10866,413.17259 403.28125,404 C 412.45384,394.82741 412.45384,379.92259 403.28125,370.75 C 398.69495,366.1637 392.67161,363.875 386.65625,363.875 z M 228.46875,395.3125 C 219.31133,395.3825 210.66063,400.82408 206.9375,409.8125 C 201.97333,421.79706 207.67169,435.56708 219.65625,440.53125 C 231.64082,445.49541 245.37958,439.79707 250.34375,427.8125 C 255.30791,415.82793 249.60957,402.05792 237.625,397.09375 C 234.62886,395.8527 231.52122,395.28917 228.46875,395.3125 z M 338.625,395.3125 C 335.94445,395.42383 333.24662,396.00784 330.625,397.09375 C 318.64044,402.05791 312.94208,415.82794 317.90625,427.8125 C 322.87043,439.79706 336.60918,445.49542 348.59375,440.53125 C 360.57832,435.56707 366.27667,421.79707 361.3125,409.8125 C 357.43425,400.44955 348.19838,394.91488 338.625,395.3125 z M 284.125,406.34375 C 271.153,406.34375 260.625,416.87175 260.625,429.84375 C 260.625,442.81575 271.153,453.34375 284.125,453.34375 C 297.097,453.34375 307.625,442.81575 307.625,429.84375 C 307.625,416.87175 297.097,406.34375 284.125,406.34375 z "
       style="opacity:1;fill:#fef137;fill-opacity:1;stroke:none;stroke-width:7;stroke-linecap:round;stroke-linejoin:round;stroke-miterlimit:4;stroke-dasharray:none;stroke-opacity:1" />
    <path
       transform="matrix(2.649795,0,0,2.65165,-445.51211,-474.2056)"
       d="M 275.35742,352.5165 L 266.44851,362.74116 L 260.1377,350.73757 L 249.11096,358.63208 L 245.73848,345.49668 L 233.18836,350.63545 L 232.93602,337.07637 L 219.53911,339.18237 L 222.42051,325.93058 L 208.89904,324.89027 L 214.75884,312.66019 L 201.84175,308.52965 L 210.36406,297.98059 L 198.74772,290.98252 L 209.47308,282.68318 L 199.78374,273.19483 L 212.13395,267.59264 L 204.89395,256.12553 L 218.20321,253.52251 L 213.80286,240.69484 L 227.35367,241.23131 L 226.0302,227.73462 L 239.09203,231.38166 L 240.91678,217.94356 L 252.78546,224.50456 L 257.66007,211.8495 L 267.69575,220.97075 L 275.35742,209.78098 L 283.01909,220.97075 L 293.05478,211.8495 L 297.92938,224.50456 L 309.79806,217.94356 L 311.62281,231.38166 L 324.68464,227.73461 L 323.36117,241.23131 L 336.91198,240.69484 L 332.51163,253.52251 L 345.8209,256.12553 L 338.58089,267.59264 L 350.93111,273.19483 L 341.24176,282.68318 L 351.96712,290.98251 L 340.35079,297.98059 L 348.87309,308.52965 L 335.95601,312.66018 L 341.81581,324.89027 L 328.29434,325.93058 L 331.17574,339.18237 L 317.77883,337.07637 L 317.52648,350.63545 L 304.97637,345.49668 L 301.60389,358.63208 L 290.57715,350.73757 L 284.26634,362.74115 L 275.35742,352.5165 z "
       inkscape:randomized="0"
       inkscape:rounded="0"
       inkscape:flatsided="false"
       sodipodi:arg2="1.6871516"
       sodipodi:arg1="1.5707963"
       sodipodi:r2="76.739532"
       sodipodi:r1="65.995995"
       sodipodi:cy="286.52051"
       sodipodi:cx="275.35742"
       sodipodi:sides="27"
       id="path2589"
       style="fill:none;fill-opacity:0;fill-rule:evenodd;stroke:#000000;stroke-width:1.50902259;stroke-linejoin:miter;stroke-miterlimit:4;stroke-dasharray:none;stroke-opacity:1"
       sodipodi:type="star" />
    <path
       transform="matrix(0.859973,0,0,1.433289,-64.92249,-215.02272)"
       d="M 381.40723 211.63446 A 2.3256538 1.3953923 0 1 1  376.75592,211.63446 A 2.3256538 1.3953923 0 1 1  381.40723 211.63446 z"
       sodipodi:ry="1.3953923"
       sodipodi:rx="2.3256538"
       sodipodi:cy="211.63446"
       sodipodi:cx="379.08157"
       id="path2592"
       style="fill:#ee2222;fill-opacity:0;fill-rule:evenodd;stroke:#000000;stroke-width:3.60288692;stroke-linejoin:miter;stroke-miterlimit:4;stroke-dasharray:none;stroke-opacity:1"
       sodipodi:type="arc" />
    <path
       sodipodi:type="arc"
       style="fill:#ee2222;fill-opacity:0;fill-rule:evenodd;stroke:#000000;stroke-width:3.60288692;stroke-linejoin:miter;stroke-miterlimit:4;stroke-dasharray:none;stroke-opacity:1"
       id="path2594"
       sodipodi:cx="379.08157"
       sodipodi:cy="211.63446"
       sodipodi:rx="2.3256538"
       sodipodi:ry="1.3953923"
       d="M 381.40723 211.63446 A 2.3256538 1.3953923 0 1 1  376.75592,211.63446 A 2.3256538 1.3953923 0 1 1  381.40723 211.63446 z"
       transform="matrix(0.859973,0,0,1.433289,3.24739,174.2036)" />
    <path
       transform="matrix(0.859973,0,0,1.433289,-237.17631,16.1686)"
       d="M 381.40723 211.63446 A 2.3256538 1.3953923 0 1 1  376.75592,211.63446 A 2.3256538 1.3953923 0 1 1  381.40723 211.63446 z"
       sodipodi:ry="1.3953923"
       sodipodi:rx="2.3256538"
       sodipodi:cy="211.63446"
       sodipodi:cx="379.08157"
       id="path2596"
       style="fill:#ee2222;fill-opacity:0;fill-rule:evenodd;stroke:#000000;stroke-width:3.60288692;stroke-linejoin:miter;stroke-miterlimit:4;stroke-dasharray:none;stroke-opacity:1"
       sodipodi:type="arc" />
    <path
       sodipodi:type="arc"
       style="fill:#ee2222;fill-opacity:0;fill-rule:evenodd;stroke:#000000;stroke-width:3.60288692;stroke-linejoin:miter;stroke-miterlimit:4;stroke-dasharray:none;stroke-opacity:1"
       id="path2598"
       sodipodi:cx="379.08157"
       sodipodi:cy="211.63446"
       sodipodi:rx="2.3256538"
       sodipodi:ry="1.3953923"
       d="M 381.40723 211.63446 A 2.3256538 1.3953923 0 1 1  376.75592,211.63446 A 2.3256538 1.3953923 0 1 1  381.40723 211.63446 z"
       transform="matrix(0.859973,0,0,1.433289,-223.03371,60.0763)" />
    <path
       transform="matrix(0.859973,0,0,1.433289,-199.68201,100.3662)"
       d="M 381.40723 211.63446 A 2.3256538 1.3953923 0 1 1  376.75592,211.63446 A 2.3256538 1.3953923 0 1 1  381.40723 211.63446 z"
       sodipodi:ry="1.3953923"
       sodipodi:rx="2.3256538"
       sodipodi:cy="211.63446"
       sodipodi:cx="379.08157"
       id="path2600"
       style="fill:#ee2222;fill-opacity:0;fill-rule:evenodd;stroke:#000000;stroke-width:3.60288692;stroke-linejoin:miter;stroke-miterlimit:4;stroke-dasharray:none;stroke-opacity:1"
       sodipodi:type="arc" />
    <path
       sodipodi:type="arc"
       style="fill:#ee2222;fill-opacity:0;fill-rule:evenodd;stroke:#000000;stroke-width:3.60288692;stroke-linejoin:miter;stroke-miterlimit:4;stroke-dasharray:none;stroke-opacity:1"
       id="path2602"
       sodipodi:cx="379.08157"
       sodipodi:cy="211.63446"
       sodipodi:rx="2.3256538"
       sodipodi:ry="1.3953923"
       d="M 381.40723 211.63446 A 2.3256538 1.3953923 0 1 1  376.75592,211.63446 A 2.3256538 1.3953923 0 1 1  381.40723 211.63446 z"
       transform="matrix(0.859973,0,0,1.433289,-168.10789,134.4071)" />
    <path
       transform="matrix(0.859973,0,0,1.433289,-129.29803,159.5677)"
       d="M 381.40723 211.63446 A 2.3256538 1.3953923 0 1 1  376.75592,211.63446 A 2.3256538 1.3953923 0 1 1  381.40723 211.63446 z"
       sodipodi:ry="1.3953923"
       sodipodi:rx="2.3256538"
       sodipodi:cy="211.63446"
       sodipodi:cx="379.08157"
       id="path2604"
       style="fill:#ee2222;fill-opacity:0;fill-rule:evenodd;stroke:#000000;stroke-width:3.60288692;stroke-linejoin:miter;stroke-miterlimit:4;stroke-dasharray:none;stroke-opacity:1"
       sodipodi:type="arc" />
    <path
       sodipodi:type="arc"
       style="fill:#ee2222;fill-opacity:0;fill-rule:evenodd;stroke:#000000;stroke-width:3.60288692;stroke-linejoin:miter;stroke-miterlimit:4;stroke-dasharray:none;stroke-opacity:1"
       id="path2606"
       sodipodi:cx="379.08157"
       sodipodi:cy="211.63446"
       sodipodi:rx="2.3256538"
       sodipodi:ry="1.3953923"
       d="M 381.40723 211.63446 A 2.3256538 1.3953923 0 1 1  376.75592,211.63446 A 2.3256538 1.3953923 0 1 1  381.40723 211.63446 z"
       transform="matrix(0.859973,0,0,1.433289,-86.70585,174.5325)" />
    <path
       transform="matrix(0.859973,0,0,1.433289,-41.97584,180.1238)"
       d="M 381.40723 211.63446 A 2.3256538 1.3953923 0 1 1  376.75592,211.63446 A 2.3256538 1.3953923 0 1 1  381.40723 211.63446 z"
       sodipodi:ry="1.3953923"
       sodipodi:rx="2.3256538"
       sodipodi:cy="211.63446"
       sodipodi:cx="379.08157"
       id="path2608"
       style="fill:#ee2222;fill-opacity:0;fill-rule:evenodd;stroke:#000000;stroke-width:3.60288692;stroke-linejoin:miter;stroke-miterlimit:4;stroke-dasharray:none;stroke-opacity:1"
       sodipodi:type="arc" />
    <path
       transform="matrix(0.859973,0,0,1.433289,46.33289,159.5677)"
       d="M 381.40723 211.63446 A 2.3256538 1.3953923 0 1 1  376.75592,211.63446 A 2.3256538 1.3953923 0 1 1  381.40723 211.63446 z"
       sodipodi:ry="1.3953923"
       sodipodi:rx="2.3256538"
       sodipodi:cy="211.63446"
       sodipodi:cx="379.08157"
       id="path2610"
       style="fill:#ee2222;fill-opacity:0;fill-rule:evenodd;stroke:#000000;stroke-width:3.60288692;stroke-linejoin:miter;stroke-miterlimit:4;stroke-dasharray:none;stroke-opacity:1"
       sodipodi:type="arc" />
    <path
       sodipodi:type="arc"
       style="fill:#ee2222;fill-opacity:0;fill-rule:evenodd;stroke:#000000;stroke-width:3.60288692;stroke-linejoin:miter;stroke-miterlimit:4;stroke-dasharray:none;stroke-opacity:1"
       id="path2612"
       sodipodi:cx="379.08157"
       sodipodi:cy="211.63446"
       sodipodi:rx="2.3256538"
       sodipodi:ry="1.3953923"
       d="M 381.40723 211.63446 A 2.3256538 1.3953923 0 1 1  376.75592,211.63446 A 2.3256538 1.3953923 0 1 1  381.40723 211.63446 z"
       transform="matrix(0.859973,0,0,1.433289,85.63649,133.1715)" />
    <path
       transform="matrix(0.859973,0,0,1.433289,117.49799,100.6123)"
       d="M 381.40723 211.63446 A 2.3256538 1.3953923 0 1 1  376.75592,211.63446 A 2.3256538 1.3953923 0 1 1  381.40723 211.63446 z"
       sodipodi:ry="1.3953923"
       sodipodi:rx="2.3256538"
       sodipodi:cy="211.63446"
       sodipodi:cx="379.08157"
       id="path2614"
       style="fill:#ee2222;fill-opacity:0;fill-rule:evenodd;stroke:#000000;stroke-width:3.60288692;stroke-linejoin:miter;stroke-miterlimit:4;stroke-dasharray:none;stroke-opacity:1"
       sodipodi:type="arc" />
    <path
       sodipodi:type="arc"
       style="fill:#ee2222;fill-opacity:0;fill-rule:evenodd;stroke:#000000;stroke-width:3.60288692;stroke-linejoin:miter;stroke-miterlimit:4;stroke-dasharray:none;stroke-opacity:1"
       id="path2616"
       sodipodi:cx="379.08157"
       sodipodi:cy="211.63446"
       sodipodi:rx="2.3256538"
       sodipodi:ry="1.3953923"
       d="M 381.40723 211.63446 A 2.3256538 1.3953923 0 1 1  376.75592,211.63446 A 2.3256538 1.3953923 0 1 1  381.40723 211.63446 z"
       transform="matrix(0.859973,0,0,1.433289,140.87079,60.3785)" />
    <path
       transform="matrix(0.859973,0,0,1.433289,153.66189,16.5399)"
       d="M 381.40723 211.63446 A 2.3256538 1.3953923 0 1 1  376.75592,211.63446 A 2.3256538 1.3953923 0 1 1  381.40723 211.63446 z"
       sodipodi:ry="1.3953923"
       sodipodi:rx="2.3256538"
       sodipodi:cy="211.63446"
       sodipodi:cx="379.08157"
       id="path2618"
       style="fill:#ee2222;fill-opacity:0;fill-rule:evenodd;stroke:#000000;stroke-width:3.60288692;stroke-linejoin:miter;stroke-miterlimit:4;stroke-dasharray:none;stroke-opacity:1"
       sodipodi:type="arc" />
    <path
       sodipodi:type="arc"
       style="fill:#ee2222;fill-opacity:0;fill-rule:evenodd;stroke:#000000;stroke-width:3.60288692;stroke-linejoin:miter;stroke-miterlimit:4;stroke-dasharray:none;stroke-opacity:1"
       id="path2620"
       sodipodi:cx="379.08157"
       sodipodi:cy="211.63446"
       sodipodi:rx="2.3256538"
       sodipodi:ry="1.3953923"
       d="M 381.40723 211.63446 A 2.3256538 1.3953923 0 1 1  376.75592,211.63446 A 2.3256538 1.3953923 0 1 1  381.40723 211.63446 z"
       transform="matrix(0.859973,0,0,1.433289,156.56899,-28.22894)" />
    <path
       transform="matrix(0.859973,0,0,1.433289,148.19659,-74.39317)"
       d="M 381.40723 211.63446 A 2.3256538 1.3953923 0 1 1  376.75592,211.63446 A 2.3256538 1.3953923 0 1 1  381.40723 211.63446 z"
       sodipodi:ry="1.3953923"
       sodipodi:rx="2.3256538"
       sodipodi:cy="211.63446"
       sodipodi:cx="379.08157"
       id="path2622"
       style="fill:#ee2222;fill-opacity:0;fill-rule:evenodd;stroke:#000000;stroke-width:3.60288692;stroke-linejoin:miter;stroke-miterlimit:4;stroke-dasharray:none;stroke-opacity:1"
       sodipodi:type="arc" />
    <path
       sodipodi:type="arc"
       style="fill:#ee2222;fill-opacity:0;fill-rule:evenodd;stroke:#000000;stroke-width:3.60288692;stroke-linejoin:miter;stroke-miterlimit:4;stroke-dasharray:none;stroke-opacity:1"
       id="path2624"
       sodipodi:cx="379.08157"
       sodipodi:cy="211.63446"
       sodipodi:rx="2.3256538"
       sodipodi:ry="1.3953923"
       d="M 381.40723 211.63446 A 2.3256538 1.3953923 0 1 1  376.75592,211.63446 A 2.3256538 1.3953923 0 1 1  381.40723 211.63446 z"
       transform="matrix(0.859973,0,0,1.433289,130.17279,-116.25494)" />
    <path
       transform="matrix(0.859973,0,0,1.433289,102.26499,-153.4654)"
       d="M 381.40723 211.63446 A 2.3256538 1.3953923 0 1 1  376.75592,211.63446 A 2.3256538 1.3953923 0 1 1  381.40723 211.63446 z"
       sodipodi:ry="1.3953923"
       sodipodi:rx="2.3256538"
       sodipodi:cy="211.63446"
       sodipodi:cx="379.08157"
       id="path2626"
       style="fill:#ee2222;fill-opacity:0;fill-rule:evenodd;stroke:#000000;stroke-width:3.60288692;stroke-linejoin:miter;stroke-miterlimit:4;stroke-dasharray:none;stroke-opacity:1"
       sodipodi:type="arc" />
    <path
       sodipodi:type="arc"
       style="fill:#ee2222;fill-opacity:0;fill-rule:evenodd;stroke:#000000;stroke-width:3.60288692;stroke-linejoin:miter;stroke-miterlimit:4;stroke-dasharray:none;stroke-opacity:1"
       id="path2628"
       sodipodi:cx="379.08157"
       sodipodi:cy="211.63446"
       sodipodi:rx="2.3256538"
       sodipodi:ry="1.3953923"
       d="M 381.40723 211.63446 A 2.3256538 1.3953923 0 1 1  376.75592,211.63446 A 2.3256538 1.3953923 0 1 1  381.40723 211.63446 z"
       transform="matrix(0.859973,0,0,1.433289,67.38019,-184.62916)" />
    <path
       transform="matrix(0.859973,0,0,1.433289,25.05329,-206.14146)"
       d="M 381.40723 211.63446 A 2.3256538 1.3953923 0 1 1  376.75592,211.63446 A 2.3256538 1.3953923 0 1 1  381.40723 211.63446 z"
       sodipodi:ry="1.3953923"
       sodipodi:rx="2.3256538"
       sodipodi:cy="211.63446"
       sodipodi:cx="379.08157"
       id="path2630"
       style="fill:#ee2222;fill-opacity:0;fill-rule:evenodd;stroke:#000000;stroke-width:3.60288692;stroke-linejoin:miter;stroke-miterlimit:4;stroke-dasharray:none;stroke-opacity:1"
       sodipodi:type="arc" />
    <path
       sodipodi:type="arc"
       style="fill:#ee2222;fill-opacity:0;fill-rule:evenodd;stroke:#000000;stroke-width:3.60288692;stroke-linejoin:miter;stroke-miterlimit:4;stroke-dasharray:none;stroke-opacity:1"
       id="path2632"
       sodipodi:cx="379.08157"
       sodipodi:cy="211.63446"
       sodipodi:rx="2.3256538"
       sodipodi:ry="1.3953923"
       d="M 381.40723 211.63446 A 2.3256538 1.3953923 0 1 1  376.75592,211.63446 A 2.3256538 1.3953923 0 1 1  381.40723 211.63446 z"
       transform="matrix(0.859973,0,0,1.433289,-19.01781,-216.37434)" />
    <path
       sodipodi:type="arc"
       style="fill:#ee2222;fill-opacity:0;fill-rule:evenodd;stroke:#000000;stroke-width:3.60288692;stroke-linejoin:miter;stroke-miterlimit:4;stroke-dasharray:none;stroke-opacity:1"
       id="path2634"
       sodipodi:cx="379.08157"
       sodipodi:cy="211.63446"
       sodipodi:rx="2.3256538"
       sodipodi:ry="1.3953923"
       d="M 381.40723 211.63446 A 2.3256538 1.3953923 0 1 1  376.75592,211.63446 A 2.3256538 1.3953923 0 1 1  381.40723 211.63446 z"
       transform="matrix(0.859973,0,0,1.433289,-108.5285,-205.37126)" />
    <path
       transform="matrix(0.859973,0,0,1.433289,-150.73912,-184.44038)"
       d="M 381.40723 211.63446 A 2.3256538 1.3953923 0 1 1  376.75592,211.63446 A 2.3256538 1.3953923 0 1 1  381.40723 211.63446 z"
       sodipodi:ry="1.3953923"
       sodipodi:rx="2.3256538"
       sodipodi:cy="211.63446"
       sodipodi:cx="379.08157"
       id="path2636"
       style="fill:#ee2222;fill-opacity:0;fill-rule:evenodd;stroke:#000000;stroke-width:3.60288692;stroke-linejoin:miter;stroke-miterlimit:4;stroke-dasharray:none;stroke-opacity:1"
       sodipodi:type="arc" />
    <path
       sodipodi:type="arc"
       style="fill:#ee2222;fill-opacity:0;fill-rule:evenodd;stroke:#000000;stroke-width:3.60288692;stroke-linejoin:miter;stroke-miterlimit:4;stroke-dasharray:none;stroke-opacity:1"
       id="path2638"
       sodipodi:cx="379.08157"
       sodipodi:cy="211.63446"
       sodipodi:rx="2.3256538"
       sodipodi:ry="1.3953923"
       d="M 381.40723 211.63446 A 2.3256538 1.3953923 0 1 1  376.75592,211.63446 A 2.3256538 1.3953923 0 1 1  381.40723 211.63446 z"
       transform="matrix(0.859973,0,0,1.433289,-187.01932,-155.25342)" />
    <path
       transform="matrix(0.859973,0,0,1.433289,-214.81088,-117.46155)"
       d="M 381.40723 211.63446 A 2.3256538 1.3953923 0 1 1  376.75592,211.63446 A 2.3256538 1.3953923 0 1 1  381.40723 211.63446 z"
       sodipodi:ry="1.3953923"
       sodipodi:rx="2.3256538"
       sodipodi:cy="211.63446"
       sodipodi:cx="379.08157"
       id="path2640"
       style="fill:#ee2222;fill-opacity:0;fill-rule:evenodd;stroke:#000000;stroke-width:3.60288692;stroke-linejoin:miter;stroke-miterlimit:4;stroke-dasharray:none;stroke-opacity:1"
       sodipodi:type="arc" />
    <path
       sodipodi:type="arc"
       style="fill:#ee2222;fill-opacity:0;fill-rule:evenodd;stroke:#000000;stroke-width:3.60288692;stroke-linejoin:miter;stroke-miterlimit:4;stroke-dasharray:none;stroke-opacity:1"
       id="path2642"
       sodipodi:cx="379.08157"
       sodipodi:cy="211.63446"
       sodipodi:rx="2.3256538"
       sodipodi:ry="1.3953923"
       d="M 381.40723 211.63446 A 2.3256538 1.3953923 0 1 1  376.75592,211.63446 A 2.3256538 1.3953923 0 1 1  381.40723 211.63446 z"
       transform="matrix(0.859973,0,0,1.433289,-232.95101,-74.43695)" />
    <path
       transform="matrix(0.859973,0,0,1.433289,-240.39311,-29.55183)"
       d="M 381.40723 211.63446 A 2.3256538 1.3953923 0 1 1  376.75592,211.63446 A 2.3256538 1.3953923 0 1 1  381.40723 211.63446 z"
       sodipodi:ry="1.3953923"
       sodipodi:rx="2.3256538"
       sodipodi:cy="211.63446"
       sodipodi:cx="379.08157"
       id="path2644"
       style="fill:#ee2222;fill-opacity:0;fill-rule:evenodd;stroke:#000000;stroke-width:3.60288692;stroke-linejoin:miter;stroke-miterlimit:4;stroke-dasharray:none;stroke-opacity:1"
       sodipodi:type="arc" />
    <path
       transform="matrix(1.930054,0,0,1.930054,79.44679,-399.2098)"
       d="M 167.44707 354.42963 A 61.397259 61.397259 0 1 1  44.652554,354.42963 A 61.397259 61.397259 0 1 1  167.44707 354.42963 z"
       sodipodi:ry="61.397259"
       sodipodi:rx="61.397259"
       sodipodi:cy="354.42963"
       sodipodi:cx="106.04981"
       id="path2646"
       style="fill:#cf2c38;fill-opacity:1;fill-rule:evenodd;stroke:none;stroke-width:4;stroke-linejoin:miter;stroke-miterlimit:4;stroke-dasharray:none;stroke-opacity:1"
       sodipodi:type="arc" />
    <path
       transform="matrix(1.018881,0,0,1.018881,-92.15822,-146.40222)"
       d="M 476.29388 423.26898 A 106.98007 106.98007 0 1 1  262.33374,423.26898 A 106.98007 106.98007 0 1 1  476.29388 423.26898 z"
       sodipodi:ry="106.98007"
       sodipodi:rx="106.98007"
       sodipodi:cy="423.26898"
       sodipodi:cx="369.31381"
       id="path2648"
       style="fill:none;fill-opacity:0;fill-rule:evenodd;stroke:#000000;stroke-width:3.92587328;stroke-linejoin:miter;stroke-miterlimit:4;stroke-dasharray:none;stroke-opacity:1"
       sodipodi:type="arc" />
    <path
       transform="matrix(1.712955,0,0,1.712955,-409.83901,-440.979)"
       d="M 462.33999 423.73413 A 57.211082 57.211082 0 1 1  347.91782,423.73413 A 57.211082 57.211082 0 1 1  462.33999 423.73413 z"
       sodipodi:ry="57.211082"
       sodipodi:rx="57.211082"
       sodipodi:cy="423.73413"
       sodipodi:cx="405.12891"
       id="path2650"
       style="fill:none;fill-opacity:0;fill-rule:evenodd;stroke:#000000;stroke-width:2.33514595;stroke-linejoin:miter;stroke-miterlimit:4;stroke-dasharray:none;stroke-opacity:1"
       sodipodi:type="arc" />
    <g
       transform="translate(-119.65521,-119.6727)"
       id="g2652">
      <path
         style="fill:none;fill-rule:evenodd;stroke:#000000;stroke-width:2;stroke-linecap:butt;stroke-linejoin:miter;stroke-miterlimit:4;stroke-dasharray:none;stroke-opacity:1"
         d="M 323.125,372.5625 C 341.39442,384.26419 361.36575,383.18404 380.59375,372.625 C 360.85855,362.44715 340.98488,360.64265 323.125,372.5625 z "
         id="path2654"
         sodipodi:nodetypes="ccc" />
      <path
         sodipodi:type="arc"
         style="fill:none;fill-opacity:1;fill-rule:evenodd;stroke:#000000;stroke-width:2.20979047;stroke-linejoin:miter;stroke-miterlimit:4;stroke-dasharray:none;stroke-opacity:1"
         id="path2656"
         sodipodi:cx="350.01089"
         sodipodi:cy="374.77911"
         sodipodi:rx="9.1863327"
         sodipodi:ry="9.1863327"
         d="M 359.19723 374.77911 A 9.1863327 9.1863327 0 1 1  340.82456,374.77911 A 9.1863327 9.1863327 0 1 1  359.19723 374.77911 z"
         transform="matrix(0.905063,0,0,0.905063,32.58932,33.42906)" />
      <path
         sodipodi:type="arc"
         style="fill:#000000;fill-opacity:1;fill-rule:evenodd;stroke:none;stroke-width:2;stroke-linejoin:miter;stroke-miterlimit:4;stroke-dasharray:none;stroke-opacity:1"
         id="path2658"
         sodipodi:cx="349.08063"
         sodipodi:cy="372.33716"
         sodipodi:rx="1.860523"
         sodipodi:ry="1.860523"
         d="M 350.94115 372.33716 A 1.860523 1.860523 0 1 1  347.2201,372.33716 A 1.860523 1.860523 0 1 1  350.94115 372.33716 z"
         transform="matrix(1.40625,0,0,1.40625,-141.5234,-150.9714)" />
      <path
         style="fill:#000000;fill-opacity:1;fill-rule:evenodd;stroke:none;stroke-width:2;stroke-linecap:butt;stroke-linejoin:miter;stroke-miterlimit:4;stroke-dasharray:none;stroke-opacity:1"
         d="M 336.53945,358.1414 C 330.02017,360.86943 323.31451,365.05541 321.38372,372.3125 L 321.32122,372.53125 L 321.35247,372.78125 C 323.23515,382.09573 332.5708,387.76795 341.88985,388.96388 L 342.22208,387.81737 C 333.67051,386.71993 325.26586,380.64728 323.5,372.59375 C 325.27663,366.34408 330.84389,361.89998 336.9918,359.32735 L 336.53945,358.1414 z "
         id="path2660"
         sodipodi:nodetypes="ccccccccc" />
      <path
         style="fill:#000000;fill-opacity:1;fill-rule:evenodd;stroke:none;stroke-width:2;stroke-linecap:butt;stroke-linejoin:miter;stroke-miterlimit:4;stroke-dasharray:none;stroke-opacity:1"
         d="M 354.75,354.55917 C 352.67052,354.44057 350.11065,354.80092 348.14805,355.11502 L 348.4375,356.01485 C 365.30033,354.87264 378.13769,362.52578 382.3125,372.65625 C 381.87583,375.7938 378.70862,379.22059 374.09375,382.25 C 369.46681,385.28733 363.07204,387.81716 356.83222,388.54765 L 357,389.52971 C 363.55554,388.76226 370.08679,387.09536 375.15625,383.96875 C 380.22571,380.84214 383.9254,376.93795 384.375,372.6875 L 384.40625,372.4375 L 384.3125,372.21875 C 380.41615,362.31388 369.30639,355.38936 354.75,354.55917 z "
         id="path2662"
         sodipodi:nodetypes="ccccsccscccc" />
    </g>
    <g
       transform="matrix(-1,0,0,1,687.93589,-119.6727)"
       id="g2664">
      <path
         sodipodi:nodetypes="ccc"
         id="path2666"
         d="M 323.125,372.5625 C 341.39442,384.26419 361.36575,383.18404 380.59375,372.625 C 360.85855,362.44715 340.98488,360.64265 323.125,372.5625 z "
         style="fill:none;fill-rule:evenodd;stroke:#000000;stroke-width:2;stroke-linecap:butt;stroke-linejoin:miter;stroke-miterlimit:4;stroke-dasharray:none;stroke-opacity:1" />
      <path
         transform="matrix(0.905063,0,0,0.905063,32.58932,33.42906)"
         d="M 359.19723 374.77911 A 9.1863327 9.1863327 0 1 1  340.82456,374.77911 A 9.1863327 9.1863327 0 1 1  359.19723 374.77911 z"
         sodipodi:ry="9.1863327"
         sodipodi:rx="9.1863327"
         sodipodi:cy="374.77911"
         sodipodi:cx="350.01089"
         id="path2668"
         style="fill:none;fill-opacity:1;fill-rule:evenodd;stroke:#000000;stroke-width:2.20979047;stroke-linejoin:miter;stroke-miterlimit:4;stroke-dasharray:none;stroke-opacity:1"
         sodipodi:type="arc" />
      <path
         transform="matrix(1.40625,0,0,1.40625,-141.5234,-150.9714)"
         d="M 350.94115 372.33716 A 1.860523 1.860523 0 1 1  347.2201,372.33716 A 1.860523 1.860523 0 1 1  350.94115 372.33716 z"
         sodipodi:ry="1.860523"
         sodipodi:rx="1.860523"
         sodipodi:cy="372.33716"
         sodipodi:cx="349.08063"
         id="path2670"
         style="fill:#000000;fill-opacity:1;fill-rule:evenodd;stroke:none;stroke-width:2;stroke-linejoin:miter;stroke-miterlimit:4;stroke-dasharray:none;stroke-opacity:1"
         sodipodi:type="arc" />
      <path
         sodipodi:nodetypes="ccccccccc"
         id="path2672"
         d="M 336.53945,358.1414 C 330.02017,360.86943 323.31451,365.05541 321.38372,372.3125 L 321.32122,372.53125 L 321.35247,372.78125 C 323.23515,382.09573 332.5708,387.76795 341.88985,388.96388 L 342.22208,387.81737 C 333.67051,386.71993 325.26586,380.64728 323.5,372.59375 C 325.27663,366.34408 330.84389,361.89998 336.9918,359.32735 L 336.53945,358.1414 z "
         style="fill:#000000;fill-opacity:1;fill-rule:evenodd;stroke:none;stroke-width:2;stroke-linecap:butt;stroke-linejoin:miter;stroke-miterlimit:4;stroke-dasharray:none;stroke-opacity:1" />
      <path
         sodipodi:nodetypes="ccccsccscccc"
         id="path2674"
         d="M 354.75,354.55917 C 352.67052,354.44057 350.11065,354.80092 348.14805,355.11502 L 348.4375,356.01485 C 365.30033,354.87264 378.13769,362.52578 382.3125,372.65625 C 381.87583,375.7938 378.70862,379.22059 374.09375,382.25 C 369.46681,385.28733 363.07204,387.81716 356.83222,388.54765 L 357,389.52971 C 363.55554,388.76226 370.08679,387.09536 375.15625,383.96875 C 380.22571,380.84214 383.9254,376.93795 384.375,372.6875 L 384.40625,372.4375 L 384.3125,372.21875 C 380.41615,362.31388 369.30639,355.38936 354.75,354.55917 z "
         style="fill:#000000;fill-opacity:1;fill-rule:evenodd;stroke:none;stroke-width:2;stroke-linecap:butt;stroke-linejoin:miter;stroke-miterlimit:4;stroke-dasharray:none;stroke-opacity:1" />
    </g>
    <path
       sodipodi:nodetypes="ccccc"
       id="path2676"
       d="M 208.00104,222.10855 L 208.52209,224.16743 C 229.24554,210.11646 256.98699,214.04518 271.94726,233.8796 L 273.20088,233.54605 C 257.4561,211.59428 228.26138,207.31198 208.00104,222.10855 z "
       style="fill:#000000;fill-opacity:1;fill-rule:evenodd;stroke:none;stroke-width:2;stroke-linecap:butt;stroke-linejoin:miter;stroke-miterlimit:4;stroke-dasharray:none;stroke-opacity:1" />
    <path
       style="fill:#000000;fill-opacity:1;fill-rule:evenodd;stroke:none;stroke-width:2;stroke-linecap:butt;stroke-linejoin:miter;stroke-miterlimit:4;stroke-dasharray:none;stroke-opacity:1"
       d="M 359.01751,222.10855 L 358.49646,224.16743 C 337.77301,210.11646 310.03156,214.04518 295.07129,233.8796 L 293.81767,233.54605 C 309.56245,211.59428 338.75717,207.31198 359.01751,222.10855 z "
       id="path2678"
       sodipodi:nodetypes="ccccc" />
    <path
       id="path2680"
       d="M 262.37604,286.04605 L 261.37604,286.48355 C 261.37605,286.48355 261.94468,291.56946 265.78229,293.85855 C 267.69761,295.00103 269.70716,295.06426 271.56354,294.98355 C 273.41992,294.90284 275.15886,294.71456 276.71979,295.1398 C 278.26598,295.56102 278.79552,296.29283 279.81354,297.2023 C 280.83156,298.11177 282.32933,299.0148 285.00104,299.0148 C 287.67275,299.0148 289.17052,298.11177 290.18854,297.2023 C 291.20656,296.29283 291.7361,295.56102 293.28229,295.1398 C 294.84322,294.71456 296.58216,294.90284 298.43854,294.98355 C 300.29492,295.06426 302.30447,295.00103 304.21979,293.85855 C 308.0574,291.56946 308.62603,286.48355 308.62604,286.48355 L 307.62604,286.04605 C 307.62604,286.04605 306.3228,290.72529 303.53229,292.3898 C 302.13357,293.22413 300.26695,293.06032 298.50104,292.98355 C 296.73513,292.90678 294.78289,292.64877 292.75104,293.2023 C 290.70444,293.75984 289.70054,294.9378 288.84479,295.7023 C 287.98904,296.4668 287.28846,297.0148 285.00104,297.0148 C 282.71362,297.0148 282.01304,296.4668 281.15729,295.7023 C 280.30154,294.9378 279.29764,293.75984 277.25104,293.2023 C 275.21919,292.64877 273.26695,292.90678 271.50104,292.98355 C 269.73513,293.06032 267.86851,293.22413 266.46979,292.3898 C 263.67928,290.72529 262.37604,286.04605 262.37604,286.04605 z "
       style="fill:#000000;fill-opacity:1;fill-rule:evenodd;stroke:none;stroke-width:2;stroke-linecap:butt;stroke-linejoin:miter;stroke-miterlimit:4;stroke-dasharray:none;stroke-opacity:1" />
    <path
       sodipodi:nodetypes="ccczccs"
       id="path2682"
       d="M 285.02357,297.36365 C 279.90627,297.19508 276.33206,301.74008 275.09479,305.3898 L 276.53591,305.75098 C 277.92362,302.39554 281.58774,299.0148 284.90729,299.0148 C 288.22684,299.0148 291.63149,302.17422 293.26486,305.58602 L 294.79101,304.98355 C 292.60059,300.53104 289.88429,297.52376 285.02357,297.36365 z "
       style="fill:#000000;fill-opacity:1;fill-rule:evenodd;stroke:none;stroke-width:2;stroke-linecap:butt;stroke-linejoin:miter;stroke-miterlimit:4;stroke-dasharray:none;stroke-opacity:1" />
    <g
       transform="translate(-119.65521,-119.6727)"
       id="g2684">
      <path
         style="fill:#000000;fill-opacity:1;fill-rule:evenodd;stroke:none;stroke-width:2;stroke-linecap:butt;stroke-linejoin:miter;stroke-miterlimit:4;stroke-dasharray:none;stroke-opacity:1"
         d="M 327.37862,437.125 L 327.20641,438.13734 C 332.47613,442.59711 337.71296,449.79911 341.21875,456.3125 L 342.96875,455.34375 C 340.48351,449.14742 333.18372,441.58485 327.37862,437.125 z "
         id="path2686"
         sodipodi:nodetypes="ccccc" />
      <path
         sodipodi:nodetypes="ccccc"
         id="path2688"
         d="M 328.34894,446.77646 L 328.02039,447.5367 C 330.6087,449.74499 331.89957,451.87096 333.85357,455.26596 L 335.29409,454.76102 C 333.9089,451.53128 331.5845,449.10109 328.34894,446.77646 z "
         style="fill:#000000;fill-opacity:1;fill-rule:evenodd;stroke:none;stroke-width:2;stroke-linecap:butt;stroke-linejoin:miter;stroke-miterlimit:4;stroke-dasharray:none;stroke-opacity:1" />
    </g>
    <g
       transform="matrix(-1,0,0,1,691.91979,-119.6727)"
       id="g2690">
      <path
         sodipodi:nodetypes="ccccc"
         id="path2692"
         d="M 327.37862,437.125 L 327.20641,438.13734 C 332.47613,442.59711 337.71296,449.79911 341.21875,456.3125 L 342.96875,455.34375 C 340.48351,449.14742 333.18372,441.58485 327.37862,437.125 z "
         style="fill:#000000;fill-opacity:1;fill-rule:evenodd;stroke:none;stroke-width:2;stroke-linecap:butt;stroke-linejoin:miter;stroke-miterlimit:4;stroke-dasharray:none;stroke-opacity:1" />
      <path
         style="fill:#000000;fill-opacity:1;fill-rule:evenodd;stroke:none;stroke-width:2;stroke-linecap:butt;stroke-linejoin:miter;stroke-miterlimit:4;stroke-dasharray:none;stroke-opacity:1"
         d="M 328.34894,446.77646 L 328.02039,447.5367 C 330.6087,449.74499 331.89957,451.87096 333.85357,455.26596 L 335.29409,454.76102 C 333.9089,451.53128 331.5845,449.10109 328.34894,446.77646 z "
         id="path2694"
         sodipodi:nodetypes="ccccc" />
    </g>
    <path
       sodipodi:nodetypes="csscccccccccccccccccccccsssssccsssssccccscssccccccccccc"
       id="path2696"
       d="M 279.46979,313.0773 C 278.15033,313.0773 276.85409,313.68736 275.25104,314.48355 C 273.64799,315.27974 271.79039,316.30111 269.68854,317.23355 C 265.48485,319.09843 260.35411,320.63296 254.53229,319.5773 L 254.53229,319.60855 C 252.38837,319.12592 250.2584,318.59379 248.12604,318.0148 C 248.48331,316.49917 248.37167,314.93122 248.43344,313.29605 L 246.81354,313.2023 C 246.61737,318.39546 245.15048,322.82702 242.51995,327.50608 L 243.65729,328.42105 C 245.24243,325.74161 246.65265,322.94221 247.59479,319.9523 C 260.54506,323.4694 273.72304,325.21808 286.81354,325.29605 L 286.81354,325.35855 C 286.89757,325.3472 286.97994,325.33934 287.06354,325.3273 C 297.96001,325.3744 308.78266,324.24521 319.34479,322.0148 C 319.57141,321.99167 319.80404,321.95405 320.03229,321.92105 L 320.03229,321.85855 C 322.53345,321.31833 325.03268,320.74208 327.50104,320.0773 C 328.28352,322.5723 329.21665,325.13881 330.25104,327.79605 L 331.62966,327.0773 C 329.82702,322.44653 328.3725,318.03802 327.50466,314.0773 L 326.00104,314.5148 C 326.25916,315.69281 326.58637,316.90684 326.93854,318.1398 C 324.43323,318.81386 321.91549,319.40829 319.37604,319.9523 C 315.00033,320.46725 310.79163,318.94071 306.90729,317.1398 C 302.91207,315.28748 299.3666,313.10855 296.00104,313.10855 C 294.11076,313.10855 292.85204,313.85557 291.75104,314.4523 C 290.65004,315.04903 289.66606,315.57731 287.75104,315.5773 C 285.8345,315.5773 285.04116,315.07114 284.00104,314.4523 C 282.96092,313.83346 281.62489,313.0773 279.46979,313.0773 z M 279.46979,315.0773 C 281.1954,315.0773 281.9089,315.53985 282.96979,316.17105 C 284.03068,316.80225 285.44022,317.5773 287.75104,317.5773 C 290.05218,317.57731 291.53679,316.85779 292.68854,316.23355 C 293.84029,315.60931 294.60633,315.10855 296.00104,315.10855 C 298.42213,315.10855 301.97024,317.0545 306.06354,318.9523 C 307.98871,319.84488 310.06665,320.69782 312.25104,321.29605 C 306.34821,322.26663 300.38356,322.90717 294.37604,323.17105 C 296.20676,322.29484 297.42888,320.73621 298.33097,319.64778 L 297.03229,318.8898 C 295.77927,320.69237 291.6948,323.29605 286.84479,323.29605 C 279.11235,323.29605 271.29517,322.61824 263.53229,321.35855 C 266.09282,320.82195 268.42993,319.96485 270.50104,319.04605 C 272.6914,318.07434 274.60693,317.06607 276.15729,316.29605 C 277.70765,315.52603 278.93368,315.0773 279.46979,315.0773 z M 272.12966,329.10493 L 270.90729,329.7023 C 280.20317,340.91738 295.41555,340.08907 304.09479,329.73355 L 303.01995,329.10493 C 294.39222,338.90441 279.3774,337.65862 272.12966,329.10493 z M 271.06864,353.49737 L 271.96469,354.01842 C 281.28359,343.74434 297.0589,342.91497 305.21979,354.67105 L 306.41091,353.66233 C 296.71815,340.57019 280.03347,341.81789 271.06864,353.49737 z "
       style="fill:#000000;fill-opacity:1;fill-rule:evenodd;stroke:none;stroke-width:2;stroke-linecap:butt;stroke-linejoin:miter;stroke-miterlimit:4;stroke-dasharray:none;stroke-opacity:1" />
  </g>
  <use
     x="0"
     y="0"
     xlink:href="#g2572"
     id="use3171"
     transform="translate(164.38357,-443.64877)"
     width="810"
     height="1500" />
  <use
     x="0"
     y="0"
     xlink:href="#g2572"
     id="use3173"
     transform="translate(-1.4950892e-6,-887.29762)"
     width="810"
     height="1500" />
  <rect
     style="fill:none;fill-opacity:1;fill-rule:evenodd;stroke:black;stroke-width:4.00000048;stroke-linejoin:miter;stroke-miterlimit:4;stroke-dasharray:none;stroke-opacity:1"
     id="rect1873"
     width="672.00012"
     height="1356"
     x="68.999939"
     y="72"
     ry="42.40844" />
</svg>
