<?xml version="1.0" encoding="UTF-8" standalone="no"?>
<!-- Created with Inkscape (http://www.inkscape.org/) -->
<svg
   xmlns:dc="http://purl.org/dc/elements/1.1/"
   xmlns:cc="http://web.resource.org/cc/"
   xmlns:rdf="http://www.w3.org/1999/02/22-rdf-syntax-ns#"
   xmlns:svg="http://www.w3.org/2000/svg"
   xmlns="http://www.w3.org/2000/svg"
   xmlns:xlink="http://www.w3.org/1999/xlink"
   xmlns:sodipodi="http://sodipodi.sourceforge.net/DTD/sodipodi-0.dtd"
   xmlns:inkscape="http://www.inkscape.org/namespaces/inkscape"
   width="810"
   height="1500"
   id="svg20735"
   sodipodi:version="0.32"
   inkscape:version="0.45.1"
   version="1.0"
   sodipodi:docbase="C:\Documents and Settings\Flanker\Desktop\Temporanei\SVG\Piacentine SVG"
   sodipodi:docname="Piacentine-S4.svg"
   inkscape:output_extension="org.inkscape.output.svg.inkscape"
   inkscape:export-filename="C:\Documents and Settings\Alessandro\Documenti\Visual Studio 2005\Projects\ConsoleApplication1\ConsoleApplication1\Media\cards\carte\S3.nuovo.png"
   inkscape:export-xdpi="300"
   inkscape:export-ydpi="300">
  <defs
     id="defs20737" />
  <sodipodi:namedview
     id="base"
     pagecolor="#ffffff"
     bordercolor="#666666"
     borderopacity="1.0"
     inkscape:pageopacity="0.0"
     inkscape:pageshadow="2"
     inkscape:zoom="0.269"
     inkscape:cx="362.82898"
     inkscape:cy="376.54626"
     inkscape:document-units="px"
     inkscape:current-layer="layer1"
     inkscape:window-width="1280"
     inkscape:window-height="1003"
     inkscape:window-x="0"
     inkscape:window-y="0"
     inkscape:showpageshadow="true" />
  <metadata
     id="metadata20740">
    <rdf:RDF>
      <cc:Work
         rdf:about="">
        <dc:format>image/svg+xml</dc:format>
        <dc:type
           rdf:resource="http://purl.org/dc/dcmitype/StillImage" />
      </cc:Work>
    </rdf:RDF>
  </metadata>
  <g
     inkscape:label="Livello 1"
     inkscape:groupmode="layer"
     id="layer1"
     transform="translate(125.00029,509.06639)">
    <rect
       rx="46.911991"
       ry="46.911991"
       y="-509.06638"
       x="-125.00029"
       height="1500"
       width="810"
       id="rect26881"
       style="fill:#ffffff;fill-opacity:1;fill-rule:evenodd;stroke:none;stroke-width:3.99999762;stroke-linejoin:miter;stroke-miterlimit:4;stroke-dasharray:none;stroke-opacity:1" />
    <g
       id="g3284">
      <g
         id="g8035"
         transform="matrix(1.0345423,-0.4079986,0.366876,0.9302698,1503.8292,-908.74633)">
        <path
           sodipodi:nodetypes="cccccc"
           id="path8037"
           d="M -1391.4279,657.12618 C -1402.9573,672.9946 -1412.8131,687.31445 -1424.6583,699.12664 L -1424.6583,1097.5674 L -1358.1975,1097.5674 L -1358.1975,699.12664 C -1370.0427,687.31445 -1379.8985,672.9946 -1391.4279,657.12618 z "
           style="fill:#3e609e;fill-opacity:1;fill-rule:evenodd;stroke:#000000;stroke-width:3.79306507;stroke-linecap:butt;stroke-linejoin:miter;stroke-miterlimit:4;stroke-dasharray:none;stroke-opacity:1" />
        <path
           style="fill:#3e609e;fill-opacity:1;fill-rule:evenodd;stroke:#000000;stroke-width:3.79306507;stroke-linecap:round;stroke-linejoin:round;stroke-miterlimit:4;stroke-dasharray:none;stroke-opacity:1"
           d="M -1391.4279,659.06081 L -1391.4279,1098.9474"
           id="path8039"
           sodipodi:nodetypes="cc" />
        <path
           style="fill:#3e609e;fill-opacity:1;fill-rule:evenodd;stroke:#000000;stroke-width:3.79306507;stroke-linecap:round;stroke-linejoin:round;stroke-miterlimit:4;stroke-dasharray:none;stroke-opacity:1"
           d="M -1379.1715,686.88108 L -1379.1715,1098.0194"
           id="path8041"
           sodipodi:nodetypes="cc" />
        <path
           style="fill:#3e609e;fill-opacity:1;fill-rule:evenodd;stroke:#000000;stroke-width:3.79306507;stroke-linecap:round;stroke-linejoin:round;stroke-miterlimit:4;stroke-dasharray:none;stroke-opacity:1"
           d="M -1368.1963,701.48862 L -1368.1963,1098.8069"
           id="path8043"
           sodipodi:nodetypes="cc" />
      </g>
      <g
         style="fill:#fef137;fill-opacity:1"
         transform="matrix(0.9302698,-0.366876,0.366876,0.9302698,1103.8084,-322.89646)"
         id="g8045">
        <path
           sodipodi:nodetypes="ccccc"
           id="path8047"
           d="M -990.72707,659.57461 C -1007.4474,714.57531 -998.97208,812.8653 -980.13296,850.54801 L -940.52573,850.54801 C -921.68661,812.8653 -913.2113,714.57531 -929.93162,659.57461 L -990.72707,659.57461 z "
           style="opacity:1;fill:#fef137;fill-opacity:1;stroke:#000000;stroke-width:7;stroke-linecap:round;stroke-linejoin:round;stroke-miterlimit:4;stroke-dasharray:none;stroke-opacity:1" />
        <path
           sodipodi:nodetypes="cc"
           id="path8049"
           d="M -997.93677,757.22246 C -985.8491,775.03097 -953.50034,801.95116 -930.1079,816.87336"
           style="opacity:1;fill:#fef137;fill-opacity:1;stroke:#000000;stroke-width:6;stroke-linecap:round;stroke-linejoin:round;stroke-miterlimit:4;stroke-dasharray:none;stroke-opacity:1" />
        <path
           style="opacity:1;fill:#fef137;fill-opacity:1;stroke:#000000;stroke-width:6;stroke-linecap:round;stroke-linejoin:round;stroke-miterlimit:4;stroke-dasharray:none;stroke-opacity:1"
           d="M -997.93677,771.89467 C -985.8491,789.70318 -952.53823,815.66126 -932.51318,825.53237"
           id="path8051"
           sodipodi:nodetypes="cc" />
        <path
           style="opacity:1;fill:#fef137;fill-opacity:1;stroke:#000000;stroke-width:6;stroke-linecap:round;stroke-linejoin:round;stroke-miterlimit:4;stroke-dasharray:none;stroke-opacity:1"
           d="M -995.09853,797.66462 C -981.34697,815.31538 -956.66709,832.58469 -937.08321,840.44509"
           id="path8053"
           sodipodi:nodetypes="cc" />
        <path
           sodipodi:nodetypes="cc"
           id="path8055"
           d="M -991.92357,813.74652 C -976.94957,831.07397 -955.90562,842.11933 -939.72902,848.38252"
           style="opacity:1;fill:#fef137;fill-opacity:1;stroke:#000000;stroke-width:6;stroke-linecap:round;stroke-linejoin:round;stroke-miterlimit:4;stroke-dasharray:none;stroke-opacity:1" />
        <path
           style="opacity:1;fill:#fef137;fill-opacity:1;stroke:#000000;stroke-width:6;stroke-linecap:round;stroke-linejoin:round;stroke-miterlimit:4;stroke-dasharray:none;stroke-opacity:1"
           d="M -997.93677,704.54686 C -985.8491,722.35536 -946.04398,766.59356 -924.57576,780.07259"
           id="path8057"
           sodipodi:nodetypes="cc" />
        <path
           sodipodi:nodetypes="cc"
           id="path8059"
           d="M -998.89888,722.82698 C -988.01385,739.67338 -947.00609,781.5063 -925.7784,791.85847"
           style="opacity:1;fill:#fef137;fill-opacity:1;stroke:#000000;stroke-width:6;stroke-linecap:round;stroke-linejoin:round;stroke-miterlimit:4;stroke-dasharray:none;stroke-opacity:1" />
        <path
           sodipodi:nodetypes="cc"
           id="path8061"
           d="M -992.40463,667.98663 C -982.00065,683.14932 -943.39817,726.90647 -921.92995,741.58813"
           style="opacity:1;fill:#fef137;fill-opacity:1;stroke:#000000;stroke-width:6;stroke-linecap:round;stroke-linejoin:round;stroke-miterlimit:4;stroke-dasharray:none;stroke-opacity:1" />
        <path
           style="opacity:1;fill:#fef137;fill-opacity:1;stroke:#000000;stroke-width:6;stroke-linecap:round;stroke-linejoin:round;stroke-miterlimit:4;stroke-dasharray:none;stroke-opacity:1"
           d="M -994.8099,678.81038 C -984.16541,695.17573 -947.9682,735.56548 -921.68943,753.13348"
           id="path8063"
           sodipodi:nodetypes="cc" />
        <path
           style="opacity:1;fill:#fef137;fill-opacity:1;stroke:#000000;stroke-width:6;stroke-linecap:round;stroke-linejoin:round;stroke-miterlimit:4;stroke-dasharray:none;stroke-opacity:1"
           d="M -957.56811,660.58427 C -948.17295,673.45268 -934.43724,687.28316 -923.61365,696.60942"
           id="path8065"
           sodipodi:nodetypes="cc" />
        <path
           sodipodi:nodetypes="cc"
           id="path8067"
           d="M -970.27395,659.56624 C -957.75021,675.79444 -935.88018,698.82334 -921.68943,709.11688"
           style="opacity:1;fill:#fef137;fill-opacity:1;stroke:#000000;stroke-width:6;stroke-linecap:round;stroke-linejoin:round;stroke-miterlimit:4;stroke-dasharray:none;stroke-opacity:1" />
        <path
           sodipodi:nodetypes="cs"
           id="path8069"
           d="M -951.75542,780.55369 C -951.75542,780.55369 -951.75542,794.14349 -951.75542,794.14349"
           style="opacity:1;fill:#fef137;fill-opacity:1;stroke:#000000;stroke-width:3.70000005;stroke-linecap:round;stroke-linejoin:round;stroke-miterlimit:4;stroke-dasharray:none;stroke-opacity:1" />
        <path
           style="opacity:1;fill:#fef137;fill-opacity:1;stroke:#000000;stroke-width:3.70000005;stroke-linecap:round;stroke-linejoin:round;stroke-miterlimit:4;stroke-dasharray:none;stroke-opacity:1"
           d="M -945.1409,785.36424 C -945.1409,785.36424 -945.98274,798.23247 -945.98274,798.23247"
           id="path8071"
           sodipodi:nodetypes="cs" />
        <path
           sodipodi:nodetypes="cs"
           id="path8073"
           d="M -939.00745,790.53559 C -939.00745,790.53559 -940.21008,802.32144 -940.21008,802.32144"
           style="opacity:1;fill:#fef137;fill-opacity:1;stroke:#000000;stroke-width:3.70000005;stroke-linecap:round;stroke-linejoin:round;stroke-miterlimit:4;stroke-dasharray:none;stroke-opacity:1" />
        <path
           style="opacity:1;fill:#fef137;fill-opacity:1;stroke:#000000;stroke-width:3.70000005;stroke-linecap:round;stroke-linejoin:round;stroke-miterlimit:4;stroke-dasharray:none;stroke-opacity:1"
           d="M -932.87399,794.74483 C -932.87399,794.74483 -934.43742,807.61305 -934.43742,807.61305"
           id="path8075"
           sodipodi:nodetypes="cs" />
        <path
           style="opacity:1;fill:#fef137;fill-opacity:1;stroke:#000000;stroke-width:3.70000005;stroke-linecap:round;stroke-linejoin:round;stroke-miterlimit:4;stroke-dasharray:none;stroke-opacity:1"
           d="M -951.51489,735.8155 C -951.51489,735.8155 -951.51489,749.40531 -951.51489,749.40531"
           id="path8077"
           sodipodi:nodetypes="cs" />
        <path
           sodipodi:nodetypes="cs"
           id="path8079"
           d="M -945.92262,741.82869 C -945.92262,741.82869 -945.92262,755.4185 -945.92262,755.4185"
           style="opacity:1;fill:#fef137;fill-opacity:1;stroke:#000000;stroke-width:3.70000005;stroke-linecap:round;stroke-linejoin:round;stroke-miterlimit:4;stroke-dasharray:none;stroke-opacity:1" />
        <path
           style="opacity:1;fill:#fef137;fill-opacity:1;stroke:#000000;stroke-width:3.70000005;stroke-linecap:round;stroke-linejoin:round;stroke-miterlimit:4;stroke-dasharray:none;stroke-opacity:1"
           d="M -939.96957,747.60136 C -939.96957,747.60136 -940.33036,761.19117 -940.33036,761.19117"
           id="path8081"
           sodipodi:nodetypes="cs" />
        <path
           sodipodi:nodetypes="cs"
           id="path8083"
           d="M -934.13676,752.29165 C -934.13676,752.29165 -934.73808,765.4004 -934.73808,765.4004"
           style="opacity:1;fill:#fef137;fill-opacity:1;stroke:#000000;stroke-width:3.70000005;stroke-linecap:round;stroke-linejoin:round;stroke-miterlimit:4;stroke-dasharray:none;stroke-opacity:1" />
        <path
           style="opacity:1;fill:#fef137;fill-opacity:1;stroke:#000000;stroke-width:3.70000005;stroke-linecap:round;stroke-linejoin:round;stroke-miterlimit:4;stroke-dasharray:none;stroke-opacity:1"
           d="M -928.42423,756.1401 C -928.42423,756.1401 -929.14581,769.48938 -929.14581,769.48938"
           id="path8085"
           sodipodi:nodetypes="cs" />
        <path
           sodipodi:nodetypes="cs"
           id="path8087"
           d="M -944.35919,699.25526 C -944.35919,699.25526 -944.35919,712.84507 -944.35919,712.84507"
           style="opacity:1;fill:#fef137;fill-opacity:1;stroke:#000000;stroke-width:3.70000005;stroke-linecap:round;stroke-linejoin:round;stroke-miterlimit:4;stroke-dasharray:none;stroke-opacity:1" />
        <path
           style="opacity:1;fill:#fef137;fill-opacity:1;stroke:#000000;stroke-width:3.70000005;stroke-linecap:round;stroke-linejoin:round;stroke-miterlimit:4;stroke-dasharray:none;stroke-opacity:1"
           d="M -938.76691,706.35084 C -938.76691,706.35084 -938.76691,719.94064 -938.76691,719.94064"
           id="path8089"
           sodipodi:nodetypes="cs" />
        <path
           sodipodi:nodetypes="cs"
           id="path8091"
           d="M -933.17464,710.92087 C -933.17464,710.92087 -933.17464,724.51067 -933.17464,724.51067"
           style="opacity:1;fill:#fef137;fill-opacity:1;stroke:#000000;stroke-width:3.70000005;stroke-linecap:round;stroke-linejoin:round;stroke-miterlimit:4;stroke-dasharray:none;stroke-opacity:1" />
        <path
           style="opacity:1;fill:#fef137;fill-opacity:1;stroke:#000000;stroke-width:3.70000005;stroke-linecap:round;stroke-linejoin:round;stroke-miterlimit:4;stroke-dasharray:none;stroke-opacity:1"
           d="M -927.8229,715.85169 C -927.8229,715.85169 -927.58237,729.80228 -927.58237,729.80228"
           id="path8093"
           sodipodi:nodetypes="cs" />
        <path
           style="opacity:1;fill:#fef137;fill-opacity:1;stroke:#000000;stroke-width:3.70000005;stroke-linecap:round;stroke-linejoin:round;stroke-miterlimit:4;stroke-dasharray:none;stroke-opacity:1"
           d="M -949.95146,693.96365 C -949.95146,693.96365 -949.95146,701.90106 -949.95146,701.90106"
           id="path8095"
           sodipodi:nodetypes="cs" />
        <path
           style="opacity:1;fill:#fef137;fill-opacity:1;stroke:#000000;stroke-width:3.70000005;stroke-linecap:round;stroke-linejoin:round;stroke-miterlimit:4;stroke-dasharray:none;stroke-opacity:1"
           d="M -951.27436,820.24079 C -951.27436,820.24079 -951.27436,826.1337 -951.27436,826.1337"
           id="path8097"
           sodipodi:nodetypes="cs" />
        <path
           sodipodi:nodetypes="cs"
           id="path8099"
           d="M -945.56182,824.69056 C -945.56182,824.69056 -945.80235,830.46321 -945.80235,830.46321"
           style="opacity:1;fill:#fef137;fill-opacity:1;stroke:#000000;stroke-width:3.70000005;stroke-linecap:round;stroke-linejoin:round;stroke-miterlimit:4;stroke-dasharray:none;stroke-opacity:1" />
        <path
           style="opacity:1;fill:#fef137;fill-opacity:1;stroke:#000000;stroke-width:3.70000005;stroke-linecap:round;stroke-linejoin:round;stroke-miterlimit:4;stroke-dasharray:none;stroke-opacity:1"
           d="M -939.72903,828.05795 C -939.72903,828.05795 -940.33035,833.46981 -940.33035,833.46981"
           id="path8101"
           sodipodi:nodetypes="cs" />
      </g>
      <g
         id="g8103"
         transform="matrix(0.9302698,-0.366876,0.366876,0.9302698,1107.1958,-324.23236)">
        <g
           id="g8105">
          <path
             sodipodi:type="arc"
             style="fill:#cf2c38;fill-opacity:1;stroke:#000000;stroke-width:2.46475697;stroke-linecap:round;stroke-linejoin:round;stroke-miterlimit:4;stroke-dasharray:none;stroke-opacity:1"
             id="path8107"
             sodipodi:cx="38.284519"
             sodipodi:cy="1162.5522"
             sodipodi:rx="8.7866106"
             sodipodi:ry="8.7866106"
             d="M 47.07113 1162.5522 A 8.7866106 8.7866106 0 1 1  29.497909,1162.5522 A 8.7866106 8.7866106 0 1 1  47.07113 1162.5522 z"
             transform="matrix(2.8398284,0,0,2.8402447,-1072.6921,-2431.2202)" />
          <path
             style="fill:none;fill-opacity:1;stroke:#000000;stroke-width:6;stroke-linecap:round;stroke-linejoin:round;stroke-miterlimit:4;stroke-dasharray:none;stroke-opacity:1"
             d="M -968.65767,884.95512 C -958.23287,887.16124 -949.78322,880.1569 -948.68153,870.18805"
             id="path8109"
             sodipodi:nodetypes="cc" />
        </g>
        <g
           transform="translate(-1.3142897,0)"
           id="g8111">
          <g
             id="g8113">
            <path
               transform="matrix(1.2268496,0,0,0.9969615,-869.17332,-191.19219)"
               d="M -41.841006 1038.2845 A 12.761506 25.523012 0 1 1  -67.364018,1038.2845 A 12.761506 25.523012 0 1 1  -41.841006 1038.2845 z"
               sodipodi:ry="25.523012"
               sodipodi:rx="12.761506"
               sodipodi:cy="1038.2845"
               sodipodi:cx="-54.602512"
               id="path8115"
               style="fill:#cf2c38;fill-opacity:1;stroke:#000000;stroke-width:6.32940817;stroke-linecap:round;stroke-linejoin:round;stroke-miterlimit:4;stroke-dasharray:none;stroke-opacity:1"
               sodipodi:type="arc" />
            <path
               style="fill:none;fill-opacity:1;stroke:#000000;stroke-width:6;stroke-linecap:round;stroke-linejoin:round;stroke-miterlimit:4;stroke-dasharray:none;stroke-opacity:1"
               d="M -934.21344,828.99129 C -927.71899,834.72407 -928.15289,853.35569 -934.21344,858.47425"
               id="path8117"
               sodipodi:nodetypes="cc" />
          </g>
          <g
             id="g8119">
            <path
               sodipodi:type="arc"
               style="fill:#cf2c38;fill-opacity:1;stroke:#000000;stroke-width:6.32940817;stroke-linecap:round;stroke-linejoin:round;stroke-miterlimit:4;stroke-dasharray:none;stroke-opacity:1"
               id="path8121"
               sodipodi:cx="-54.602512"
               sodipodi:cy="1038.2845"
               sodipodi:rx="12.761506"
               sodipodi:ry="25.523012"
               d="M -41.841006 1038.2845 A 12.761506 25.523012 0 1 1  -67.364018,1038.2845 A 12.761506 25.523012 0 1 1  -41.841006 1038.2845 z"
               transform="matrix(1.2268496,0,0,0.9969615,-922.16123,-191.93025)" />
            <path
               sodipodi:nodetypes="cc"
               id="path8123"
               d="M -988.94157,828.10573 C -987.24963,828.33377 -985.57379,829.87469 -985.15433,830.8698"
               style="fill:none;fill-opacity:1;stroke:#000000;stroke-width:6;stroke-linecap:round;stroke-linejoin:round;stroke-miterlimit:4;stroke-dasharray:none;stroke-opacity:1" />
          </g>
        </g>
        <g
           transform="translate(9.5339281e-5,0)"
           id="g8125">
          <path
             sodipodi:type="arc"
             style="fill:#cf2c38;fill-opacity:1;stroke:#000000;stroke-width:6.32940817;stroke-linecap:round;stroke-linejoin:round;stroke-miterlimit:4;stroke-dasharray:none;stroke-opacity:1"
             id="path8127"
             sodipodi:cx="-54.602512"
             sodipodi:cy="1038.2845"
             sodipodi:rx="12.761506"
             sodipodi:ry="25.523012"
             d="M -41.841006 1038.2845 A 12.761506 25.523012 0 1 1  -67.364018,1038.2845 A 12.761506 25.523012 0 1 1  -41.841006 1038.2845 z"
             transform="matrix(1.2268496,0,0,0.9969615,-896.98166,-191.00234)" />
          <path
             style="fill:none;fill-opacity:1;stroke:#000000;stroke-width:6;stroke-linecap:round;stroke-linejoin:round;stroke-miterlimit:4;stroke-dasharray:none;stroke-opacity:1"
             d="M -962.84062,829.38588 C -956.34616,835.11867 -956.78007,853.75029 -962.84062,858.86885"
             id="path8129"
             sodipodi:nodetypes="cc" />
        </g>
      </g>
      <path
         transform="matrix(1.4773938,-0.5637231,0.5628577,1.4752691,-5428.8331,481.17192)"
         d="M 3448 1404.375 A 9.5 14.125 0 1 1  3429,1404.375 A 9.5 14.125 0 1 1  3448 1404.375 z"
         sodipodi:ry="14.125"
         sodipodi:rx="9.5"
         sodipodi:cy="1404.375"
         sodipodi:cx="3438.5"
         id="path8133"
         style="fill:none;fill-opacity:1;fill-rule:nonzero;stroke:none;stroke-width:2;stroke-linecap:butt;stroke-linejoin:miter;stroke-miterlimit:4;stroke-dasharray:none;stroke-dashoffset:0;stroke-opacity:1"
         sodipodi:type="arc" />
      <path
         style="fill:#000000;fill-opacity:1;stroke:none;stroke-width:1;stroke-linecap:round;stroke-linejoin:round;stroke-miterlimit:4;stroke-dasharray:none;stroke-opacity:1"
         d="M 420.07821,560.98739 C 415.74943,580.59435 390.5714,605.69885 403.44476,638.3412 C 409.91101,654.73737 423.13317,665.94553 435.08886,661.2305 C 444.5123,657.51412 446.47895,661.13862 457.81268,656.66887 C 469.14641,652.19913 468.1096,648.20791 477.53304,644.49154 C 489.48874,639.7765 491.50099,622.56025 485.03474,606.16409 C 472.16138,573.52173 436.62516,572.36146 420.07821,560.98739 z "
         id="path8135" />
      <g
         id="g8137"
         transform="matrix(0.7761236,-0.3060844,0.3060844,0.7761236,185.3242,241.72502)">
        <path
           transform="matrix(1.1206897,0,0,1.040404,365.06756,-413.20505)"
           d="M -200.29761 903.2514 A 17.159914 29.290197 0 1 1  -234.61743,903.2514 A 17.159914 29.290197 0 1 1  -200.29761 903.2514 z"
           sodipodi:ry="29.290197"
           sodipodi:rx="17.159914"
           sodipodi:cy="903.2514"
           sodipodi:cx="-217.45752"
           id="path8139"
           style="opacity:1;fill:#cf2c38;fill-opacity:1;stroke:#000000;stroke-width:7.77020311;stroke-linecap:round;stroke-linejoin:round;stroke-miterlimit:4;stroke-dasharray:none;stroke-opacity:1"
           sodipodi:type="arc" />
        <path
           sodipodi:nodetypes="cc"
           transform="translate(340.89372,-376.11832)"
           id="path8141"
           d="M -221.59957,892.0087 C -213.57634,888.80355 -215.01008,917.25547 -220.71199,915.67755"
           style="opacity:1;fill:none;fill-opacity:1;stroke:#000000;stroke-width:4.79444122;stroke-linecap:round;stroke-linejoin:round;stroke-miterlimit:4;stroke-dasharray:none;stroke-opacity:1" />
        <path
           sodipodi:nodetypes="cszc"
           transform="translate(340.89372,-376.11832)"
           id="path8143"
           d="M -224.85404,886.68321 C -224.37511,884.01043 -220.79336,881.46985 -217.17075,883.15142 C -212.53963,885.30113 -208.90455,892.41432 -208.90455,902.14916 C -208.90455,911.88401 -211.95147,924.43148 -219.52855,922.52413"
           style="opacity:1;fill:none;fill-opacity:1;stroke:#000000;stroke-width:4.79444122;stroke-linecap:round;stroke-linejoin:round;stroke-miterlimit:4;stroke-dasharray:none;stroke-opacity:1" />
      </g>
      <path
         style="fill:#fef137;fill-opacity:1;stroke:none;stroke-width:1;stroke-linecap:round;stroke-linejoin:round;stroke-miterlimit:4;stroke-dasharray:none;stroke-opacity:1"
         d="M 424.65246,572.58608 C 420.24917,583.29782 402.12245,608.12588 412.50006,634.43989 C 417.7127,647.65735 428.14609,656.80005 437.41153,653.14599 C 440.26303,652.02143 441.39893,648.83676 440.44861,646.42709 C 439.4983,644.01743 436.55415,642.46986 433.65244,643.61423 C 429.94441,645.07658 422.96542,636.23679 420.53222,630.06707 C 412.7035,610.21615 424.08307,589.55326 427.64634,580.17754 C 436.65014,584.59711 459.07061,591.93008 466.89933,611.781 C 469.33252,617.95073 470.26617,629.17465 466.55814,630.63701 C 463.65643,631.78138 462.56118,634.92199 463.5115,637.33165 C 464.46181,639.74132 467.46574,641.29334 470.31724,640.16877 C 479.58268,636.51471 480.96675,622.71148 475.7541,609.49402 C 465.37649,583.18001 435.18209,577.40864 424.65246,572.58608 z M 449.6079,635.86441 C 444.97461,637.69167 442.28881,641.90408 443.61349,645.26302 C 444.93818,648.62197 449.76673,649.84284 454.40003,648.0156 C 459.03333,646.18834 461.7287,642.00019 460.40401,638.64125 C 459.07932,635.2823 454.2412,634.03717 449.6079,635.86441 z "
         id="path8145" />
      <g
         style="fill:#fef137;fill-opacity:1"
         id="g8149"
         transform="matrix(0.8115306,-0.3200481,0.3200481,0.8115306,-118.00306,328.18254)">
        <path
           sodipodi:type="arc"
           style="fill:#fef137;fill-opacity:1;fill-rule:nonzero;stroke:#000000;stroke-width:4.84194422;stroke-linecap:butt;stroke-linejoin:miter;stroke-miterlimit:4;stroke-dasharray:none;stroke-dashoffset:0;stroke-opacity:1"
           id="path8151"
           sodipodi:cx="3208.5005"
           sodipodi:cy="1406.9587"
           sodipodi:rx="20.789125"
           sodipodi:ry="20.789125"
           d="M 3229.2896 1406.9587 A 20.789125 20.789125 0 1 1  3187.7114,1406.9587 A 20.789125 20.789125 0 1 1  3229.2896 1406.9587 z"
           transform="matrix(1.8952325,2.1102361e-2,-2.1133022e-2,1.8924828,-5659.467,-2187.3541)" />
        <path
           sodipodi:type="arc"
           style="fill:#fef137;fill-opacity:1;fill-rule:nonzero;stroke:#000000;stroke-width:4.84194422;stroke-linecap:butt;stroke-linejoin:miter;stroke-miterlimit:4;stroke-dasharray:none;stroke-dashoffset:0;stroke-opacity:1"
           id="path8153"
           sodipodi:cx="3208.5005"
           sodipodi:cy="1406.9587"
           sodipodi:rx="20.789125"
           sodipodi:ry="20.789125"
           d="M 3229.2896 1406.9587 A 20.789125 20.789125 0 1 1  3187.7114,1406.9587 A 20.789125 20.789125 0 1 1  3229.2896 1406.9587 z"
           transform="matrix(1.8952325,2.1102361e-2,-2.1133022e-2,1.8924828,-5490.989,-2187.3541)" />
      </g>
      <g
         id="g8155"
         transform="matrix(0.8115306,-0.3200481,0.3200481,0.8115306,170.36613,222.22515)">
        <path
           id="path8157"
           d="M 39.70622,507.29203 C 33.3772,507.22156 28.18304,512.2847 28.11247,518.60453 C 28.0419,524.92436 33.12719,530.12779 39.45622,530.19828 C 45.78524,530.26875 50.9794,525.17438 51.04997,518.85453 C 51.12054,512.5347 46.03525,507.36248 39.70622,507.29203 z M 39.70622,539.22953 C 33.3772,539.15906 28.18304,544.25345 28.11247,550.57328 C 28.0419,556.89311 33.12719,562.06529 39.45622,562.13578 C 45.78524,562.20625 50.9794,557.14313 51.04997,550.82328 C 51.12054,544.50345 46.03525,539.29998 39.70622,539.22953 z "
           style="fill:#3c6d3d;fill-opacity:1;fill-rule:nonzero;stroke:#000000;stroke-width:5.73157549;stroke-linecap:butt;stroke-linejoin:miter;stroke-miterlimit:4;stroke-dasharray:none;stroke-dashoffset:0;stroke-opacity:1" />
        <path
           style="fill:#3c6d3d;fill-opacity:1;fill-rule:nonzero;stroke:#000000;stroke-width:5.73157549;stroke-linecap:butt;stroke-linejoin:miter;stroke-miterlimit:4;stroke-dasharray:none;stroke-dashoffset:0;stroke-opacity:1"
           d="M 12.159345,534.58891 C 12.088875,540.91793 17.152015,546.11209 23.471845,546.18266 C 29.791675,546.25323 34.995105,541.16794 35.065595,534.83891 C 35.136065,528.50989 30.041695,523.31573 23.721845,523.24516 C 17.402015,523.17459 12.229795,528.25988 12.159345,534.58891 z M 44.096845,534.58891 C 44.026375,540.91793 49.120765,546.11209 55.440595,546.18266 C 61.760425,546.25323 66.932605,541.16794 67.003095,534.83891 C 67.073565,528.50989 62.010445,523.31573 55.690595,523.24516 C 49.370765,523.17459 44.167295,528.25988 44.096845,534.58891 z "
           id="path8159" />
        <path
           transform="matrix(1.8952325,2.1102361e-2,-2.1133022e-2,1.8924828,-6007.4201,-2193.2625)"
           d="M 3212.362 1405.7278 A 6.0497122 6.0497122 0 1 1  3200.2625,1405.7278 A 6.0497122 6.0497122 0 1 1  3212.362 1405.7278 z"
           sodipodi:ry="6.0497122"
           sodipodi:rx="6.0497122"
           sodipodi:cy="1405.7278"
           sodipodi:cx="3206.3123"
           id="path8161"
           style="fill:#3c6d3d;fill-opacity:1;fill-rule:nonzero;stroke:#000000;stroke-width:3.02621508;stroke-linecap:butt;stroke-linejoin:miter;stroke-miterlimit:4;stroke-dasharray:none;stroke-dashoffset:0;stroke-opacity:1"
           sodipodi:type="arc" />
      </g>
      <g
         transform="matrix(0.8115306,-0.3200481,0.3200481,0.8115306,307.09113,168.3041)"
         id="g8163">
        <path
           style="fill:#3c6d3d;fill-opacity:1;fill-rule:nonzero;stroke:#000000;stroke-width:5.73157549;stroke-linecap:butt;stroke-linejoin:miter;stroke-miterlimit:4;stroke-dasharray:none;stroke-dashoffset:0;stroke-opacity:1"
           d="M 39.70622,507.29203 C 33.3772,507.22156 28.18304,512.2847 28.11247,518.60453 C 28.0419,524.92436 33.12719,530.12779 39.45622,530.19828 C 45.78524,530.26875 50.9794,525.17438 51.04997,518.85453 C 51.12054,512.5347 46.03525,507.36248 39.70622,507.29203 z M 39.70622,539.22953 C 33.3772,539.15906 28.18304,544.25345 28.11247,550.57328 C 28.0419,556.89311 33.12719,562.06529 39.45622,562.13578 C 45.78524,562.20625 50.9794,557.14313 51.04997,550.82328 C 51.12054,544.50345 46.03525,539.29998 39.70622,539.22953 z "
           id="path8165" />
        <path
           id="path8167"
           d="M 12.159345,534.58891 C 12.088875,540.91793 17.152015,546.11209 23.471845,546.18266 C 29.791675,546.25323 34.995105,541.16794 35.065595,534.83891 C 35.136065,528.50989 30.041695,523.31573 23.721845,523.24516 C 17.402015,523.17459 12.229795,528.25988 12.159345,534.58891 z M 44.096845,534.58891 C 44.026375,540.91793 49.120765,546.11209 55.440595,546.18266 C 61.760425,546.25323 66.932605,541.16794 67.003095,534.83891 C 67.073565,528.50989 62.010445,523.31573 55.690595,523.24516 C 49.370765,523.17459 44.167295,528.25988 44.096845,534.58891 z "
           style="fill:#3c6d3d;fill-opacity:1;fill-rule:nonzero;stroke:#000000;stroke-width:5.73157549;stroke-linecap:butt;stroke-linejoin:miter;stroke-miterlimit:4;stroke-dasharray:none;stroke-dashoffset:0;stroke-opacity:1" />
        <path
           sodipodi:type="arc"
           style="fill:#3c6d3d;fill-opacity:1;fill-rule:nonzero;stroke:#000000;stroke-width:3.02621508;stroke-linecap:butt;stroke-linejoin:miter;stroke-miterlimit:4;stroke-dasharray:none;stroke-dashoffset:0;stroke-opacity:1"
           id="path8169"
           sodipodi:cx="3206.3123"
           sodipodi:cy="1405.7278"
           sodipodi:rx="6.0497122"
           sodipodi:ry="6.0497122"
           d="M 3212.362 1405.7278 A 6.0497122 6.0497122 0 1 1  3200.2625,1405.7278 A 6.0497122 6.0497122 0 1 1  3212.362 1405.7278 z"
           transform="matrix(1.8952325,2.1102361e-2,-2.1133022e-2,1.8924828,-6007.4201,-2193.2625)" />
      </g>
    </g>
    <use
       x="0"
       y="0"
       xlink:href="#g3284"
       id="use3552"
       transform="matrix(-1,0,0,1,559.99942,-1.583762e-5)"
       width="810"
       height="1500" />
    <use
       x="0"
       y="0"
       xlink:href="#g3284"
       id="use3554"
       transform="matrix(1,0,0,-1,-2.4913794e-5,481.86726)"
       width="810"
       height="1500" />
    <use
       x="0"
       y="0"
       xlink:href="#g3284"
       id="use3556"
       transform="matrix(-1,0,0,-1,559.99942,481.86726)"
       width="810"
       height="1500" />
    <rect
       rx="42.40844"
       style="fill:none;fill-opacity:1;fill-rule:evenodd;stroke:#000000;stroke-width:4.00000048;stroke-linejoin:miter;stroke-miterlimit:4;stroke-dasharray:none;stroke-opacity:1"
       id="rect26883"
       width="672.00012"
       height="1356"
       x="-56.00029"
       y="-437.06638"
       ry="42.40844" />
    <path
       sodipodi:nodetypes="cccccc"
       d="M 568.6556,530.1408 L 488.5376,529.3344 L 488.4756,-303.2256 L 528.9216,-350.03406 L 570.1956,-301.25103 L 568.6556,530.1408 z "
       style="fill:none;fill-opacity:1;fill-rule:evenodd;stroke:none;stroke-width:1px;stroke-linecap:butt;stroke-linejoin:miter;stroke-opacity:1"
       id="path2472" />
    <path
       sodipodi:nodetypes="cccccc"
       d="M -1359.0211,1377.3927 L -1424.1552,1376.7372 L -1424.2056,699.88494 L -1391.3239,661.83073 L -1357.7691,701.49022 L -1359.0211,1377.3927 z "
       style="fill:none;fill-opacity:1;fill-rule:evenodd;stroke:none;stroke-width:1px;stroke-linecap:butt;stroke-linejoin:miter;stroke-opacity:1"
       id="path4680" />
  </g>
</svg>
